<mxfile host="Electron" modified="2023-07-16T04:16:10.053Z" agent="Mozilla/5.0 (X11; Linux x86_64) AppleWebKit/537.36 (KHTML, like Gecko) draw.io/21.6.1 Chrome/112.0.5615.204 Electron/24.6.1 Safari/537.36" etag="ZHW09k27Wq_nrupOkKGp" version="21.6.1" type="device">
  <diagram name="Page-1" id="nvSx4IAnzq7Xalca5M0Z">
    <mxGraphModel dx="893" dy="749" grid="1" gridSize="10" guides="1" tooltips="1" connect="1" arrows="1" fold="1" page="1" pageScale="1" pageWidth="850" pageHeight="1100" math="0" shadow="0">
      <root>
        <mxCell id="0" />
        <mxCell id="1" parent="0" />
        <mxCell id="bCjuTU7vgoYl-bQpV43G-2" value="llama" style="swimlane;childLayout=stackLayout;resizeParent=1;resizeParentMax=0;horizontal=1;startSize=20;horizontalStack=0;html=1;" vertex="1" parent="1">
          <mxGeometry x="10" y="30" width="770" height="780" as="geometry" />
        </mxCell>
        <mxCell id="bCjuTU7vgoYl-bQpV43G-3" value="devbox" style="swimlane;startSize=20;horizontal=0;html=1;" vertex="1" parent="bCjuTU7vgoYl-bQpV43G-2">
          <mxGeometry y="20" width="770" height="120" as="geometry" />
        </mxCell>
        <mxCell id="bCjuTU7vgoYl-bQpV43G-27" value="" style="dashed=0;outlineConnect=0;html=1;align=center;labelPosition=center;verticalLabelPosition=bottom;verticalAlign=top;shape=mxgraph.webicons.chrome;gradientColor=#DFDEDE" vertex="1" parent="bCjuTU7vgoYl-bQpV43G-3">
          <mxGeometry x="626" y="10" width="60" height="72" as="geometry" />
        </mxCell>
        <mxCell id="bCjuTU7vgoYl-bQpV43G-28" value="" style="shape=image;html=1;verticalLabelPosition=bottom;verticalAlign=top;imageAspect=1;aspect=fixed;image=data:image/png,iVBORw0KGgoAAAANSUhEUgAAADAAAAAwCAYAAABXAvmHAAAACXBIWXMAAAsTAAALEwEAmpwYAAAE8UlEQVR4nO2ZXWxTZRjHnyeyGzGYoICgxisTE00EL7hA4wWJNwZCgM0ENfZr7dZtZYzxlSEZAjLG1tN1O+1Zs53TuXZtV9hoRzQx8ePCK4M3xsRM1AvOOW3X9nwUFlTQ8ZrTdlhHhzLaxpr+kv9N+/Y5v3/yJD09BahRI8s5j+dxys19RDGsSjHcrGOY2wPVBOXmvA6GI4uh3Nxtih57EaoFiuFShQWyGeYOQrVAMey39xRg2H0rHujyjG+jR/x2etRvDofDj0CZsTPcmw43+2vBCn3l8XjqVjSM9vo306zvd5r1E3pUi6/3nz4zPwIbrrvgXdWFw6oLr6g08uoQ3lQHs+EVJ15RncgoTnhnvg/WF5sxwHDPDzBcG8Ww9SuW13Cx/iMudoK4tAKsnwyN+L9b7qwyDK9nGAyrLrydcSFRtdBI1KF8BpGoTiTKQD4OJDKFtxQKQ0o/vAblwM0FtucK5DLE+tmlZ9JDsEllcDzjRpJZlKYLpIuIKxQSxZ6L3I9E7kMi9eFlpQ+eK0MJn47mJj51jU44nD7fmsL3VAZ2Z9w4X1TcWSDuWF5cPp9PLxK5B2+ke2AXVIKMG7oUGu8UXZNlxLPSxcTPIZG09CBJn8WF9Bk4WlZ5lYbO++z3D4oDLygUnlfs0Kb2g162Q4MW6TzopXPQJvVin9yLF6QevKpJS1rOIpE+zCV9BknqFLSXRT4zBA3KIN5Z3G/FiarswHHVAXsydlj7oPOun4UnpDOwVzqNvtRpzKRPI0mf0grgQvID2FtS+RQFGxUnKvn9/l52gDnmgUdLNT/RB6vTp8CSOomz6ZNIUt0oJbvhqVLNB8WJl+QBlGQHNJFuWAVlgnTDqrkT0Jw8gXLqfbxYkqEqBa/IDvxMssPTUCGkbngmeRy/SHbB5ocepgzADuKBlX8rrhBigbrEMdhR6evWqFGjRo0aNWr8r0h0wU7txqrS1yXdsCpmgjceelDqKGxJHsPPpa7K3U6LenhWbMQvBQO8XJKBicM4NXcE5bnD0FzOHzTfWKBObIRW0YgKb8BwyQanDsDGuUMoz3UiSRzE2XgHNCU6YXWp5idb4DHRBFbRhFcFIxJej+mfTbABSkm8E+rjHbiQ6ECSOIAk3o6ZxH70x21QH7fBugedl2iG9WIjvCUYMSAY8bomLhiQ8Dpc4N+D3VAOYu1wQJNPtCOJ70cSt+XThiTeij/GWnEqZsX+mBVsYjMYRSs0iBZoEM1g5C1gE8xoFxtxSjThT6IJiahJ58UFfS68Dmxlkb9bwgZHY224UCBOYi35WJHEmvNpQiJa8jEjERuRZKVNBdKGQnFc4PVwqKzyd0u0wK5YK964R7ypQNx8H/G8tPCX/A1RDzuhklxrhU2iFceLijcWiBdZkyXyl+PGMjzc/bfEmuBVwYJB0Yy37hFfsiZ3o8PfBB0GRD1sq4jkaCCyhQ1eOsEGp4+PhqZeKnYmboB1vAneFozoFvT4NW/Aa7wOb2ajx2vaa4IOXbwB9sUs8CRUCu9kxMwFIn9wwQjJ5zYbmF75f1eVZCQcXssFo794Q1HiDUWId7FEIJLxzMyU7Nlo2eAC0e05+cVEstFKjExMb4X/Ot6LMy+MTUbJ2N9K5IqMBiKboBoYm4x+PDY5Q7QiiwW4YDQI1YLP98kab2jG7Q3NxL2hqOgNRamq2H+oEv4EAGDM6epTOSsAAAAASUVORK5CYII=;" vertex="1" parent="bCjuTU7vgoYl-bQpV43G-3">
          <mxGeometry x="50" y="21" width="61" height="61" as="geometry" />
        </mxCell>
        <mxCell id="bCjuTU7vgoYl-bQpV43G-29" value="" style="shape=image;html=1;verticalLabelPosition=bottom;verticalAlign=top;imageAspect=1;aspect=fixed;image=data:image/png,iVBORw0KGgoAAAANSUhEUgAAADAAAAAwCAYAAABXAvmHAAAACXBIWXMAAAsTAAALEwEAmpwYAAADv0lEQVR4nO2ZvWsUQRjGZ97VJogfaSSFQbC5bWyUYGMRsbWwsBObgIWFMWBmLid4gtGZBNTOzn9ABEHZGMzsLRo/Ck935hRUSBELQQIKIrkLEjMyG8479T5mde8L7oEpd+f57b4z88wMQn311VfH5FBxDKhY2sZfPXMfFA+jXhIQMQbUXwfqayctNty5ona94suUVzyFshpQNwuoGAcqNoz5cosAKu21ATmQ11tRd0ljTMRstXGoDRC11Nzqsuutjh+4pwc67RyhbLAFE3GrlnmoA/CrecWV1NzqBNIad8j8vQFMhFfPPDQDqIBk2m8+vbgLiHjSyDzYA3xsr/nMoyGgvmpmHmwB5oq6febP+/vMHG9jHloCYAYMD0cQC/fGNj8ZHAQiVmzNQ+IA194MYq4C4EoDU+uYyWl0+7Zj86gzKUaB+F/jmIdEAfibYeDybWS+qhkgNJ0famieiuNARCmWeSJKkM6dTgwAuFr803ylyU8Ok0dqPjeZOwPE/xHvy4t36LzYb55PDoDJz/UBNksKmLxYnVcgLWjcksFE3EF0YUf5HYkBYC4vNwQolxSTD9GVwm5MxPWY5tdMFvqzXzexMaA1xkxdsoEAJktwYTFOySwjIkZqdesmPY0Cl2eByx/NIZSG7HMNNNe4ZKh/F40HO+v157ZiIQMWngSmvlv9jct5Demg1lf/bsZIs77cVq3EDiscBS6/WUFcDTVkHlUDfEAkOGTTj9vSKMHDEeDyixWEadnnGhP/PpqYH7Ttwm0pABEjkAm+RF/YEgKz8L5Z0TsO4KQXjgIR36KSyAQarryyhgAuPyCuOldCQMXJaBBWD8opA5G3hzCTACu0fxADyZ2tGw3Suc1Zx/pPRAvfXXQjbMc0qjGm/qXmi5KBeFGKAwFMLUcRvZUAmPrTVlmG+g/RlNiNubweD0KuAVOtixJA/c9NzK8DFRdRNlsJc6xAY0FsxvM7iOeTD3NA/cf1s7v/yaF+7Tg9o85YRY/f/8Y7NFtINk4jujAMRLz9O/76gdmkN3rUYeFx4DLeuOCyBKyQ3IYm0sT8oDFcLhkzLtAJyy3lTDgKXH2NW1Ju8uuAxmZzji7M70FxNVM4CFytdBjgPzX7eh8wudS7AEbT+SFgUvUugBEr7AKuniQC4LX7aLGsbH4Ac+n9L0DKK051BiCCCLZgrm79E4AXHa+f69zxevWBAZeztgCprrrgqJLJQsDkRgOAbr1iqgi4HIsOybjSDpe9dclXlsPkMeDq/fabS0977pq1r75Qd+gnbk39qO0MuGMAAAAASUVORK5CYII=;" vertex="1" parent="bCjuTU7vgoYl-bQpV43G-3">
          <mxGeometry x="150" y="21" width="61" height="61" as="geometry" />
        </mxCell>
        <mxCell id="bCjuTU7vgoYl-bQpV43G-46" value="interactive:&lt;br&gt;chat&lt;br&gt;model comparison&lt;br&gt;api: openapi, cohere, anthropic" style="rounded=1;whiteSpace=wrap;html=1;" vertex="1" parent="bCjuTU7vgoYl-bQpV43G-3">
          <mxGeometry x="480" y="16" width="140" height="84" as="geometry" />
        </mxCell>
        <mxCell id="bCjuTU7vgoYl-bQpV43G-47" value="batch:&lt;br&gt;llama_index&lt;br&gt;direct api calls" style="rounded=1;whiteSpace=wrap;html=1;" vertex="1" parent="bCjuTU7vgoYl-bQpV43G-3">
          <mxGeometry x="211" y="16" width="140" height="84" as="geometry" />
        </mxCell>
        <mxCell id="bCjuTU7vgoYl-bQpV43G-4" value="application" style="swimlane;startSize=20;horizontal=0;html=1;" vertex="1" parent="bCjuTU7vgoYl-bQpV43G-2">
          <mxGeometry y="140" width="770" height="180" as="geometry" />
        </mxCell>
        <mxCell id="bCjuTU7vgoYl-bQpV43G-24" value="open-playground" style="shape=image;html=1;verticalLabelPosition=bottom;verticalAlign=top;imageAspect=1;aspect=fixed;image=data:image/png,iVBORw0KGgoAAAANSUhEUgAAAIAAAACACAYAAADDPmHLAAAABmJLR0QA/wD/AP+gvaeTAAAW1klEQVR4nO2deXxU1dnHf8+dPZnsCyAEInskrLLvfgrYFvXjR0URRVEqrQsfVCxQUFo3xJbalr7WYimlKqK+WNtX37cKZScge0IIECAhgYSEkH2ZfeZ5/5gldyaTyUwySxLu96+ce+9ZMue59577O+d5DnCLwczTmPmvzHyemZuYuZyZc5j5DWYeGun2SYQIZp7FzEfYNzZm/pqZx0W6vRJBwtHxR9voeG/sYuYJkW5/qKFINyAUMDMBuB/AawBGe55vNPDZ3CumqktlZorTEPr1kGNEumqgIOA2L8X9G8AbRPR9iJsdEbqVATCzAOAB2Dt+hMdpa0GZ5ftfflzT4/w180DPvETgu0Zqslc/EkcJWmGUl+J3AniTiA4Fv+WRo1sYgKPj5wJ4HS3veFvJTcvR5X+p7nm5zHK7P+VNzlDnrlkQZ+gZL/M2FsgC8C4Rfd2xVncOurQBODr+Qdg7PsPjtLmgzHJs9d+qe18us6S3p/wJQ1Rn1z4er+8ZLxuLlr9VtzCELmkAoo5/E8AQj9PmgjLLsZVbqvtcKbf0C0Z9menKi28/EV/VJ0U+ES1/s8MA1ndVQ+hSBsDMCgCPAlgDYLDHaVNBmeX4is3VaUUVlr6hqD8zXXnx9cfja9N7yMeh5W+XDWAdgB1ExKGoPxR0CQMQdfxrADwHcKa8IvPRlVtqBpbVWHqFoz0ZafLLry9MvDGgl3wiAJnH6RwAb6OLGEKnNgBmVgKYD2AtgAEep415ReZjK/5WPai82toz/K0DMtIUl19fmNCaIeQC2ADgEyKyhb91/tEpDcDR8Ytgv+P7eJxuOnHJePK1j2qHVtRaU8PeOC/0TZVde2thYtGwdMUkAHKP02cB/AbANiKyhr91vulUBsDMKgBPwn7H93Y/h6aTl40nX/2odujNTtLxnrRhCOcAvItOZgidwgCYORrATwCsANzVOGfHr9lak1FZb0uJSAMDJC1ZXvLqgrjCsYNUEwCoPE4Xwm4IW4jIEv7WuRNRA2BmLYDFAFYB6Ol+Do1ZeYaTaz+pHVHXZEuISAM7SJ9keelrC+IKxg5SjQeg9jh9BcB6RNgQImIAoo7/BYAe7ufQkJVnOLX247qRdTprfCTaF2x6J8uvr10Qd3nsINU4ABqP00UAfg/gz0RkDHfbwmoAzBwD4DnYH/WJbueA6v+c1ueu+6x+VL3OGhfOdoWLlDih8tX58XlTM9Xj0dIQrgJ4D8AmIjKEq01hMQBmjgXwLICVANwe5zbm6t3Zhty3tteNbtTbYsPRnkiTFCtUrn00Pm9qpnocgCiP09cA/BbAh0SkD3VbQmoAzJwEYCmAZQDcHuc2RtXubP3ZNz+tHdNk4JhQtqOzkhgrVK94KC531ijNGCJ4/gYVsD8RNobSEEJiAMycDOAFAC8CcHuc2xiV3xxtynv3v+vHGUzsaf23JAkxVL1yXnzurFGa0UTwfAo6DeGPRKQLdt1BNQBmTgHwPICXAPd/xMa4+c3RpnPrv6gfbzSz5/tPAkC8VqhZ9XDcmVmjNKOI4DkOqgTwPoD3iKg+WHUGxQCYORXAy7A/7t3uaquNr+842HT59//TMN5kYs9PIQkvRKuo8ZWHYk/eOzF6JHm8OtFsCL8jorqO1tUhA2Dm2wCshv2Tzq1zrTZc+3h346VN/9cwxWRhTzFEwg9iNNS0/MG43LnjNUMFIk9DqIL98/F3RNTU3jrabQDM/FPYFS23R5XVhuIt3zUUbf6uabLFalO0t3yJZrRqanr5gbiceydGDRXI/fMZdh1hCRHtak/Z7TIAZn4L9jl5FyYrF/3l28bSv+9smGC1tdDBJYJAlJJ0yx+KP37fRM0wgZAsOmUB8CgR7Qi0zIANgJmfBLBVdMjwzTH90Tc/rZ1isbLU8WFAqxHq338+4UxmP9UUNPehGcB4IsoOpKyADICZEwHkAy7r07+yuebC3hx9i6XXEqHnlYdiDzw6QztddOh7AJMDWYgiBFjnY2jufPzhn/Wnpc6PHBt21E8/ccm4X3RoIoCAnFkCNYCHnH/UNPLJj3Y3Tg4wv0SQeXlT9VibDeWiQw8Hkt/vdzYzq2G3MADAxn/VRXxRw7B+CkzKiKy08PVRHW7URO6naDJy9IE8w4mZw9XO6fSZgeQPZNB2JwAlYF+k8d0J/chAKgoFw9OVeHZuZKcRTlwyRtQAAGDrzsZeM4e7boThzBztrzYQyCtgkvOP6gbbRaMk7nQazhabBjGj1pGUA/Dbu7ldBpBbbOqwBCkRPJhB1Q1cIDo0qdWLPQjEAFyjyz05xugA8kmEgVMFhkZRMrgGwMz90LxKlw+f03mu0ZeIMHtzjFpRcpLDRb5N/H0CuCzKZOWimgb21KMlIszh8/rBAJwOKMlo6UjjlYANoKjcUhpY0yTCQYOOY4xmviI65JdGE7ABZOUZOr2/261KYZmlTJT0axzQpgEwswaA65t/T44xIn54Em1zKM9tMXFwDADuAlDjhRJT/8CbJhEO9p7Ri72qMh2rsX3ijwE0C0BNtos2WwsvWIlOwsVSy+0M1DiSMgBj28oTkAGcKTAFbTGiRPBhBlXVWQMShPwxAJEApNP6ulAi8pwuNAckCPk0AGZOR7O3LmedM0kCUCdnd7ZB/N6f2JYg1NZsoEgAwpW6JlunGgCeLjDhd18F/lYSCHj67hiQ46dp1NuwfV/7FtaWVkZ8VtyNw3n6wUC8FfYxQBKAQQAutna93wZwpdx8HUCnMoD8EjPyS8wB51MqCMvub75RNEoZPtnT6CNH16HJyFqjiS+rlOSMpTQJPgygrTGAywAOnZUEoK5CQbn/glCrBuAQgFzhVvfm6MMSgUui4xw4axD3a/sMAPZvSKcA1JBf6l+YVYnIszfH4Lcg5MsAxCuALkkCUNehoMycbmOudiQFAONbu9YvA8gulASgrgQzqKre5pcg5MsAXCuA954xSAJQF+PkJbP4uzYwA2Dm29EctYsPnzNIAlAXY3eOXuy0O8kRYLsFrT0BXBZjNPOVrhqm7Vbm6HnDIABOlSoeLYNrA/DDAArLLdeD2zSJcNBkZK3RjDbHAW0aQNY5SQDqqlwsNd8QJf0zAE8BaF+OQRKAuiiH8toWhLzNBYwDoAAAZtTnl5jDov+PG6zCMz+KQZQq9KELyaMKQQA+WRGeMMRV9Va89496FFeEPjrs3mx9H5Hr3B3MHOcZV8ibAbgLQIw7Q9hGAIBMAH69OAGxUYE6KwcHApCRFq5oNgpolIQlG6tCXlPhDUtfG6NKICShWRByCyXj7Rd3GcDpQlNDaJtoJzZKiFjnR4I+KeEJpMIMqqizFIoOtXgNePvVm1cAZetvyQie3YnTbQhCbqbIzP0hEoC+Px+ZFUD7zhjw+rbati/sAP94LRUJWrv9F1dYsOi3lSGt75MVKeidFP7plN3Z+vgfjXPF5ZzIzIJ4CxvPZ5FYACqs01kjYgAWK6NeF9ptdlj0cWuzIeT12WyR+Zo+mm8aBHsUMTnsgtAQAOed5z1fASIByCoJQN0AndEWbTC5uY67uYy1agBZeWELWS8RYi6VWloVhFwGwMxREAlAu3N03nbSluiC7D+rFw8+vBsA7AKQHACYUXdZWgHUbdh3xiDeei+DmV2Te16lwqp66yUbBxxCTqKTcqXc0s/GuOlIEkQrhLwawOnLpu6xRlrCRUWNRRw7wNXXYgNwCUC7zxgkAaibceKSWbzbiLsBMPMANG/fZjt6QXIB627sydaLF/VMdK4Qcj4BRAIQCuq7yX59Es0cvWh0CkKAfTufDMCLARSUmcsh0e0wmDhKb+TLokOTgGYp2GUAB88GXwDqES9DSnzrOrhGRcgrbvbxq9cxMtOVPss8f9UEayvqbYJWQO9k3zNu16utLvm3st7aZn0F183Qm7zLuVqNgPQevuu7etOKep09f4Pe1mZ9VyssQZen80tNFaP6q4Y6kpMAbJY7Nm4e7rxob64h6ALQvGnReGqO/yvLh/VT4IEpvneUm726HNUN3n+gu0aqsWa+/2+x9B5y/H2578i3T2yoRF6xyeu5zH4KvP98kt/1AcDEob7rW/W3Guw6FdztAg/mmmSj+rvqnQTYXwFuAlBBqVkSgLope87o+oqSQ5k5UYDo8V8pCUDdmqsV1jQbo8KRJADjBYg8gPJLzJIA1M2pabBdEyUnCQDucKYKy63S3d/NqaizigcWQwUArokCQYDkA9DNEcitj28TALi++9KSZZIBdHOS42XiUP8GAcBVZ2rMAFVg3zISXQq1knSJ0cIQ0aGrAoDdzlRMFA3LSFNcbplVojswf0b0aSKInwC7BNh3AXU++oXfLE4IvceCRNiJUglNz90TI9Z4agF8LRDRGQCfO4/2SpJP+NncmINhb6FESPnTCwmnZAKJVd5XiajJ+dm3FIDr+/CZH8aMGz1QeS6sLZQIGYvv1h4Znq6aJjq0H8CfAcdsIBFVwr4rqNFxgXrT0qT4hBiqhkSXJjNdefG5e2LFezyWA1hARFZAtCKIiI4BeMmZlgl02+erehQJAjpXLFQJv4mLktVufjFJDcA5s2YG8DARuXw+3OYwiegDZh4H4CkASIoVxryzKGHfyi01MzvSkOIKC76/YGz7wgAw+fCuvlFjDXp9jfrWp2Zrm2xBr6+qvmP3HRF428rkfIWMxJtJLycit/FdC2d8xx7BWQDGOA+99Vndsa+ymgLalVoisqx/OnHf7NHqmaJDnxHRo57XtdD+icgA4EEAzs9BWvNI3JD0VPlVz2slOiezRmtOzR6tFg/6LgBY4u1ar5M/RFQEYBEc+9ARIf7TlSkGtZJ03q6X6Dz0TpJdf+ep+HTAFdm1AcADROQ11kOrs39E9A2Adc60SkmDP3ol5XQQ2yoRZFRyMm5flVonEDk39mQATxPR+dbytDX9+0sA3zoTA3rJpyy9N/ZAx5sqEQr++lLysWg1ZYgO/ZqIdvjK49MAHIEEHgPg8ipZNEc7YexgZU6HWioRdJ6ao83K6KsQv/f3Ani1rXxtLgAhomoADwBwLiRQffB8ckpijCDNGXQSMtOVF1+4N3aM6FA5gMeIqM1QZH6tACKibAAvujIJuO2L1anFkkgUeRxijwaAMw6MGcA8Iirzkc2F30vAiOhDAFuc6QStMGbDTxKlSaMIIhBsn69OvqyQUZro8EtEdMjvMgKs83kAJ52JGcPVM+ZNi/4+wDIkgsQ7TyceSImTiXcH3U5E7wdSRkAGIBKJnCG1aOW8uIzbe8oLfWSTCAGzxmhOzRrlJvbkAngm0HICXgVMRMUAFsARipwIcdt+nmKVRKLw0SdZXvrOohZiz8NEFPDmh+0OzMvMv4JdJwAAFJZZDs9bVzG59RyhZfQAJZ6arcWg3gokxAiob2JcvWnBzlN6fHGgCaMHKLH5xWT857QeK7fUeC3jy1dTkZYix5w15ahtbJ786d9TjkWzYzBusBIJMQJqGmzILzHjyyxdSHwpfaFUkmH3up5XolSu732GfdD3ZXvK64gfwBsA/u1M9O8ln7zs/siIRFOHqfHhsmSMH6rClXILdp0y4NJ1M9JSZJg/w74ELrvQhBu1VkwdpoZG2dLuB/VWIL2HHMfyjW6dPy1TjW0rUjB3vAb1Ohv25xpQWmXFmIEqLPxB+HfS2fJi8glR5wPA+vZ2PtD2zqGtQkQ2Zn4MwAk4dhR94gfaSccums4cOWcY4Tt3cFkwMxoCAY9vqHTbSVQQgGF97V64zMB/Tuvx2F1aTB+uxncn3R0v54yxf0XtFDlkJsUKePvJBAgCsOKv1did3Xy3a5SEEbf79vANNs/dE3MwI62F2PNaR8rskCcQEdXAXSRSbPxpQkpijOyGj2xBJ14rQGdkXCx130bWZgNyi5o9eneesnfg7NEaeDJ7tBpmK2NvTnMnPzglGtFqwleHdW6dDwB6E+NofnDXAPhiRLoyf/HdMeIRfwmAR5wre9pLh13BiCgHwE9dBQrU64vVKWUyAaEPiO8gv8SMKBXhjYUJGHhb62HfzxaZUFplxZQ7VG77EmSkKZCWIseR80Y0iBZ+jB1sd6X+15HIjm/jooWazS8lR8Fd7JlPRDd9ZPOLoPgCEtHHADY70wlaYdR7SxL9FiM6yp//twEFZRb8eJwGn/8iBd++1QNvP5mAKXe09MHfdUoPpYIwY7jadWzOnY7Hv8drITXO/vOURHCHcIFg+/wXKQUyAWKxZxkRZQWl/GAU4uAF2McDAICpw9QzHpmuPRLE8lvlRq0Vj717Ey9/WI1/HtbBZAZ+OFaDjc8m4Y2F7hueOd/xzk4H7K8Ek5mxP9f9Me+5s0gk+PXiFmLPp0T0QbDKD5oBEJERHiLRzx+KHT64d3hEIrPV3oFvbq/Ffa/fwIJ3b+LaTQvmjtdg1IDmwVp+iRnFFRZMylBBqxEwPF2JXokyHMwzQmd0d428UWO/83snR2bX3HsmRB2/a6R6uuhQu8QeXwTVHZyIrgKYj2aRSLt1eYpVo6Swxx3ILzHjq8P2d3f/nu4fO7tO6aGQEWaOUHsd/Ts5fsk+gLxvou9wNaGgT7K89FePxw9Acx85xZ6gDkiCHg+AiHbDrhEAAFQKGrRtZcqZYNcjZv6MaMRr3f8VQQDuHGQfAzjvZCfOT8C7x2gwa7QaehN7FXS+ytJBZ2Q8MCUK0zPVbudUCnKVH2yUSjJsX5VST4B4Zc8iIroQ7LpC8pZjZgLwDwD3O49t39e4f8OX9TNCUd+e9T2h1Qg4d9WEkkor5AKQ6Xi0ny4wYcnGStg8VnV/sToVA3rZnwzfntRjzVbv6uDMEWqsfzoBChnhwjUziiosSIoRMDRNgYulFiz5Q/B3Gvl0VcqhIb0VU0WH3iaiNhd3tIeQDXMcEamPA3BGHTUv+6Dy/KFzpqCLRD8ep8HUYWpk9FUgJU4Gs4VxvcqKb47p8GWWDiZzy7AHP7k7Bs/eY4+Iu/wv1dh3pnVJd3BvBZ6ao8XYQSrERBFqGmy4UGLGjkO6oO+rsOz+uANP/CBa/N7fA2BOR7/3WyOk41xmHgHgCByeKTZGxdy1N1BRa00NZb1dlbGD1XmbliYOBOB8t1wDcGcwvvdbI6QxgRyex6716AIh9bNVKaUygcw+st2SxEULNX96PjEWzZ0fNLHHFyEPCkVE2wBscqbjooXRG3+WGBQRo7sgEGxftBR7lhLR4ZDXHeoKHCwF4PpnJmaoZsyfER6RqCuwYUnSgWR3sWcbEW1qNUMQCYsBEJEZdn3AtWvFKw/GjhjSR1HgI9stwX0Too7PyFSJB31ur81QE7a4gER0De4iUfTWV5KFaLV3l6VbgbRkeclad7GnFnY3rrDNPoU1MCQR7YFoFZFSRrdvW5maA9x68QkdYk+jh9jzNBGF9akYicig62AXiQAAacmyqasejrvl3M3+/nLyCY2KhooOvUVEX4W7HWE3ACJiAIsBuMLRzZsWPfmukZpbxvH05/Pi9g92V/p2AvhVJNoSkdjARFQLe0wi57tO8ZvFCYOn3qEM6ZxBZ2DpvTEH5093U/qKYXfjCu3mxa0Q0RlvZl4I4CPRIfPBs8asNVurxzYZOfwrLkNIrwR52Z9eSLzSN1UuXjltBDCNiI5Hql0RX/LAzP8Fu8eRGF1xhSX7XLHZVFBuVuiNXWsPA4WM9SDYYjQyeXoPGUb1V8UmxQoj0byO38kzRLTZWxnhojMYgAz2aKWPR7gp4WYNEa1r+7LQEvE7yzHLtQjAaogil3djKmDX+CPe+UAneAKIYeZ+AJ4EcB/svgYJvnN0CRhAGYB8ADtgX9NXG9kmNfP/+2ghsrh4gC4AAAAASUVORK5CYII=;" vertex="1" parent="bCjuTU7vgoYl-bQpV43G-4">
          <mxGeometry x="626" width="61" height="61" as="geometry" />
        </mxCell>
        <mxCell id="bCjuTU7vgoYl-bQpV43G-25" value="open-playground-xxxx" style="shape=image;html=1;verticalLabelPosition=bottom;verticalAlign=top;imageAspect=1;aspect=fixed;image=data:image/png,iVBORw0KGgoAAAANSUhEUgAAAIAAAACACAYAAADDPmHLAAAABmJLR0QA/wD/AP+gvaeTAAAaj0lEQVR4nO2deWBU1dnGn/fOZJZsk4RJWAMBZAkEIcgWdr9Cq3UpRVFAragVrUpdK3yoWDfUamnV1kq1iFrFWutXK2pV1kRE1uxEAgkBjAkhZJ/MPu/3x53lzpJkksyW5fdX7rn3nnsm571nee573gP0MZh5HjP/jZlLmFnHzNXMnM/MTzLz+HCXr58gwcyLmHk/t4+NmT9h5unhLm8/AcJe8Qc6qHhffMXMM8Nd/mBD4S5AMGBmArAEwGMAMj3Ptxi4qPCU6cKJKjNp1IQRA+W4OE15kSBgiI/sPgfwJBF9G+Rih4VeZQDMLABYCrHiL/Y4bS2rsnz7+Dv1A0vOmi/yvJcIfOlkdd766zWUGCtM8ZH9lwCeIqKvA1/y8NErDMBe8VcAeALeb7zt+/OWAw++XjfoZJVlpD/5zU5XFT6yUmMYlCDzNRbYB+B5Ivqke6WODHq0Adgr/hqIFZ/ucdpcVmU5uP7NuqEnqyxpXcl/5jhl0YYbE/SDEmTT4P2/6hWG0CMNQFLxTwEY53HaXFZlObh2S92wU9WWEYF4XkaaovSZXyRcGJYsnwXv/9k3AJ7rqYbQowyAmaMArADwCICxHqdNZVWWQw+/UZdaUWMZHoznZ6QpSp+4MaEhbaB8Orz/d3kANgL4kIg4GM8PBj3CACQV/xgAzwGcqbjCfGDtlvqLquotg0NRnvRU+cknbko6N3qwfBYAmcfpfADPoIcYQkQbADMrACwHsAHAaI/TxuIK88GH36wbU11nHRT60gHpqVEnn7gpsS1DKATwIoC/E5Et9KXzj4g0AHvFr4L4xg/zOK07fMJ45LG3G8bXNFhTQl44HwxPkZ19+qakiolpUVkA5B6niwC8AOBdIrKGvnTtE1EGwMxKADdDfOOHup+D7shJ45FH324Yfz5CKt6TDgzhGIDnEWGGEBEGwMwxAH4J4GHAXY1zVPwjW+vTa5tsyWEpYCdJ1cq/f3SlpnzaGOVMAEqP0+UQDWELEVlCXzp3wmoAzBwL4DYA6wAMcj+Hln3FhiMb/t5wcaPOlhiWAnaTYVp55WMrNWXTxihnAFB5nD4F4DmE2RDCYgCSiv9fAAPdz6F5X7Hh6IZ3Gic3tloTwlG+QDNUK/9hw0rNyWljlNMBqD1OVwD4I4DXiMgY6rKF1ACYOQ7AXRCb+iS3c0Ddjlx94cb3m6Y0tVo1oSxXqEjWCLWPLk8onpuhmgFvQzgDYBOAzURkCFWZQmIAzBwP4FcA1gJwa85tzHU78wyFT29rzGzR2+JDUZ5wMyBeqN2wIqF4boZqOoBoj9NnAfwewF+JSB/ssgTVAJh5AIA1AO4F4Nac2xgXdubpi556r2GqzsBxwSxHpJIUL9Q9fK2mcNEU9VQieP4PaiC2CC8H0xCCYgDMrAVwD4D7ALg15zZG7fYDuuLn/9k03WBiT+vvkyTGUd3aZQmFi6aoM4ng2Qo6DOEVImoN9LMDagDMnAzgbgD3A+4/xMY4v/2A7thzHzTNMJrZs//rB0BCrFC/7jpNwaIp6ilE8BwH1QL4M4BNRNQUqGcGxACYOQXAAxCbe7e32mrjHz7M0Z3843+aZ5hM7DkV6scHMUpqeeja+CNXzYqZTB5dJ1yG8Aciauzus7plAMw8BMB6iFM6t8q12nD2nZ0tJzZ/1jzHZGFPMaQfP4hTk+7BazSFV8xQjxeIPA3hAsTp4x+ISNfVZ3TZAJj5DoiKlltTZbXh9JYvmive+EI322K1RXU1/35cxKpI98BSTf5Vs6LHC+Q+fYaoI6wmoq+6kneXDICZn4b4Td6JycoVr/+3pfKtL5tnWm1eOng/ASBaQa0PXptw6OpZ6okCQSs5ZQGwgog+7GyenTYAZr4ZwFZJkmH7Qf2Bp95rmGOxcn/Fh4BYtdD057sTCzJGKOfAVYdmADOIKK8zeXXKAJg5CcBxwGl9+ofeqP9ud77ey/W6n+Dz0LXx2SsWxM6XJH0LYHZnHFGETj7zBrgqHy/9uym3v/LDx4sfNs0/fMK4V5I0C0CnFrN01gCudfxR38JH3t7ZMruT9/cTYB7YXDfNZkO1JOm6ztzvtwEwswqihQEAXv64MWKcGvoyOiPHZBcbjkuSFnbm/s60AJcAUACik8YXh/WTO/OgfoLH1i9bpM6wk+wONn7RGQPIcvxR12wrNfaLOxFD0WnTGGY02A/lAPxe3dwlAyg8beq2BNlP4GAG1TVzmSQpq82LPeiMAThHl7vyjX43Mf2EhqNlhhbJYWANgJlHwOWly98ca/X00e8nzOzON8ZKDrPsS+Q7xF/lzmlRJitX1DezX6tsI5WkOAFzJ6owL0MFncGGnCID9pcY0WqM+IU8bfJNiX4skGCD+FJrIS6kOdnRfZ02gIpqSyWAHmcAQ7UyzM8QK33aGCVkkrbvqpnRsNqAogoTsosM2J1vwOmasHtsd4rmVo4zmrlMGUWO1nk2gmEA+4oNPeI1UUQRMkcpMGOcEpdOVmFESvs/VSYAk0cpMHmUAmuujkdlrRU5xQZkFxpw+IQR1ohd3OWivMpSlT48ymEAWQDe7uieDg2AmdUAnHP+XfnGsKzD84eEWAFzJ6gwL0OJrHQVYlRdd3cYqpVh+YIYLF8Qg0adDYdKjcgpMmJPoQEt+si0hq+LDUgf7vwC79dAsMP/EDPPBZAj/o2WGff9oLbZvBZCho3Rg+WYl6HC/AwVJo1UQAiyn7PNBhTau4o9BQZUnIucrmLcMHn5e2tTRtkPrQCSOnIf86cLcAlAOlupzYap3Shjt3E07fMnqbDwYhUGJYbWFoV2uoojJ02wWMPXQ5ZWWkYyUE+i670MwDQAu9q7p1MGUFBmCpgzYmdIjBUwJ0BNe6Bpq6vYW2hAc4i7CmbQhUZrmVYjm2ZPykIADEAiALXGtndhIBmRIsePL1Fj3kQVJgyPAkVOnbeJJkbAokw1FmWqYbYyjp40IafIgC+O6FHXHBpjyC03tyzOdLaKHY4D2hWCmDkNrtW6vO+YKWQC0NlaCw6VGnGo1IhTEdTP+svZ81aUnDGj5KwZ9S2hawl25hmk7vizOhKE2j3JzCsAvAcAJivKs+77YVR71wcT6Tz+kosUkMsiq0kwmhl55eIbvyvPgHMN4flaHqOkluwXB6vhilgyjohK27q+oy7A2YScqjb/ACBkBhCtJDdlrrLWim17dNi2R4f4aAEzxintBqFEfHRn/VoCQ12zDftLjMguMuCbY4Y2lUTP3xJMdEaONZr4pFJBjlhKWQC6bwBfF4VWAPrjnQOQGCtgR64e2YUGfPe9GWwvQVOrDTty9diRq4cgAOOGRmH+JLF1SE8Nrid6ebUF2YUG5BQbkF9ucpZJikDAuGFimRZlqvFtiRG//yh0H1DLqi1VE4ZHSQ3grbaubdMA7AKQM9zq7nx9SCJwSRk1SI7Vl8dh9eVxqKqzYn+J0anbm+3TLZsNKDkr9rWbP2vGUK0MM+2tw6x0JaK62VVIm/adeQbUtNG0K6MIM8cpRU1ikhLaeNf09NuS0C77zy4yCBP8FITaawGmweUB1Hy80r8wq8FicJIMS+dEY+mcaDS12nDwuG9lrrLWio9qW/HRvlaoFYTpY8VKWXixCklx/nUV/jbtUuVx9gQVopWRMS7ZnW8YcudPnYuNM5g5vi1BqD0DkHoAnQi3ACQlPto13XIoc1/l6rEr34Bz9a43VG9iZBcZkF1kwLMftN9V+NO0A67B6OJMdUiUx65QVmVOszHXCURJEGd6MwDs8HWtXwaQVx4eAcgfpMrcQ9do2qxIz64iNVmOuROVaDUwcooNbc7TpWOMxZlqjBwU+WtfmEEXmmxlyRqZYxlZFrpgAE4P4N0FhpAJQN1l1CA5Rg2KxarFsaiut+KbY97jBgA4e96CbXt86wvS/nzBJBUGxIdnltEdjpww6y6b1rEg5NMAmHkkXFG7+Jtjhh7pATQo0TVu0JsYh0uN2JFr8CnTSuXmORNVUCsisG3vBDvz9ZrLpjkXbGcxs+ArYmlbLYDTYoxmPtWos4VNAAoUagVhnl1IMlsZd7x0AfmnTACApXOisf76hB4hN/vLgRLDGIhfBGUQYwyMBfCd53VttW1OAyivtvwQjAKGkygZQSl5w2NVQq+qfMAuCJnRoadwhwaw71jP8ADqLNJRfq/8gQBKK83nJIf+GYCnALQn3xByASgUuBlAL7WAr4sN0vr1uwWYDiAKAJjRdPx7c4/v/33RS+vcjd15emmk9QnM7BWA05cBuAtA3OkVxD0DyWvfW1uA8nOW4TbGBfuhQxByo10DyC03NQepbP2EAGZQTaOlXJLk1Q34MgCXB1CevtdG8GS3v3tpEwAg94RZGkGsfQNg5lGQCEDfloTOAyjU9IVBIADszNNLw8vNsu+45sSzBZAKQOW9JVy7L9xagF5sAAeOm8ZAjCIGiIKQ2zZ7bRpAebW11wlAUnpzpUtpNdpiDCa3peNuYX3aNIB9xSELWR8e+kgXAAAnKi1tCkJOA2DmaEgEoJ35rb520u41cBt/90b2Fumlq2d8GwBEAUgOAMxoPBlmD6Bg01cGgQCwp8AgFYTSmdm5aYdPqfBCk7X3CkB9kFPVlhE2xnn7IUEiCPk0gNyTJmm4kV5JX+oCAKCm3nJKcuisa6kBOAWgnQWGXisAOeA+ZgGHT5ilu424GwAzj4Zr+zbbge96rwDkQvotoPdbwK48vXSzLqcg5GgBJAIQypp6sQDkoC/4A0g5UGqUCkLxANIBHwZQVmWuRh+gL80CAMBg4mi9kaUxg7IAHwaQU9TLBSA7fWwIAAA4XmmqkRyKBmCPKzvJkbq70BARAtAz2xrwdQ9XI5mBTw/qsXVHZHxVzyk0eQlCAjwEoLJKc0QIQKdrLLj3tTrc9acLKKsKfHyAYM8CiipMuGVTLTa8U48LTZERVGpXQetwyeF4Zk6SQ9L814oC0DTvW8PHgeNGrHz+PK6epcbdV8YjITbw+lQgxwDn6q14dXszPj3UGnFjizM11lQbo0YgpMAuCMkhWQF0/HtzRApAFivjo32t2JFrwB0/jcOyeTFugR67QqBnAXoT452dLXjzqxaYzBFW8xLqm21nB8QLKfbDLDmACY6T5dXWiJZ/m1pteOHDRnyQrcMDS+Mxd2LX96EMlD8AM/DZIT1e+rgxYpr69qhptOolS93GywE4PxQIQs8YEDvGBzPHKfHgNRqMHtz5BZuBaAGKKkx48V9NKKwwdTGH0COQ288dIgdggH3Xz1StrEcYgIPujA+4GxYQyf18R2gTZNJQ/wY5gDOw7087dbRyQFhK1Q0CMT7w1ym0p/TzbaFSUGtSjCB1CTsjANjpOIqLponpqVEdRpiORBzjg2XP1ATcm8kxn1/yRA02f9bcIysfAJYviMklgrQF+EqAuAuo4xcJL9yWeMHrzh7E6RoLfu2HfuCvFFxUYcKtfxDn87VNPXejtGiloLvryjipxtMA4BOBiAoA/MOROniAfOadV8TlhLyEAcYxPnjm/QY0+AjU2NEs4FyDFY+/04BVm2pRcKrnDPLa4tV7Eo/KBJKqvI8Skc7RW64BcNZx5vbL4qZnXqQ4FtISBgHH+ODnT9Xg/b06t5j/bY0B9SbGXz9vxpIna7D9YM8b5Pnitp/E7p+UppwnSdoL4DXA/jGIiGoh7grqiGem2rxmQEJiHNWFtKRBwjE+uG6ja3zgKQUzAzty9bj26Z7dz3uSkaYovevKeOkej9UAVhKRFfAIFcvMvwLwquP4QpPt6GWPVU+OpP0BAsH8DBWOnTE7+3RHxLCSs+ZwFivgaKJlDV9sTGmKkpHjG4AZwI+IyNnFe8XFYOYtAG5xHO/I1e9Zu6V+YbAL209gIQJ/8tuBBwcnyaSbSf+aiF6RXudrxnwXgKOOg0WZ6gU/nxNzIEjl7CdIPHtL0l6Pyn/fs/IBHwZARAYA1wDOdeX0yPWacWkp8jPBKWo/gWZRpvro4kyVdND3HYDVvq71qZkRUQWAVQBs4jES3lubbFApqNXX9f1EDkMHyH549paENLjCxTcDWEpEPr1S2hRNiWg7gI2OY6WCxr79UHJuAMvaT4BRysm4bV1Koz1ELCDOcG8lopK27ulINX8cwH8dB6MHy+esuSo+u/tF7ScY/O1+7cEYFaVLkn5HRB+2d0+7BmCPLHkDAOeqklU/jp05bawiv1sl7Sfg3PLj2H3pw6Ok/f5uAI92dF+H382IqA7AUgB6e5LyL3drk5PihB79zaA3kZGmKL3nqnhpNPdqADcQUYfOlH59OCWiPAD3OW8SMOSD9SmnBQE99+tIL0ETLWt4474BagBqe5IZwDIiqvLnfr+/nBPRXwFscRwnxgpTX/xlUo//aNRVdj03CNufGNjxhUFEINj+sV57MkpGqZLk+4noa7/z6OQz7wZwxHGwYJJqwbJ5Md92Mo9+AsSztyZlJ7s2iQSAbUT0587k0SkDkIhEtY6ktcs06SMHycvbua2fILBoqvrooiluYk8hgNs7m0+nvYCJ6DSAlRBDkYMImnd/k2ztF4lCxzCtvPLZVV5iz3VEpGv7Lt90af8TIvqKmZ+GqBNAqaAx7zyU/M2yjTWzO7g1IIwbFoX31iZj+4FWvPZZM+77eTxmjFUiSk4oOGXCKx83tfllb85EFX7xoxikpyoglwEV5yz4eH8r/vm1DjYfXt1LsqKx8tJYpCbLUNdsw6cHW/H65+FbPqFQkGHbuuQmgWioPYkB3EJEXnsB+EN31gE8CeBzx8GowfLZ9y4JrUiUGCtg64NapKcqsO+YESVnzJg5Tom/3a9FRprC6/oVC2Pw8p1JmDJKgaLTJuwvMWKYVo6Hl2mw8eZEr+tvvzwOj61MwJABMuwrNuLYGTNWLIzFs7d4XxsqttynPRytdBN7niOif3U1vy7vgERENma+AcBh2HcU/cWPYrMOlpoK9h8zXNz+3YFhzkQV9hQYsG5LvXM/oCtnROOJmxKwYWUCrn+2xun4MSJFjvuWxENnYKx+uRbf2VuIpDgBr9+rxeKpauQUG/DpQVHuGDlIjtWXxaGu2YZVm86jslac8Q5JkuHNB7XQxAhoNYZ2FnzXlXE56aleYs9j3cmzWyuBiKge7iJR1Mt3JCYnxcnOtXNbwLAxsOmjRrfNoLYfbEXBKRNGD5Zj8ihXK/CzrGjIZYT397Y4Kx8Q9wh86d/ipmjXzXM5zF49KxqCALy1o8VZ+QDwQ50Vb34Z+i7g4jTF8dt+Eicd8X8P4HqHZ09X6fZSMCLKB3CHM0OBBn+wPrlKJiDoW35/d9aMygvev/+rXNEeJ490GYDj7y+PeruM5xQboDMw0ocroJCT2/U78/Re1zvyDxWaGKH+jfu10XAXe5YT0fl2bvOLgKwFJKJ3ALzhOE6MFaZsWp3ktxjRVaSbREqprhPTkzUuTzatRvypVXXedskMVNdbIRPgXF2kjZfBxvC5VWxds82t1QkmAsH2j/9NLpMJkIo99xLRvoDkH4hM7NwDcTwAAJg7UbXg+vmx+wOYvxdtVYFjAyip4yd5e7/1CH53m5fY8x4R/SVQ+QfMAIjICA+R6DfXxk8aOzR4ItGgRN++qgPt6ReaXW/v+Ubx78FJ3uNeIjEvqw3ONQS1TVYIBKQkeD8jKU7o9qbU/nDlzOhDl05WzZckdUnsaY+ALgcnojMAlsMlEsVufTDZqlZQUEZN44dFYUiSdwUtyhS7yvxy14IOxx6Bi6d6LymfPUGFGBWh5IwJJovYbDgWg/zPZLXX9YszvdMCzTCtvPK3NyaMhquOHGJPQAW3gMcDIKKdEDUCAIAyisa8uza5INDPAcR9fe9fqoFc8jZePk2NySMVOFVtQZ7EAD7e3wqLlbF8fgzGDnVtHJ0QK+Den8UDAP6Z4/rf/ufbVthswC8WxWDoAJeRDUqU4eZFwd1J1yH2ECD17FnVVbGnPYLSjjEzAfgIwBJH2rY9LXtf/FfTgkDk71AC9xUbMC41CkaT+IYPTJThkosUMJkZd77i2hnUwYqFMXjoGg3MVsbB4yboTTbMGKtEfLSAr47qse7Nerfr7/xpHG6/PA56E2N/iRHMQFa6EgePG5E5WoFWI+PKxwM/431vXfLX44ZGzZUkPUNEHTp3dIWgRAQhIgZwK+DauXLFwtjZcycoAtoS1LfYcOumWhyvNGNehhITh0fhUKkRv3yp1qvyAWDbHh3ufa0OBeUmZI5WYP5EFarrrXjhw0asf6ve6/rXPmvG09saUFVnxbwMJTJGROGDbB3WbfG+NlDcu0ST7VH5u2CX3INBUEcyzHwxgP0AogHAxqi5YsM51DRYU9q/s32k3wIe/3tDIIoaEUwbqyrevCbpIgBKe9JZAJcEYr7fFkGNCWRfeez0RxcIKe+vS66UCdS71mAFAE2MUP/q3UnxcFV+wMSe9gh6UCgiehfAZsexJkbIfPnOpICIGL0FgWD7wFvsWUNE3wT92cF+gJ01AJw/Zla6csHyBcEViXoSL64ekK11F3veJaLNbd4QQEImjzFzKkR3smTxGLobfne++vj35j4Qmr5trp4ZfejxGxMugetlLACQFej5fluELC4gEZ2Fu0gUs/UhrRCj8r1kqS+QqpV/v8Fd7GmAuIwrZN5VIQ0MSURuUxqFjEa+uzYlH30nYLcTu9jT4iH23EpEZe3dF2jCERl0I0SRCACQqpXNXXedps8tN3vrAe1htZLGS5KeJqL/C3U5Qm4AdpHoNgDOcHTL5sXMvnSyus8sPP3NMs3ese5iz5cAfhuOsoQlNjARNUCMSeTo66JeuC1xbKCVwkhkzVVxOcvnx0i/8J2GuIwrLIGGw/qRnJlvAvC2JMmcU2Tc98jWumk6Iwf3i0uIGZwor3r1nqRTw1PkUs9pI4B5RHQoXOUKu5cEM/8J4oojKa2nayx5x06bTWXV5ii9sWdtYhklYz0Itji1TJ42UIYpo5TxA+KFyYBXsK3biegNX3mEikgwABnEaKU3hrkooeYRItrY8WXBJexvlt2rdRWA9RAjl/d2aiBq/GGvfCACWgApzDwCwM0Aroa41iB8KzACBwOoAnAcwIcQffoi5hPm/wPGWaFVK+DsHwAAAABJRU5ErkJggg==;" vertex="1" parent="bCjuTU7vgoYl-bQpV43G-4">
          <mxGeometry x="626" y="95" width="61" height="61" as="geometry" />
        </mxCell>
        <mxCell id="bCjuTU7vgoYl-bQpV43G-23" style="edgeStyle=orthogonalEdgeStyle;rounded=0;orthogonalLoop=1;jettySize=auto;html=1;entryX=0.5;entryY=0;entryDx=0;entryDy=0;" edge="1" parent="bCjuTU7vgoYl-bQpV43G-4" source="bCjuTU7vgoYl-bQpV43G-24" target="bCjuTU7vgoYl-bQpV43G-25">
          <mxGeometry relative="1" as="geometry" />
        </mxCell>
        <mxCell id="bCjuTU7vgoYl-bQpV43G-5" value="service&lt;br&gt;" style="swimlane;startSize=20;horizontal=0;html=1;" vertex="1" parent="bCjuTU7vgoYl-bQpV43G-2">
          <mxGeometry y="320" width="770" height="170" as="geometry" />
        </mxCell>
        <mxCell id="bCjuTU7vgoYl-bQpV43G-10" style="edgeStyle=orthogonalEdgeStyle;rounded=0;orthogonalLoop=1;jettySize=auto;html=1;entryX=0.5;entryY=0;entryDx=0;entryDy=0;" edge="1" parent="bCjuTU7vgoYl-bQpV43G-5" source="bCjuTU7vgoYl-bQpV43G-1" target="bCjuTU7vgoYl-bQpV43G-8">
          <mxGeometry relative="1" as="geometry" />
        </mxCell>
        <mxCell id="bCjuTU7vgoYl-bQpV43G-1" value="llama-api" style="shape=image;html=1;verticalLabelPosition=bottom;verticalAlign=top;imageAspect=1;aspect=fixed;image=data:image/png,iVBORw0KGgoAAAANSUhEUgAAAIAAAACACAYAAADDPmHLAAAABmJLR0QA/wD/AP+gvaeTAAAW1klEQVR4nO2deXxU1dnHf8+dPZnsCyAEInskrLLvfgrYFvXjR0URRVEqrQsfVCxQUFo3xJbalr7WYimlKqK+WNtX37cKZScge0IIECAhgYSEkH2ZfeZ5/5gldyaTyUwySxLu96+ce+9ZMue59577O+d5DnCLwczTmPmvzHyemZuYuZyZc5j5DWYeGun2SYQIZp7FzEfYNzZm/pqZx0W6vRJBwtHxR9voeG/sYuYJkW5/qKFINyAUMDMBuB/AawBGe55vNPDZ3CumqktlZorTEPr1kGNEumqgIOA2L8X9G8AbRPR9iJsdEbqVATCzAOAB2Dt+hMdpa0GZ5ftfflzT4/w180DPvETgu0Zqslc/EkcJWmGUl+J3AniTiA4Fv+WRo1sYgKPj5wJ4HS3veFvJTcvR5X+p7nm5zHK7P+VNzlDnrlkQZ+gZL/M2FsgC8C4Rfd2xVncOurQBODr+Qdg7PsPjtLmgzHJs9d+qe18us6S3p/wJQ1Rn1z4er+8ZLxuLlr9VtzCELmkAoo5/E8AQj9PmgjLLsZVbqvtcKbf0C0Z9menKi28/EV/VJ0U+ES1/s8MA1ndVQ+hSBsDMCgCPAlgDYLDHaVNBmeX4is3VaUUVlr6hqD8zXXnx9cfja9N7yMeh5W+XDWAdgB1ExKGoPxR0CQMQdfxrADwHcKa8IvPRlVtqBpbVWHqFoz0ZafLLry9MvDGgl3wiAJnH6RwAb6OLGEKnNgBmVgKYD2AtgAEep415ReZjK/5WPai82toz/K0DMtIUl19fmNCaIeQC2ADgEyKyhb91/tEpDcDR8Ytgv+P7eJxuOnHJePK1j2qHVtRaU8PeOC/0TZVde2thYtGwdMUkAHKP02cB/AbANiKyhr91vulUBsDMKgBPwn7H93Y/h6aTl40nX/2odujNTtLxnrRhCOcAvItOZgidwgCYORrATwCsANzVOGfHr9lak1FZb0uJSAMDJC1ZXvLqgrjCsYNUEwCoPE4Xwm4IW4jIEv7WuRNRA2BmLYDFAFYB6Ol+Do1ZeYaTaz+pHVHXZEuISAM7SJ9keelrC+IKxg5SjQeg9jh9BcB6RNgQImIAoo7/BYAe7ufQkJVnOLX247qRdTprfCTaF2x6J8uvr10Qd3nsINU4ABqP00UAfg/gz0RkDHfbwmoAzBwD4DnYH/WJbueA6v+c1ueu+6x+VL3OGhfOdoWLlDih8tX58XlTM9Xj0dIQrgJ4D8AmIjKEq01hMQBmjgXwLICVANwe5zbm6t3Zhty3tteNbtTbYsPRnkiTFCtUrn00Pm9qpnocgCiP09cA/BbAh0SkD3VbQmoAzJwEYCmAZQDcHuc2RtXubP3ZNz+tHdNk4JhQtqOzkhgrVK94KC531ijNGCJ4/gYVsD8RNobSEEJiAMycDOAFAC8CcHuc2xiV3xxtynv3v+vHGUzsaf23JAkxVL1yXnzurFGa0UTwfAo6DeGPRKQLdt1BNQBmTgHwPICXAPd/xMa4+c3RpnPrv6gfbzSz5/tPAkC8VqhZ9XDcmVmjNKOI4DkOqgTwPoD3iKg+WHUGxQCYORXAy7A/7t3uaquNr+842HT59//TMN5kYs9PIQkvRKuo8ZWHYk/eOzF6JHm8OtFsCL8jorqO1tUhA2Dm2wCshv2Tzq1zrTZc+3h346VN/9cwxWRhTzFEwg9iNNS0/MG43LnjNUMFIk9DqIL98/F3RNTU3jrabQDM/FPYFS23R5XVhuIt3zUUbf6uabLFalO0t3yJZrRqanr5gbiceydGDRXI/fMZdh1hCRHtak/Z7TIAZn4L9jl5FyYrF/3l28bSv+9smGC1tdDBJYJAlJJ0yx+KP37fRM0wgZAsOmUB8CgR7Qi0zIANgJmfBLBVdMjwzTH90Tc/rZ1isbLU8WFAqxHq338+4UxmP9UUNPehGcB4IsoOpKyADICZEwHkAy7r07+yuebC3hx9i6XXEqHnlYdiDzw6QztddOh7AJMDWYgiBFjnY2jufPzhn/Wnpc6PHBt21E8/ccm4X3RoIoCAnFkCNYCHnH/UNPLJj3Y3Tg4wv0SQeXlT9VibDeWiQw8Hkt/vdzYzq2G3MADAxn/VRXxRw7B+CkzKiKy08PVRHW7URO6naDJy9IE8w4mZw9XO6fSZgeQPZNB2JwAlYF+k8d0J/chAKgoFw9OVeHZuZKcRTlwyRtQAAGDrzsZeM4e7boThzBztrzYQyCtgkvOP6gbbRaMk7nQazhabBjGj1pGUA/Dbu7ldBpBbbOqwBCkRPJhB1Q1cIDo0qdWLPQjEAFyjyz05xugA8kmEgVMFhkZRMrgGwMz90LxKlw+f03mu0ZeIMHtzjFpRcpLDRb5N/H0CuCzKZOWimgb21KMlIszh8/rBAJwOKMlo6UjjlYANoKjcUhpY0yTCQYOOY4xmviI65JdGE7ABZOUZOr2/261KYZmlTJT0axzQpgEwswaA65t/T44xIn54Em1zKM9tMXFwDADuAlDjhRJT/8CbJhEO9p7Ri72qMh2rsX3ijwE0C0BNtos2WwsvWIlOwsVSy+0M1DiSMgBj28oTkAGcKTAFbTGiRPBhBlXVWQMShPwxAJEApNP6ulAi8pwuNAckCPk0AGZOR7O3LmedM0kCUCdnd7ZB/N6f2JYg1NZsoEgAwpW6JlunGgCeLjDhd18F/lYSCHj67hiQ46dp1NuwfV/7FtaWVkZ8VtyNw3n6wUC8FfYxQBKAQQAutna93wZwpdx8HUCnMoD8EjPyS8wB51MqCMvub75RNEoZPtnT6CNH16HJyFqjiS+rlOSMpTQJPgygrTGAywAOnZUEoK5CQbn/glCrBuAQgFzhVvfm6MMSgUui4xw4axD3a/sMAPZvSKcA1JBf6l+YVYnIszfH4Lcg5MsAxCuALkkCUNehoMycbmOudiQFAONbu9YvA8gulASgrgQzqKre5pcg5MsAXCuA954xSAJQF+PkJbP4uzYwA2Dm29EctYsPnzNIAlAXY3eOXuy0O8kRYLsFrT0BXBZjNPOVrhqm7Vbm6HnDIABOlSoeLYNrA/DDAArLLdeD2zSJcNBkZK3RjDbHAW0aQNY5SQDqqlwsNd8QJf0zAE8BaF+OQRKAuiiH8toWhLzNBYwDoAAAZtTnl5jDov+PG6zCMz+KQZQq9KELyaMKQQA+WRGeMMRV9Va89496FFeEPjrs3mx9H5Hr3B3MHOcZV8ibAbgLQIw7Q9hGAIBMAH69OAGxUYE6KwcHApCRFq5oNgpolIQlG6tCXlPhDUtfG6NKICShWRByCyXj7Rd3GcDpQlNDaJtoJzZKiFjnR4I+KeEJpMIMqqizFIoOtXgNePvVm1cAZetvyQie3YnTbQhCbqbIzP0hEoC+Px+ZFUD7zhjw+rbati/sAP94LRUJWrv9F1dYsOi3lSGt75MVKeidFP7plN3Z+vgfjXPF5ZzIzIJ4CxvPZ5FYACqs01kjYgAWK6NeF9ptdlj0cWuzIeT12WyR+Zo+mm8aBHsUMTnsgtAQAOed5z1fASIByCoJQN0AndEWbTC5uY67uYy1agBZeWELWS8RYi6VWloVhFwGwMxREAlAu3N03nbSluiC7D+rFw8+vBsA7AKQHACYUXdZWgHUbdh3xiDeei+DmV2Te16lwqp66yUbBxxCTqKTcqXc0s/GuOlIEkQrhLwawOnLpu6xRlrCRUWNRRw7wNXXYgNwCUC7zxgkAaibceKSWbzbiLsBMPMANG/fZjt6QXIB627sydaLF/VMdK4Qcj4BRAIQCuq7yX59Es0cvWh0CkKAfTufDMCLARSUmcsh0e0wmDhKb+TLokOTgGYp2GUAB88GXwDqES9DSnzrOrhGRcgrbvbxq9cxMtOVPss8f9UEayvqbYJWQO9k3zNu16utLvm3st7aZn0F183Qm7zLuVqNgPQevuu7etOKep09f4Pe1mZ9VyssQZen80tNFaP6q4Y6kpMAbJY7Nm4e7rxob64h6ALQvGnReGqO/yvLh/VT4IEpvneUm726HNUN3n+gu0aqsWa+/2+x9B5y/H2578i3T2yoRF6xyeu5zH4KvP98kt/1AcDEob7rW/W3Guw6FdztAg/mmmSj+rvqnQTYXwFuAlBBqVkSgLope87o+oqSQ5k5UYDo8V8pCUDdmqsV1jQbo8KRJADjBYg8gPJLzJIA1M2pabBdEyUnCQDucKYKy63S3d/NqaizigcWQwUArokCQYDkA9DNEcitj28TALi++9KSZZIBdHOS42XiUP8GAcBVZ2rMAFVg3zISXQq1knSJ0cIQ0aGrAoDdzlRMFA3LSFNcbplVojswf0b0aSKInwC7BNh3AXU++oXfLE4IvceCRNiJUglNz90TI9Z4agF8LRDRGQCfO4/2SpJP+NncmINhb6FESPnTCwmnZAKJVd5XiajJ+dm3FIDr+/CZH8aMGz1QeS6sLZQIGYvv1h4Znq6aJjq0H8CfAcdsIBFVwr4rqNFxgXrT0qT4hBiqhkSXJjNdefG5e2LFezyWA1hARFZAtCKIiI4BeMmZlgl02+erehQJAjpXLFQJv4mLktVufjFJDcA5s2YG8DARuXw+3OYwiegDZh4H4CkASIoVxryzKGHfyi01MzvSkOIKC76/YGz7wgAw+fCuvlFjDXp9jfrWp2Zrm2xBr6+qvmP3HRF428rkfIWMxJtJLycit/FdC2d8xx7BWQDGOA+99Vndsa+ymgLalVoisqx/OnHf7NHqmaJDnxHRo57XtdD+icgA4EEAzs9BWvNI3JD0VPlVz2slOiezRmtOzR6tFg/6LgBY4u1ar5M/RFQEYBEc+9ARIf7TlSkGtZJ03q6X6Dz0TpJdf+ep+HTAFdm1AcADROQ11kOrs39E9A2Adc60SkmDP3ol5XQQ2yoRZFRyMm5flVonEDk39mQATxPR+dbytDX9+0sA3zoTA3rJpyy9N/ZAx5sqEQr++lLysWg1ZYgO/ZqIdvjK49MAHIEEHgPg8ipZNEc7YexgZU6HWioRdJ6ao83K6KsQv/f3Ani1rXxtLgAhomoADwBwLiRQffB8ckpijCDNGXQSMtOVF1+4N3aM6FA5gMeIqM1QZH6tACKibAAvujIJuO2L1anFkkgUeRxijwaAMw6MGcA8Iirzkc2F30vAiOhDAFuc6QStMGbDTxKlSaMIIhBsn69OvqyQUZro8EtEdMjvMgKs83kAJ52JGcPVM+ZNi/4+wDIkgsQ7TyceSImTiXcH3U5E7wdSRkAGIBKJnCG1aOW8uIzbe8oLfWSTCAGzxmhOzRrlJvbkAngm0HICXgVMRMUAFsARipwIcdt+nmKVRKLw0SdZXvrOohZiz8NEFPDmh+0OzMvMv4JdJwAAFJZZDs9bVzG59RyhZfQAJZ6arcWg3gokxAiob2JcvWnBzlN6fHGgCaMHKLH5xWT857QeK7fUeC3jy1dTkZYix5w15ahtbJ786d9TjkWzYzBusBIJMQJqGmzILzHjyyxdSHwpfaFUkmH3up5XolSu732GfdD3ZXvK64gfwBsA/u1M9O8ln7zs/siIRFOHqfHhsmSMH6rClXILdp0y4NJ1M9JSZJg/w74ELrvQhBu1VkwdpoZG2dLuB/VWIL2HHMfyjW6dPy1TjW0rUjB3vAb1Ohv25xpQWmXFmIEqLPxB+HfS2fJi8glR5wPA+vZ2PtD2zqGtQkQ2Zn4MwAk4dhR94gfaSccums4cOWcY4Tt3cFkwMxoCAY9vqHTbSVQQgGF97V64zMB/Tuvx2F1aTB+uxncn3R0v54yxf0XtFDlkJsUKePvJBAgCsOKv1did3Xy3a5SEEbf79vANNs/dE3MwI62F2PNaR8rskCcQEdXAXSRSbPxpQkpijOyGj2xBJ14rQGdkXCx130bWZgNyi5o9eneesnfg7NEaeDJ7tBpmK2NvTnMnPzglGtFqwleHdW6dDwB6E+NofnDXAPhiRLoyf/HdMeIRfwmAR5wre9pLh13BiCgHwE9dBQrU64vVKWUyAaEPiO8gv8SMKBXhjYUJGHhb62HfzxaZUFplxZQ7VG77EmSkKZCWIseR80Y0iBZ+jB1sd6X+15HIjm/jooWazS8lR8Fd7JlPRDd9ZPOLoPgCEtHHADY70wlaYdR7SxL9FiM6yp//twEFZRb8eJwGn/8iBd++1QNvP5mAKXe09MHfdUoPpYIwY7jadWzOnY7Hv8drITXO/vOURHCHcIFg+/wXKQUyAWKxZxkRZQWl/GAU4uAF2McDAICpw9QzHpmuPRLE8lvlRq0Vj717Ey9/WI1/HtbBZAZ+OFaDjc8m4Y2F7hueOd/xzk4H7K8Ek5mxP9f9Me+5s0gk+PXiFmLPp0T0QbDKD5oBEJERHiLRzx+KHT64d3hEIrPV3oFvbq/Ffa/fwIJ3b+LaTQvmjtdg1IDmwVp+iRnFFRZMylBBqxEwPF2JXokyHMwzQmd0d428UWO/83snR2bX3HsmRB2/a6R6uuhQu8QeXwTVHZyIrgKYj2aRSLt1eYpVo6Swxx3ILzHjq8P2d3f/nu4fO7tO6aGQEWaOUHsd/Ts5fsk+gLxvou9wNaGgT7K89FePxw9Acx85xZ6gDkiCHg+AiHbDrhEAAFQKGrRtZcqZYNcjZv6MaMRr3f8VQQDuHGQfAzjvZCfOT8C7x2gwa7QaehN7FXS+ytJBZ2Q8MCUK0zPVbudUCnKVH2yUSjJsX5VST4B4Zc8iIroQ7LpC8pZjZgLwDwD3O49t39e4f8OX9TNCUd+e9T2h1Qg4d9WEkkor5AKQ6Xi0ny4wYcnGStg8VnV/sToVA3rZnwzfntRjzVbv6uDMEWqsfzoBChnhwjUziiosSIoRMDRNgYulFiz5Q/B3Gvl0VcqhIb0VU0WH3iaiNhd3tIeQDXMcEamPA3BGHTUv+6Dy/KFzpqCLRD8ep8HUYWpk9FUgJU4Gs4VxvcqKb47p8GWWDiZzy7AHP7k7Bs/eY4+Iu/wv1dh3pnVJd3BvBZ6ao8XYQSrERBFqGmy4UGLGjkO6oO+rsOz+uANP/CBa/N7fA2BOR7/3WyOk41xmHgHgCByeKTZGxdy1N1BRa00NZb1dlbGD1XmbliYOBOB8t1wDcGcwvvdbI6QxgRyex6716AIh9bNVKaUygcw+st2SxEULNX96PjEWzZ0fNLHHFyEPCkVE2wBscqbjooXRG3+WGBQRo7sgEGxftBR7lhLR4ZDXHeoKHCwF4PpnJmaoZsyfER6RqCuwYUnSgWR3sWcbEW1qNUMQCYsBEJEZdn3AtWvFKw/GjhjSR1HgI9stwX0Too7PyFSJB31ur81QE7a4gER0De4iUfTWV5KFaLV3l6VbgbRkeclad7GnFnY3rrDNPoU1MCQR7YFoFZFSRrdvW5maA9x68QkdYk+jh9jzNBGF9akYicig62AXiQAAacmyqasejrvl3M3+/nLyCY2KhooOvUVEX4W7HWE3ACJiAIsBuMLRzZsWPfmukZpbxvH05/Pi9g92V/p2AvhVJNoSkdjARFQLe0wi57tO8ZvFCYOn3qEM6ZxBZ2DpvTEH5093U/qKYXfjCu3mxa0Q0RlvZl4I4CPRIfPBs8asNVurxzYZOfwrLkNIrwR52Z9eSLzSN1UuXjltBDCNiI5Hql0RX/LAzP8Fu8eRGF1xhSX7XLHZVFBuVuiNXWsPA4WM9SDYYjQyeXoPGUb1V8UmxQoj0byO38kzRLTZWxnhojMYgAz2aKWPR7gp4WYNEa1r+7LQEvE7yzHLtQjAaogil3djKmDX+CPe+UAneAKIYeZ+AJ4EcB/svgYJvnN0CRhAGYB8ADtgX9NXG9kmNfP/+2ghsrh4gC4AAAAASUVORK5CYII=;" vertex="1" parent="bCjuTU7vgoYl-bQpV43G-5">
          <mxGeometry x="325" width="61" height="61" as="geometry" />
        </mxCell>
        <mxCell id="bCjuTU7vgoYl-bQpV43G-8" value="llama-api-xxxx" style="shape=image;html=1;verticalLabelPosition=bottom;verticalAlign=top;imageAspect=1;aspect=fixed;image=data:image/png,iVBORw0KGgoAAAANSUhEUgAAAIAAAACACAYAAADDPmHLAAAABmJLR0QA/wD/AP+gvaeTAAAaj0lEQVR4nO2deWBU1dnGn/fOZJZsk4RJWAMBZAkEIcgWdr9Cq3UpRVFAragVrUpdK3yoWDfUamnV1kq1iFrFWutXK2pV1kRE1uxEAgkBjAkhZJ/MPu/3x53lzpJkksyW5fdX7rn3nnsm571nee573gP0MZh5HjP/jZlLmFnHzNXMnM/MTzLz+HCXr58gwcyLmHk/t4+NmT9h5unhLm8/AcJe8Qc6qHhffMXMM8Nd/mBD4S5AMGBmArAEwGMAMj3Ptxi4qPCU6cKJKjNp1IQRA+W4OE15kSBgiI/sPgfwJBF9G+Rih4VeZQDMLABYCrHiL/Y4bS2rsnz7+Dv1A0vOmi/yvJcIfOlkdd766zWUGCtM8ZH9lwCeIqKvA1/y8NErDMBe8VcAeALeb7zt+/OWAw++XjfoZJVlpD/5zU5XFT6yUmMYlCDzNRbYB+B5Ivqke6WODHq0Adgr/hqIFZ/ucdpcVmU5uP7NuqEnqyxpXcl/5jhl0YYbE/SDEmTT4P2/6hWG0CMNQFLxTwEY53HaXFZlObh2S92wU9WWEYF4XkaaovSZXyRcGJYsnwXv/9k3AJ7rqYbQowyAmaMArADwCICxHqdNZVWWQw+/UZdaUWMZHoznZ6QpSp+4MaEhbaB8Orz/d3kANgL4kIg4GM8PBj3CACQV/xgAzwGcqbjCfGDtlvqLquotg0NRnvRU+cknbko6N3qwfBYAmcfpfADPoIcYQkQbADMrACwHsAHAaI/TxuIK88GH36wbU11nHRT60gHpqVEnn7gpsS1DKATwIoC/E5Et9KXzj4g0AHvFr4L4xg/zOK07fMJ45LG3G8bXNFhTQl44HwxPkZ19+qakiolpUVkA5B6niwC8AOBdIrKGvnTtE1EGwMxKADdDfOOHup+D7shJ45FH324Yfz5CKt6TDgzhGIDnEWGGEBEGwMwxAH4J4GHAXY1zVPwjW+vTa5tsyWEpYCdJ1cq/f3SlpnzaGOVMAEqP0+UQDWELEVlCXzp3wmoAzBwL4DYA6wAMcj+Hln3FhiMb/t5wcaPOlhiWAnaTYVp55WMrNWXTxihnAFB5nD4F4DmE2RDCYgCSiv9fAAPdz6F5X7Hh6IZ3Gic3tloTwlG+QDNUK/9hw0rNyWljlNMBqD1OVwD4I4DXiMgY6rKF1ACYOQ7AXRCb+iS3c0Ddjlx94cb3m6Y0tVo1oSxXqEjWCLWPLk8onpuhmgFvQzgDYBOAzURkCFWZQmIAzBwP4FcA1gJwa85tzHU78wyFT29rzGzR2+JDUZ5wMyBeqN2wIqF4boZqOoBoj9NnAfwewF+JSB/ssgTVAJh5AIA1AO4F4Nac2xgXdubpi556r2GqzsBxwSxHpJIUL9Q9fK2mcNEU9VQieP4PaiC2CC8H0xCCYgDMrAVwD4D7ALg15zZG7fYDuuLn/9k03WBiT+vvkyTGUd3aZQmFi6aoM4ng2Qo6DOEVImoN9LMDagDMnAzgbgD3A+4/xMY4v/2A7thzHzTNMJrZs//rB0BCrFC/7jpNwaIp6ilE8BwH1QL4M4BNRNQUqGcGxACYOQXAAxCbe7e32mrjHz7M0Z3843+aZ5hM7DkV6scHMUpqeeja+CNXzYqZTB5dJ1yG8Aciauzus7plAMw8BMB6iFM6t8q12nD2nZ0tJzZ/1jzHZGFPMaQfP4hTk+7BazSFV8xQjxeIPA3hAsTp4x+ISNfVZ3TZAJj5DoiKlltTZbXh9JYvmive+EI322K1RXU1/35cxKpI98BSTf5Vs6LHC+Q+fYaoI6wmoq+6kneXDICZn4b4Td6JycoVr/+3pfKtL5tnWm1eOng/ASBaQa0PXptw6OpZ6okCQSs5ZQGwgog+7GyenTYAZr4ZwFZJkmH7Qf2Bp95rmGOxcn/Fh4BYtdD057sTCzJGKOfAVYdmADOIKK8zeXXKAJg5CcBxwGl9+ofeqP9ud77ey/W6n+Dz0LXx2SsWxM6XJH0LYHZnHFGETj7zBrgqHy/9uym3v/LDx4sfNs0/fMK4V5I0C0CnFrN01gCudfxR38JH3t7ZMruT9/cTYB7YXDfNZkO1JOm6ztzvtwEwswqihQEAXv64MWKcGvoyOiPHZBcbjkuSFnbm/s60AJcAUACik8YXh/WTO/OgfoLH1i9bpM6wk+wONn7RGQPIcvxR12wrNfaLOxFD0WnTGGY02A/lAPxe3dwlAyg8beq2BNlP4GAG1TVzmSQpq82LPeiMAThHl7vyjX43Mf2EhqNlhhbJYWANgJlHwOWly98ca/X00e8nzOzON8ZKDrPsS+Q7xF/lzmlRJitX1DezX6tsI5WkOAFzJ6owL0MFncGGnCID9pcY0WqM+IU8bfJNiX4skGCD+FJrIS6kOdnRfZ02gIpqSyWAHmcAQ7UyzM8QK33aGCVkkrbvqpnRsNqAogoTsosM2J1vwOmasHtsd4rmVo4zmrlMGUWO1nk2gmEA+4oNPeI1UUQRMkcpMGOcEpdOVmFESvs/VSYAk0cpMHmUAmuujkdlrRU5xQZkFxpw+IQR1ohd3OWivMpSlT48ymEAWQDe7uieDg2AmdUAnHP+XfnGsKzD84eEWAFzJ6gwL0OJrHQVYlRdd3cYqpVh+YIYLF8Qg0adDYdKjcgpMmJPoQEt+si0hq+LDUgf7vwC79dAsMP/EDPPBZAj/o2WGff9oLbZvBZCho3Rg+WYl6HC/AwVJo1UQAiyn7PNBhTau4o9BQZUnIucrmLcMHn5e2tTRtkPrQCSOnIf86cLcAlAOlupzYap3Shjt3E07fMnqbDwYhUGJYbWFoV2uoojJ02wWMPXQ5ZWWkYyUE+i670MwDQAu9q7p1MGUFBmCpgzYmdIjBUwJ0BNe6Bpq6vYW2hAc4i7CmbQhUZrmVYjm2ZPykIADEAiALXGtndhIBmRIsePL1Fj3kQVJgyPAkVOnbeJJkbAokw1FmWqYbYyjp40IafIgC+O6FHXHBpjyC03tyzOdLaKHY4D2hWCmDkNrtW6vO+YKWQC0NlaCw6VGnGo1IhTEdTP+svZ81aUnDGj5KwZ9S2hawl25hmk7vizOhKE2j3JzCsAvAcAJivKs+77YVR71wcT6Tz+kosUkMsiq0kwmhl55eIbvyvPgHMN4flaHqOkluwXB6vhilgyjohK27q+oy7A2YScqjb/ACBkBhCtJDdlrrLWim17dNi2R4f4aAEzxintBqFEfHRn/VoCQ12zDftLjMguMuCbY4Y2lUTP3xJMdEaONZr4pFJBjlhKWQC6bwBfF4VWAPrjnQOQGCtgR64e2YUGfPe9GWwvQVOrDTty9diRq4cgAOOGRmH+JLF1SE8Nrid6ebUF2YUG5BQbkF9ucpZJikDAuGFimRZlqvFtiRG//yh0H1DLqi1VE4ZHSQ3grbaubdMA7AKQM9zq7nx9SCJwSRk1SI7Vl8dh9eVxqKqzYn+J0anbm+3TLZsNKDkr9rWbP2vGUK0MM+2tw6x0JaK62VVIm/adeQbUtNG0K6MIM8cpRU1ikhLaeNf09NuS0C77zy4yCBP8FITaawGmweUB1Hy80r8wq8FicJIMS+dEY+mcaDS12nDwuG9lrrLWio9qW/HRvlaoFYTpY8VKWXixCklx/nUV/jbtUuVx9gQVopWRMS7ZnW8YcudPnYuNM5g5vi1BqD0DkHoAnQi3ACQlPto13XIoc1/l6rEr34Bz9a43VG9iZBcZkF1kwLMftN9V+NO0A67B6OJMdUiUx65QVmVOszHXCURJEGd6MwDs8HWtXwaQVx4eAcgfpMrcQ9do2qxIz64iNVmOuROVaDUwcooNbc7TpWOMxZlqjBwU+WtfmEEXmmxlyRqZYxlZFrpgAE4P4N0FhpAJQN1l1CA5Rg2KxarFsaiut+KbY97jBgA4e96CbXt86wvS/nzBJBUGxIdnltEdjpww6y6b1rEg5NMAmHkkXFG7+Jtjhh7pATQo0TVu0JsYh0uN2JFr8CnTSuXmORNVUCsisG3vBDvz9ZrLpjkXbGcxs+ArYmlbLYDTYoxmPtWos4VNAAoUagVhnl1IMlsZd7x0AfmnTACApXOisf76hB4hN/vLgRLDGIhfBGUQYwyMBfCd53VttW1OAyivtvwQjAKGkygZQSl5w2NVQq+qfMAuCJnRoadwhwaw71jP8ADqLNJRfq/8gQBKK83nJIf+GYCnALQn3xByASgUuBlAL7WAr4sN0vr1uwWYDiAKAJjRdPx7c4/v/33RS+vcjd15emmk9QnM7BWA05cBuAtA3OkVxD0DyWvfW1uA8nOW4TbGBfuhQxByo10DyC03NQepbP2EAGZQTaOlXJLk1Q34MgCXB1CevtdG8GS3v3tpEwAg94RZGkGsfQNg5lGQCEDfloTOAyjU9IVBIADszNNLw8vNsu+45sSzBZAKQOW9JVy7L9xagF5sAAeOm8ZAjCIGiIKQ2zZ7bRpAebW11wlAUnpzpUtpNdpiDCa3peNuYX3aNIB9xSELWR8e+kgXAAAnKi1tCkJOA2DmaEgEoJ35rb520u41cBt/90b2Fumlq2d8GwBEAUgOAMxoPBlmD6Bg01cGgQCwp8AgFYTSmdm5aYdPqfBCk7X3CkB9kFPVlhE2xnn7IUEiCPk0gNyTJmm4kV5JX+oCAKCm3nJKcuisa6kBOAWgnQWGXisAOeA+ZgGHT5ilu424GwAzj4Zr+zbbge96rwDkQvotoPdbwK48vXSzLqcg5GgBJAIQypp6sQDkoC/4A0g5UGqUCkLxANIBHwZQVmWuRh+gL80CAMBg4mi9kaUxg7IAHwaQU9TLBSA7fWwIAAA4XmmqkRyKBmCPKzvJkbq70BARAtAz2xrwdQ9XI5mBTw/qsXVHZHxVzyk0eQlCAjwEoLJKc0QIQKdrLLj3tTrc9acLKKsKfHyAYM8CiipMuGVTLTa8U48LTZERVGpXQetwyeF4Zk6SQ9L814oC0DTvW8PHgeNGrHz+PK6epcbdV8YjITbw+lQgxwDn6q14dXszPj3UGnFjizM11lQbo0YgpMAuCMkhWQF0/HtzRApAFivjo32t2JFrwB0/jcOyeTFugR67QqBnAXoT452dLXjzqxaYzBFW8xLqm21nB8QLKfbDLDmACY6T5dXWiJZ/m1pteOHDRnyQrcMDS+Mxd2LX96EMlD8AM/DZIT1e+rgxYpr69qhptOolS93GywE4PxQIQs8YEDvGBzPHKfHgNRqMHtz5BZuBaAGKKkx48V9NKKwwdTGH0COQ288dIgdggH3Xz1StrEcYgIPujA+4GxYQyf18R2gTZNJQ/wY5gDOw7087dbRyQFhK1Q0CMT7w1ym0p/TzbaFSUGtSjCB1CTsjANjpOIqLponpqVEdRpiORBzjg2XP1ATcm8kxn1/yRA02f9bcIysfAJYviMklgrQF+EqAuAuo4xcJL9yWeMHrzh7E6RoLfu2HfuCvFFxUYcKtfxDn87VNPXejtGiloLvryjipxtMA4BOBiAoA/MOROniAfOadV8TlhLyEAcYxPnjm/QY0+AjU2NEs4FyDFY+/04BVm2pRcKrnDPLa4tV7Eo/KBJKqvI8Skc7RW64BcNZx5vbL4qZnXqQ4FtISBgHH+ODnT9Xg/b06t5j/bY0B9SbGXz9vxpIna7D9YM8b5Pnitp/E7p+UppwnSdoL4DXA/jGIiGoh7grqiGem2rxmQEJiHNWFtKRBwjE+uG6ja3zgKQUzAzty9bj26Z7dz3uSkaYovevKeOkej9UAVhKRFfAIFcvMvwLwquP4QpPt6GWPVU+OpP0BAsH8DBWOnTE7+3RHxLCSs+ZwFivgaKJlDV9sTGmKkpHjG4AZwI+IyNnFe8XFYOYtAG5xHO/I1e9Zu6V+YbAL209gIQJ/8tuBBwcnyaSbSf+aiF6RXudrxnwXgKOOg0WZ6gU/nxNzIEjl7CdIPHtL0l6Pyn/fs/IBHwZARAYA1wDOdeX0yPWacWkp8jPBKWo/gWZRpvro4kyVdND3HYDVvq71qZkRUQWAVQBs4jES3lubbFApqNXX9f1EDkMHyH549paENLjCxTcDWEpEPr1S2hRNiWg7gI2OY6WCxr79UHJuAMvaT4BRysm4bV1Koz1ELCDOcG8lopK27ulINX8cwH8dB6MHy+esuSo+u/tF7ScY/O1+7cEYFaVLkn5HRB+2d0+7BmCPLHkDAOeqklU/jp05bawiv1sl7Sfg3PLj2H3pw6Ok/f5uAI92dF+H382IqA7AUgB6e5LyL3drk5PihB79zaA3kZGmKL3nqnhpNPdqADcQUYfOlH59OCWiPAD3OW8SMOSD9SmnBQE99+tIL0ETLWt4474BagBqe5IZwDIiqvLnfr+/nBPRXwFscRwnxgpTX/xlUo//aNRVdj03CNufGNjxhUFEINj+sV57MkpGqZLk+4noa7/z6OQz7wZwxHGwYJJqwbJ5Md92Mo9+AsSztyZlJ7s2iQSAbUT0587k0SkDkIhEtY6ktcs06SMHycvbua2fILBoqvrooiluYk8hgNs7m0+nvYCJ6DSAlRBDkYMImnd/k2ztF4lCxzCtvPLZVV5iz3VEpGv7Lt90af8TIvqKmZ+GqBNAqaAx7zyU/M2yjTWzO7g1IIwbFoX31iZj+4FWvPZZM+77eTxmjFUiSk4oOGXCKx83tfllb85EFX7xoxikpyoglwEV5yz4eH8r/vm1DjYfXt1LsqKx8tJYpCbLUNdsw6cHW/H65+FbPqFQkGHbuuQmgWioPYkB3EJEXnsB+EN31gE8CeBzx8GowfLZ9y4JrUiUGCtg64NapKcqsO+YESVnzJg5Tom/3a9FRprC6/oVC2Pw8p1JmDJKgaLTJuwvMWKYVo6Hl2mw8eZEr+tvvzwOj61MwJABMuwrNuLYGTNWLIzFs7d4XxsqttynPRytdBN7niOif3U1vy7vgERENma+AcBh2HcU/cWPYrMOlpoK9h8zXNz+3YFhzkQV9hQYsG5LvXM/oCtnROOJmxKwYWUCrn+2xun4MSJFjvuWxENnYKx+uRbf2VuIpDgBr9+rxeKpauQUG/DpQVHuGDlIjtWXxaGu2YZVm86jslac8Q5JkuHNB7XQxAhoNYZ2FnzXlXE56aleYs9j3cmzWyuBiKge7iJR1Mt3JCYnxcnOtXNbwLAxsOmjRrfNoLYfbEXBKRNGD5Zj8ihXK/CzrGjIZYT397Y4Kx8Q9wh86d/ipmjXzXM5zF49KxqCALy1o8VZ+QDwQ50Vb34Z+i7g4jTF8dt+Eicd8X8P4HqHZ09X6fZSMCLKB3CHM0OBBn+wPrlKJiDoW35/d9aMygvev/+rXNEeJ490GYDj7y+PeruM5xQboDMw0ocroJCT2/U78/Re1zvyDxWaGKH+jfu10XAXe5YT0fl2bvOLgKwFJKJ3ALzhOE6MFaZsWp3ktxjRVaSbREqprhPTkzUuTzatRvypVXXedskMVNdbIRPgXF2kjZfBxvC5VWxds82t1QkmAsH2j/9NLpMJkIo99xLRvoDkH4hM7NwDcTwAAJg7UbXg+vmx+wOYvxdtVYFjAyip4yd5e7/1CH53m5fY8x4R/SVQ+QfMAIjICA+R6DfXxk8aOzR4ItGgRN++qgPt6ReaXW/v+Ubx78FJ3uNeIjEvqw3ONQS1TVYIBKQkeD8jKU7o9qbU/nDlzOhDl05WzZckdUnsaY+ALgcnojMAlsMlEsVufTDZqlZQUEZN44dFYUiSdwUtyhS7yvxy14IOxx6Bi6d6LymfPUGFGBWh5IwJJovYbDgWg/zPZLXX9YszvdMCzTCtvPK3NyaMhquOHGJPQAW3gMcDIKKdEDUCAIAyisa8uza5INDPAcR9fe9fqoFc8jZePk2NySMVOFVtQZ7EAD7e3wqLlbF8fgzGDnVtHJ0QK+Den8UDAP6Z4/rf/ufbVthswC8WxWDoAJeRDUqU4eZFwd1J1yH2ECD17FnVVbGnPYLSjjEzAfgIwBJH2rY9LXtf/FfTgkDk71AC9xUbMC41CkaT+IYPTJThkosUMJkZd77i2hnUwYqFMXjoGg3MVsbB4yboTTbMGKtEfLSAr47qse7Nerfr7/xpHG6/PA56E2N/iRHMQFa6EgePG5E5WoFWI+PKxwM/431vXfLX44ZGzZUkPUNEHTp3dIWgRAQhIgZwK+DauXLFwtjZcycoAtoS1LfYcOumWhyvNGNehhITh0fhUKkRv3yp1qvyAWDbHh3ufa0OBeUmZI5WYP5EFarrrXjhw0asf6ve6/rXPmvG09saUFVnxbwMJTJGROGDbB3WbfG+NlDcu0ST7VH5u2CX3INBUEcyzHwxgP0AogHAxqi5YsM51DRYU9q/s32k3wIe/3tDIIoaEUwbqyrevCbpIgBKe9JZAJcEYr7fFkGNCWRfeez0RxcIKe+vS66UCdS71mAFAE2MUP/q3UnxcFV+wMSe9gh6UCgiehfAZsexJkbIfPnOpICIGL0FgWD7wFvsWUNE3wT92cF+gJ01AJw/Zla6csHyBcEViXoSL64ekK11F3veJaLNbd4QQEImjzFzKkR3smTxGLobfne++vj35j4Qmr5trp4ZfejxGxMugetlLACQFej5fluELC4gEZ2Fu0gUs/UhrRCj8r1kqS+QqpV/v8Fd7GmAuIwrZN5VIQ0MSURuUxqFjEa+uzYlH30nYLcTu9jT4iH23EpEZe3dF2jCERl0I0SRCACQqpXNXXedps8tN3vrAe1htZLGS5KeJqL/C3U5Qm4AdpHoNgDOcHTL5sXMvnSyus8sPP3NMs3ese5iz5cAfhuOsoQlNjARNUCMSeTo66JeuC1xbKCVwkhkzVVxOcvnx0i/8J2GuIwrLIGGw/qRnJlvAvC2JMmcU2Tc98jWumk6Iwf3i0uIGZwor3r1nqRTw1PkUs9pI4B5RHQoXOUKu5cEM/8J4oojKa2nayx5x06bTWXV5ii9sWdtYhklYz0Itji1TJ42UIYpo5TxA+KFyYBXsK3biegNX3mEikgwABnEaKU3hrkooeYRItrY8WXBJexvlt2rdRWA9RAjl/d2aiBq/GGvfCACWgApzDwCwM0Aroa41iB8KzACBwOoAnAcwIcQffoi5hPm/wPGWaFVK+DsHwAAAABJRU5ErkJggg==;" vertex="1" parent="bCjuTU7vgoYl-bQpV43G-5">
          <mxGeometry x="325" y="88" width="61" height="61" as="geometry" />
        </mxCell>
        <mxCell id="bCjuTU7vgoYl-bQpV43G-17" style="edgeStyle=orthogonalEdgeStyle;rounded=0;orthogonalLoop=1;jettySize=auto;html=1;" edge="1" parent="bCjuTU7vgoYl-bQpV43G-2" source="bCjuTU7vgoYl-bQpV43G-14" target="bCjuTU7vgoYl-bQpV43G-16">
          <mxGeometry relative="1" as="geometry" />
        </mxCell>
        <mxCell id="bCjuTU7vgoYl-bQpV43G-6" value="sched/persistence" style="swimlane;startSize=20;horizontal=0;html=1;" vertex="1" parent="bCjuTU7vgoYl-bQpV43G-2">
          <mxGeometry y="490" width="770" height="180" as="geometry" />
        </mxCell>
        <mxCell id="bCjuTU7vgoYl-bQpV43G-14" value="ray-cluster-worker-workgroup-xxxx" style="shape=image;html=1;verticalLabelPosition=bottom;verticalAlign=top;imageAspect=1;aspect=fixed;image=data:image/png,iVBORw0KGgoAAAANSUhEUgAAAIAAAACACAYAAADDPmHLAAAABmJLR0QA/wD/AP+gvaeTAAAaj0lEQVR4nO2deWBU1dnGn/fOZJZsk4RJWAMBZAkEIcgWdr9Cq3UpRVFAragVrUpdK3yoWDfUamnV1kq1iFrFWutXK2pV1kRE1uxEAgkBjAkhZJ/MPu/3x53lzpJkksyW5fdX7rn3nnsm571nee573gP0MZh5HjP/jZlLmFnHzNXMnM/MTzLz+HCXr58gwcyLmHk/t4+NmT9h5unhLm8/AcJe8Qc6qHhffMXMM8Nd/mBD4S5AMGBmArAEwGMAMj3Ptxi4qPCU6cKJKjNp1IQRA+W4OE15kSBgiI/sPgfwJBF9G+Rih4VeZQDMLABYCrHiL/Y4bS2rsnz7+Dv1A0vOmi/yvJcIfOlkdd766zWUGCtM8ZH9lwCeIqKvA1/y8NErDMBe8VcAeALeb7zt+/OWAw++XjfoZJVlpD/5zU5XFT6yUmMYlCDzNRbYB+B5Ivqke6WODHq0Adgr/hqIFZ/ucdpcVmU5uP7NuqEnqyxpXcl/5jhl0YYbE/SDEmTT4P2/6hWG0CMNQFLxTwEY53HaXFZlObh2S92wU9WWEYF4XkaaovSZXyRcGJYsnwXv/9k3AJ7rqYbQowyAmaMArADwCICxHqdNZVWWQw+/UZdaUWMZHoznZ6QpSp+4MaEhbaB8Orz/d3kANgL4kIg4GM8PBj3CACQV/xgAzwGcqbjCfGDtlvqLquotg0NRnvRU+cknbko6N3qwfBYAmcfpfADPoIcYQkQbADMrACwHsAHAaI/TxuIK88GH36wbU11nHRT60gHpqVEnn7gpsS1DKATwIoC/E5Et9KXzj4g0AHvFr4L4xg/zOK07fMJ45LG3G8bXNFhTQl44HwxPkZ19+qakiolpUVkA5B6niwC8AOBdIrKGvnTtE1EGwMxKADdDfOOHup+D7shJ45FH324Yfz5CKt6TDgzhGIDnEWGGEBEGwMwxAH4J4GHAXY1zVPwjW+vTa5tsyWEpYCdJ1cq/f3SlpnzaGOVMAEqP0+UQDWELEVlCXzp3wmoAzBwL4DYA6wAMcj+Hln3FhiMb/t5wcaPOlhiWAnaTYVp55WMrNWXTxihnAFB5nD4F4DmE2RDCYgCSiv9fAAPdz6F5X7Hh6IZ3Gic3tloTwlG+QDNUK/9hw0rNyWljlNMBqD1OVwD4I4DXiMgY6rKF1ACYOQ7AXRCb+iS3c0Ddjlx94cb3m6Y0tVo1oSxXqEjWCLWPLk8onpuhmgFvQzgDYBOAzURkCFWZQmIAzBwP4FcA1gJwa85tzHU78wyFT29rzGzR2+JDUZ5wMyBeqN2wIqF4boZqOoBoj9NnAfwewF+JSB/ssgTVAJh5AIA1AO4F4Nac2xgXdubpi556r2GqzsBxwSxHpJIUL9Q9fK2mcNEU9VQieP4PaiC2CC8H0xCCYgDMrAVwD4D7ALg15zZG7fYDuuLn/9k03WBiT+vvkyTGUd3aZQmFi6aoM4ng2Qo6DOEVImoN9LMDagDMnAzgbgD3A+4/xMY4v/2A7thzHzTNMJrZs//rB0BCrFC/7jpNwaIp6ilE8BwH1QL4M4BNRNQUqGcGxACYOQXAAxCbe7e32mrjHz7M0Z3843+aZ5hM7DkV6scHMUpqeeja+CNXzYqZTB5dJ1yG8Aciauzus7plAMw8BMB6iFM6t8q12nD2nZ0tJzZ/1jzHZGFPMaQfP4hTk+7BazSFV8xQjxeIPA3hAsTp4x+ISNfVZ3TZAJj5DoiKlltTZbXh9JYvmive+EI322K1RXU1/35cxKpI98BSTf5Vs6LHC+Q+fYaoI6wmoq+6kneXDICZn4b4Td6JycoVr/+3pfKtL5tnWm1eOng/ASBaQa0PXptw6OpZ6okCQSs5ZQGwgog+7GyenTYAZr4ZwFZJkmH7Qf2Bp95rmGOxcn/Fh4BYtdD057sTCzJGKOfAVYdmADOIKK8zeXXKAJg5CcBxwGl9+ofeqP9ud77ey/W6n+Dz0LXx2SsWxM6XJH0LYHZnHFGETj7zBrgqHy/9uym3v/LDx4sfNs0/fMK4V5I0C0CnFrN01gCudfxR38JH3t7ZMruT9/cTYB7YXDfNZkO1JOm6ztzvtwEwswqihQEAXv64MWKcGvoyOiPHZBcbjkuSFnbm/s60AJcAUACik8YXh/WTO/OgfoLH1i9bpM6wk+wONn7RGQPIcvxR12wrNfaLOxFD0WnTGGY02A/lAPxe3dwlAyg8beq2BNlP4GAG1TVzmSQpq82LPeiMAThHl7vyjX43Mf2EhqNlhhbJYWANgJlHwOWly98ca/X00e8nzOzON8ZKDrPsS+Q7xF/lzmlRJitX1DezX6tsI5WkOAFzJ6owL0MFncGGnCID9pcY0WqM+IU8bfJNiX4skGCD+FJrIS6kOdnRfZ02gIpqSyWAHmcAQ7UyzM8QK33aGCVkkrbvqpnRsNqAogoTsosM2J1vwOmasHtsd4rmVo4zmrlMGUWO1nk2gmEA+4oNPeI1UUQRMkcpMGOcEpdOVmFESvs/VSYAk0cpMHmUAmuujkdlrRU5xQZkFxpw+IQR1ohd3OWivMpSlT48ymEAWQDe7uieDg2AmdUAnHP+XfnGsKzD84eEWAFzJ6gwL0OJrHQVYlRdd3cYqpVh+YIYLF8Qg0adDYdKjcgpMmJPoQEt+si0hq+LDUgf7vwC79dAsMP/EDPPBZAj/o2WGff9oLbZvBZCho3Rg+WYl6HC/AwVJo1UQAiyn7PNBhTau4o9BQZUnIucrmLcMHn5e2tTRtkPrQCSOnIf86cLcAlAOlupzYap3Shjt3E07fMnqbDwYhUGJYbWFoV2uoojJ02wWMPXQ5ZWWkYyUE+i670MwDQAu9q7p1MGUFBmCpgzYmdIjBUwJ0BNe6Bpq6vYW2hAc4i7CmbQhUZrmVYjm2ZPykIADEAiALXGtndhIBmRIsePL1Fj3kQVJgyPAkVOnbeJJkbAokw1FmWqYbYyjp40IafIgC+O6FHXHBpjyC03tyzOdLaKHY4D2hWCmDkNrtW6vO+YKWQC0NlaCw6VGnGo1IhTEdTP+svZ81aUnDGj5KwZ9S2hawl25hmk7vizOhKE2j3JzCsAvAcAJivKs+77YVR71wcT6Tz+kosUkMsiq0kwmhl55eIbvyvPgHMN4flaHqOkluwXB6vhilgyjohK27q+oy7A2YScqjb/ACBkBhCtJDdlrrLWim17dNi2R4f4aAEzxintBqFEfHRn/VoCQ12zDftLjMguMuCbY4Y2lUTP3xJMdEaONZr4pFJBjlhKWQC6bwBfF4VWAPrjnQOQGCtgR64e2YUGfPe9GWwvQVOrDTty9diRq4cgAOOGRmH+JLF1SE8Nrid6ebUF2YUG5BQbkF9ucpZJikDAuGFimRZlqvFtiRG//yh0H1DLqi1VE4ZHSQ3grbaubdMA7AKQM9zq7nx9SCJwSRk1SI7Vl8dh9eVxqKqzYn+J0anbm+3TLZsNKDkr9rWbP2vGUK0MM+2tw6x0JaK62VVIm/adeQbUtNG0K6MIM8cpRU1ikhLaeNf09NuS0C77zy4yCBP8FITaawGmweUB1Hy80r8wq8FicJIMS+dEY+mcaDS12nDwuG9lrrLWio9qW/HRvlaoFYTpY8VKWXixCklx/nUV/jbtUuVx9gQVopWRMS7ZnW8YcudPnYuNM5g5vi1BqD0DkHoAnQi3ACQlPto13XIoc1/l6rEr34Bz9a43VG9iZBcZkF1kwLMftN9V+NO0A67B6OJMdUiUx65QVmVOszHXCURJEGd6MwDs8HWtXwaQVx4eAcgfpMrcQ9do2qxIz64iNVmOuROVaDUwcooNbc7TpWOMxZlqjBwU+WtfmEEXmmxlyRqZYxlZFrpgAE4P4N0FhpAJQN1l1CA5Rg2KxarFsaiut+KbY97jBgA4e96CbXt86wvS/nzBJBUGxIdnltEdjpww6y6b1rEg5NMAmHkkXFG7+Jtjhh7pATQo0TVu0JsYh0uN2JFr8CnTSuXmORNVUCsisG3vBDvz9ZrLpjkXbGcxs+ArYmlbLYDTYoxmPtWos4VNAAoUagVhnl1IMlsZd7x0AfmnTACApXOisf76hB4hN/vLgRLDGIhfBGUQYwyMBfCd53VttW1OAyivtvwQjAKGkygZQSl5w2NVQq+qfMAuCJnRoadwhwaw71jP8ADqLNJRfq/8gQBKK83nJIf+GYCnALQn3xByASgUuBlAL7WAr4sN0vr1uwWYDiAKAJjRdPx7c4/v/33RS+vcjd15emmk9QnM7BWA05cBuAtA3OkVxD0DyWvfW1uA8nOW4TbGBfuhQxByo10DyC03NQepbP2EAGZQTaOlXJLk1Q34MgCXB1CevtdG8GS3v3tpEwAg94RZGkGsfQNg5lGQCEDfloTOAyjU9IVBIADszNNLw8vNsu+45sSzBZAKQOW9JVy7L9xagF5sAAeOm8ZAjCIGiIKQ2zZ7bRpAebW11wlAUnpzpUtpNdpiDCa3peNuYX3aNIB9xSELWR8e+kgXAAAnKi1tCkJOA2DmaEgEoJ35rb520u41cBt/90b2Fumlq2d8GwBEAUgOAMxoPBlmD6Bg01cGgQCwp8AgFYTSmdm5aYdPqfBCk7X3CkB9kFPVlhE2xnn7IUEiCPk0gNyTJmm4kV5JX+oCAKCm3nJKcuisa6kBOAWgnQWGXisAOeA+ZgGHT5ilu424GwAzj4Zr+zbbge96rwDkQvotoPdbwK48vXSzLqcg5GgBJAIQypp6sQDkoC/4A0g5UGqUCkLxANIBHwZQVmWuRh+gL80CAMBg4mi9kaUxg7IAHwaQU9TLBSA7fWwIAAA4XmmqkRyKBmCPKzvJkbq70BARAtAz2xrwdQ9XI5mBTw/qsXVHZHxVzyk0eQlCAjwEoLJKc0QIQKdrLLj3tTrc9acLKKsKfHyAYM8CiipMuGVTLTa8U48LTZERVGpXQetwyeF4Zk6SQ9L814oC0DTvW8PHgeNGrHz+PK6epcbdV8YjITbw+lQgxwDn6q14dXszPj3UGnFjizM11lQbo0YgpMAuCMkhWQF0/HtzRApAFivjo32t2JFrwB0/jcOyeTFugR67QqBnAXoT452dLXjzqxaYzBFW8xLqm21nB8QLKfbDLDmACY6T5dXWiJZ/m1pteOHDRnyQrcMDS+Mxd2LX96EMlD8AM/DZIT1e+rgxYpr69qhptOolS93GywE4PxQIQs8YEDvGBzPHKfHgNRqMHtz5BZuBaAGKKkx48V9NKKwwdTGH0COQ288dIgdggH3Xz1StrEcYgIPujA+4GxYQyf18R2gTZNJQ/wY5gDOw7087dbRyQFhK1Q0CMT7w1ym0p/TzbaFSUGtSjCB1CTsjANjpOIqLponpqVEdRpiORBzjg2XP1ATcm8kxn1/yRA02f9bcIysfAJYviMklgrQF+EqAuAuo4xcJL9yWeMHrzh7E6RoLfu2HfuCvFFxUYcKtfxDn87VNPXejtGiloLvryjipxtMA4BOBiAoA/MOROniAfOadV8TlhLyEAcYxPnjm/QY0+AjU2NEs4FyDFY+/04BVm2pRcKrnDPLa4tV7Eo/KBJKqvI8Skc7RW64BcNZx5vbL4qZnXqQ4FtISBgHH+ODnT9Xg/b06t5j/bY0B9SbGXz9vxpIna7D9YM8b5Pnitp/E7p+UppwnSdoL4DXA/jGIiGoh7grqiGem2rxmQEJiHNWFtKRBwjE+uG6ja3zgKQUzAzty9bj26Z7dz3uSkaYovevKeOkej9UAVhKRFfAIFcvMvwLwquP4QpPt6GWPVU+OpP0BAsH8DBWOnTE7+3RHxLCSs+ZwFivgaKJlDV9sTGmKkpHjG4AZwI+IyNnFe8XFYOYtAG5xHO/I1e9Zu6V+YbAL209gIQJ/8tuBBwcnyaSbSf+aiF6RXudrxnwXgKOOg0WZ6gU/nxNzIEjl7CdIPHtL0l6Pyn/fs/IBHwZARAYA1wDOdeX0yPWacWkp8jPBKWo/gWZRpvro4kyVdND3HYDVvq71qZkRUQWAVQBs4jES3lubbFApqNXX9f1EDkMHyH549paENLjCxTcDWEpEPr1S2hRNiWg7gI2OY6WCxr79UHJuAMvaT4BRysm4bV1Koz1ELCDOcG8lopK27ulINX8cwH8dB6MHy+esuSo+u/tF7ScY/O1+7cEYFaVLkn5HRB+2d0+7BmCPLHkDAOeqklU/jp05bawiv1sl7Sfg3PLj2H3pw6Ok/f5uAI92dF+H382IqA7AUgB6e5LyL3drk5PihB79zaA3kZGmKL3nqnhpNPdqADcQUYfOlH59OCWiPAD3OW8SMOSD9SmnBQE99+tIL0ETLWt4474BagBqe5IZwDIiqvLnfr+/nBPRXwFscRwnxgpTX/xlUo//aNRVdj03CNufGNjxhUFEINj+sV57MkpGqZLk+4noa7/z6OQz7wZwxHGwYJJqwbJ5Md92Mo9+AsSztyZlJ7s2iQSAbUT0587k0SkDkIhEtY6ktcs06SMHycvbua2fILBoqvrooiluYk8hgNs7m0+nvYCJ6DSAlRBDkYMImnd/k2ztF4lCxzCtvPLZVV5iz3VEpGv7Lt90af8TIvqKmZ+GqBNAqaAx7zyU/M2yjTWzO7g1IIwbFoX31iZj+4FWvPZZM+77eTxmjFUiSk4oOGXCKx83tfllb85EFX7xoxikpyoglwEV5yz4eH8r/vm1DjYfXt1LsqKx8tJYpCbLUNdsw6cHW/H65+FbPqFQkGHbuuQmgWioPYkB3EJEXnsB+EN31gE8CeBzx8GowfLZ9y4JrUiUGCtg64NapKcqsO+YESVnzJg5Tom/3a9FRprC6/oVC2Pw8p1JmDJKgaLTJuwvMWKYVo6Hl2mw8eZEr+tvvzwOj61MwJABMuwrNuLYGTNWLIzFs7d4XxsqttynPRytdBN7niOif3U1vy7vgERENma+AcBh2HcU/cWPYrMOlpoK9h8zXNz+3YFhzkQV9hQYsG5LvXM/oCtnROOJmxKwYWUCrn+2xun4MSJFjvuWxENnYKx+uRbf2VuIpDgBr9+rxeKpauQUG/DpQVHuGDlIjtWXxaGu2YZVm86jslac8Q5JkuHNB7XQxAhoNYZ2FnzXlXE56aleYs9j3cmzWyuBiKge7iJR1Mt3JCYnxcnOtXNbwLAxsOmjRrfNoLYfbEXBKRNGD5Zj8ihXK/CzrGjIZYT397Y4Kx8Q9wh86d/ipmjXzXM5zF49KxqCALy1o8VZ+QDwQ50Vb34Z+i7g4jTF8dt+Eicd8X8P4HqHZ09X6fZSMCLKB3CHM0OBBn+wPrlKJiDoW35/d9aMygvev/+rXNEeJ490GYDj7y+PeruM5xQboDMw0ocroJCT2/U78/Re1zvyDxWaGKH+jfu10XAXe5YT0fl2bvOLgKwFJKJ3ALzhOE6MFaZsWp3ktxjRVaSbREqprhPTkzUuTzatRvypVXXedskMVNdbIRPgXF2kjZfBxvC5VWxds82t1QkmAsH2j/9NLpMJkIo99xLRvoDkH4hM7NwDcTwAAJg7UbXg+vmx+wOYvxdtVYFjAyip4yd5e7/1CH53m5fY8x4R/SVQ+QfMAIjICA+R6DfXxk8aOzR4ItGgRN++qgPt6ReaXW/v+Ubx78FJ3uNeIjEvqw3ONQS1TVYIBKQkeD8jKU7o9qbU/nDlzOhDl05WzZckdUnsaY+ALgcnojMAlsMlEsVufTDZqlZQUEZN44dFYUiSdwUtyhS7yvxy14IOxx6Bi6d6LymfPUGFGBWh5IwJJovYbDgWg/zPZLXX9YszvdMCzTCtvPK3NyaMhquOHGJPQAW3gMcDIKKdEDUCAIAyisa8uza5INDPAcR9fe9fqoFc8jZePk2NySMVOFVtQZ7EAD7e3wqLlbF8fgzGDnVtHJ0QK+Den8UDAP6Z4/rf/ufbVthswC8WxWDoAJeRDUqU4eZFwd1J1yH2ECD17FnVVbGnPYLSjjEzAfgIwBJH2rY9LXtf/FfTgkDk71AC9xUbMC41CkaT+IYPTJThkosUMJkZd77i2hnUwYqFMXjoGg3MVsbB4yboTTbMGKtEfLSAr47qse7Nerfr7/xpHG6/PA56E2N/iRHMQFa6EgePG5E5WoFWI+PKxwM/431vXfLX44ZGzZUkPUNEHTp3dIWgRAQhIgZwK+DauXLFwtjZcycoAtoS1LfYcOumWhyvNGNehhITh0fhUKkRv3yp1qvyAWDbHh3ufa0OBeUmZI5WYP5EFarrrXjhw0asf6ve6/rXPmvG09saUFVnxbwMJTJGROGDbB3WbfG+NlDcu0ST7VH5u2CX3INBUEcyzHwxgP0AogHAxqi5YsM51DRYU9q/s32k3wIe/3tDIIoaEUwbqyrevCbpIgBKe9JZAJcEYr7fFkGNCWRfeez0RxcIKe+vS66UCdS71mAFAE2MUP/q3UnxcFV+wMSe9gh6UCgiehfAZsexJkbIfPnOpICIGL0FgWD7wFvsWUNE3wT92cF+gJ01AJw/Zla6csHyBcEViXoSL64ekK11F3veJaLNbd4QQEImjzFzKkR3smTxGLobfne++vj35j4Qmr5trp4ZfejxGxMugetlLACQFej5fluELC4gEZ2Fu0gUs/UhrRCj8r1kqS+QqpV/v8Fd7GmAuIwrZN5VIQ0MSURuUxqFjEa+uzYlH30nYLcTu9jT4iH23EpEZe3dF2jCERl0I0SRCACQqpXNXXedps8tN3vrAe1htZLGS5KeJqL/C3U5Qm4AdpHoNgDOcHTL5sXMvnSyus8sPP3NMs3ese5iz5cAfhuOsoQlNjARNUCMSeTo66JeuC1xbKCVwkhkzVVxOcvnx0i/8J2GuIwrLIGGw/qRnJlvAvC2JMmcU2Tc98jWumk6Iwf3i0uIGZwor3r1nqRTw1PkUs9pI4B5RHQoXOUKu5cEM/8J4oojKa2nayx5x06bTWXV5ii9sWdtYhklYz0Itji1TJ42UIYpo5TxA+KFyYBXsK3biegNX3mEikgwABnEaKU3hrkooeYRItrY8WXBJexvlt2rdRWA9RAjl/d2aiBq/GGvfCACWgApzDwCwM0Aroa41iB8KzACBwOoAnAcwIcQffoi5hPm/wPGWaFVK+DsHwAAAABJRU5ErkJggg==;" vertex="1" parent="bCjuTU7vgoYl-bQpV43G-6">
          <mxGeometry x="51" y="77" width="61" height="61" as="geometry" />
        </mxCell>
        <mxCell id="bCjuTU7vgoYl-bQpV43G-18" value="raycluster-kuberay-head-svc" style="shape=image;html=1;verticalLabelPosition=bottom;verticalAlign=top;imageAspect=1;aspect=fixed;image=data:image/png,iVBORw0KGgoAAAANSUhEUgAAAIAAAACACAYAAADDPmHLAAAABmJLR0QA/wD/AP+gvaeTAAAW1klEQVR4nO2deXxU1dnHf8+dPZnsCyAEInskrLLvfgrYFvXjR0URRVEqrQsfVCxQUFo3xJbalr7WYimlKqK+WNtX37cKZScge0IIECAhgYSEkH2ZfeZ5/5gldyaTyUwySxLu96+ce+9ZMue59577O+d5DnCLwczTmPmvzHyemZuYuZyZc5j5DWYeGun2SYQIZp7FzEfYNzZm/pqZx0W6vRJBwtHxR9voeG/sYuYJkW5/qKFINyAUMDMBuB/AawBGe55vNPDZ3CumqktlZorTEPr1kGNEumqgIOA2L8X9G8AbRPR9iJsdEbqVATCzAOAB2Dt+hMdpa0GZ5ftfflzT4/w180DPvETgu0Zqslc/EkcJWmGUl+J3AniTiA4Fv+WRo1sYgKPj5wJ4HS3veFvJTcvR5X+p7nm5zHK7P+VNzlDnrlkQZ+gZL/M2FsgC8C4Rfd2xVncOurQBODr+Qdg7PsPjtLmgzHJs9d+qe18us6S3p/wJQ1Rn1z4er+8ZLxuLlr9VtzCELmkAoo5/E8AQj9PmgjLLsZVbqvtcKbf0C0Z9menKi28/EV/VJ0U+ES1/s8MA1ndVQ+hSBsDMCgCPAlgDYLDHaVNBmeX4is3VaUUVlr6hqD8zXXnx9cfja9N7yMeh5W+XDWAdgB1ExKGoPxR0CQMQdfxrADwHcKa8IvPRlVtqBpbVWHqFoz0ZafLLry9MvDGgl3wiAJnH6RwAb6OLGEKnNgBmVgKYD2AtgAEep415ReZjK/5WPai82toz/K0DMtIUl19fmNCaIeQC2ADgEyKyhb91/tEpDcDR8Ytgv+P7eJxuOnHJePK1j2qHVtRaU8PeOC/0TZVde2thYtGwdMUkAHKP02cB/AbANiKyhr91vulUBsDMKgBPwn7H93Y/h6aTl40nX/2odujNTtLxnrRhCOcAvItOZgidwgCYORrATwCsANzVOGfHr9lak1FZb0uJSAMDJC1ZXvLqgrjCsYNUEwCoPE4Xwm4IW4jIEv7WuRNRA2BmLYDFAFYB6Ol+Do1ZeYaTaz+pHVHXZEuISAM7SJ9keelrC+IKxg5SjQeg9jh9BcB6RNgQImIAoo7/BYAe7ufQkJVnOLX247qRdTprfCTaF2x6J8uvr10Qd3nsINU4ABqP00UAfg/gz0RkDHfbwmoAzBwD4DnYH/WJbueA6v+c1ueu+6x+VL3OGhfOdoWLlDih8tX58XlTM9Xj0dIQrgJ4D8AmIjKEq01hMQBmjgXwLICVANwe5zbm6t3Zhty3tteNbtTbYsPRnkiTFCtUrn00Pm9qpnocgCiP09cA/BbAh0SkD3VbQmoAzJwEYCmAZQDcHuc2RtXubP3ZNz+tHdNk4JhQtqOzkhgrVK94KC531ijNGCJ4/gYVsD8RNobSEEJiAMycDOAFAC8CcHuc2xiV3xxtynv3v+vHGUzsaf23JAkxVL1yXnzurFGa0UTwfAo6DeGPRKQLdt1BNQBmTgHwPICXAPd/xMa4+c3RpnPrv6gfbzSz5/tPAkC8VqhZ9XDcmVmjNKOI4DkOqgTwPoD3iKg+WHUGxQCYORXAy7A/7t3uaquNr+842HT59//TMN5kYs9PIQkvRKuo8ZWHYk/eOzF6JHm8OtFsCL8jorqO1tUhA2Dm2wCshv2Tzq1zrTZc+3h346VN/9cwxWRhTzFEwg9iNNS0/MG43LnjNUMFIk9DqIL98/F3RNTU3jrabQDM/FPYFS23R5XVhuIt3zUUbf6uabLFalO0t3yJZrRqanr5gbiceydGDRXI/fMZdh1hCRHtak/Z7TIAZn4L9jl5FyYrF/3l28bSv+9smGC1tdDBJYJAlJJ0yx+KP37fRM0wgZAsOmUB8CgR7Qi0zIANgJmfBLBVdMjwzTH90Tc/rZ1isbLU8WFAqxHq338+4UxmP9UUNPehGcB4IsoOpKyADICZEwHkAy7r07+yuebC3hx9i6XXEqHnlYdiDzw6QztddOh7AJMDWYgiBFjnY2jufPzhn/Wnpc6PHBt21E8/ccm4X3RoIoCAnFkCNYCHnH/UNPLJj3Y3Tg4wv0SQeXlT9VibDeWiQw8Hkt/vdzYzq2G3MADAxn/VRXxRw7B+CkzKiKy08PVRHW7URO6naDJy9IE8w4mZw9XO6fSZgeQPZNB2JwAlYF+k8d0J/chAKgoFw9OVeHZuZKcRTlwyRtQAAGDrzsZeM4e7boThzBztrzYQyCtgkvOP6gbbRaMk7nQazhabBjGj1pGUA/Dbu7ldBpBbbOqwBCkRPJhB1Q1cIDo0qdWLPQjEAFyjyz05xugA8kmEgVMFhkZRMrgGwMz90LxKlw+f03mu0ZeIMHtzjFpRcpLDRb5N/H0CuCzKZOWimgb21KMlIszh8/rBAJwOKMlo6UjjlYANoKjcUhpY0yTCQYOOY4xmviI65JdGE7ABZOUZOr2/261KYZmlTJT0axzQpgEwswaA65t/T44xIn54Em1zKM9tMXFwDADuAlDjhRJT/8CbJhEO9p7Ri72qMh2rsX3ijwE0C0BNtos2WwsvWIlOwsVSy+0M1DiSMgBj28oTkAGcKTAFbTGiRPBhBlXVWQMShPwxAJEApNP6ulAi8pwuNAckCPk0AGZOR7O3LmedM0kCUCdnd7ZB/N6f2JYg1NZsoEgAwpW6JlunGgCeLjDhd18F/lYSCHj67hiQ46dp1NuwfV/7FtaWVkZ8VtyNw3n6wUC8FfYxQBKAQQAutna93wZwpdx8HUCnMoD8EjPyS8wB51MqCMvub75RNEoZPtnT6CNH16HJyFqjiS+rlOSMpTQJPgygrTGAywAOnZUEoK5CQbn/glCrBuAQgFzhVvfm6MMSgUui4xw4axD3a/sMAPZvSKcA1JBf6l+YVYnIszfH4Lcg5MsAxCuALkkCUNehoMycbmOudiQFAONbu9YvA8gulASgrgQzqKre5pcg5MsAXCuA954xSAJQF+PkJbP4uzYwA2Dm29EctYsPnzNIAlAXY3eOXuy0O8kRYLsFrT0BXBZjNPOVrhqm7Vbm6HnDIABOlSoeLYNrA/DDAArLLdeD2zSJcNBkZK3RjDbHAW0aQNY5SQDqqlwsNd8QJf0zAE8BaF+OQRKAuiiH8toWhLzNBYwDoAAAZtTnl5jDov+PG6zCMz+KQZQq9KELyaMKQQA+WRGeMMRV9Va89496FFeEPjrs3mx9H5Hr3B3MHOcZV8ibAbgLQIw7Q9hGAIBMAH69OAGxUYE6KwcHApCRFq5oNgpolIQlG6tCXlPhDUtfG6NKICShWRByCyXj7Rd3GcDpQlNDaJtoJzZKiFjnR4I+KeEJpMIMqqizFIoOtXgNePvVm1cAZetvyQie3YnTbQhCbqbIzP0hEoC+Px+ZFUD7zhjw+rbati/sAP94LRUJWrv9F1dYsOi3lSGt75MVKeidFP7plN3Z+vgfjXPF5ZzIzIJ4CxvPZ5FYACqs01kjYgAWK6NeF9ptdlj0cWuzIeT12WyR+Zo+mm8aBHsUMTnsgtAQAOed5z1fASIByCoJQN0AndEWbTC5uY67uYy1agBZeWELWS8RYi6VWloVhFwGwMxREAlAu3N03nbSluiC7D+rFw8+vBsA7AKQHACYUXdZWgHUbdh3xiDeei+DmV2Te16lwqp66yUbBxxCTqKTcqXc0s/GuOlIEkQrhLwawOnLpu6xRlrCRUWNRRw7wNXXYgNwCUC7zxgkAaibceKSWbzbiLsBMPMANG/fZjt6QXIB627sydaLF/VMdK4Qcj4BRAIQCuq7yX59Es0cvWh0CkKAfTufDMCLARSUmcsh0e0wmDhKb+TLokOTgGYp2GUAB88GXwDqES9DSnzrOrhGRcgrbvbxq9cxMtOVPss8f9UEayvqbYJWQO9k3zNu16utLvm3st7aZn0F183Qm7zLuVqNgPQevuu7etOKep09f4Pe1mZ9VyssQZen80tNFaP6q4Y6kpMAbJY7Nm4e7rxob64h6ALQvGnReGqO/yvLh/VT4IEpvneUm726HNUN3n+gu0aqsWa+/2+x9B5y/H2578i3T2yoRF6xyeu5zH4KvP98kt/1AcDEob7rW/W3Guw6FdztAg/mmmSj+rvqnQTYXwFuAlBBqVkSgLope87o+oqSQ5k5UYDo8V8pCUDdmqsV1jQbo8KRJADjBYg8gPJLzJIA1M2pabBdEyUnCQDucKYKy63S3d/NqaizigcWQwUArokCQYDkA9DNEcitj28TALi++9KSZZIBdHOS42XiUP8GAcBVZ2rMAFVg3zISXQq1knSJ0cIQ0aGrAoDdzlRMFA3LSFNcbplVojswf0b0aSKInwC7BNh3AXU++oXfLE4IvceCRNiJUglNz90TI9Z4agF8LRDRGQCfO4/2SpJP+NncmINhb6FESPnTCwmnZAKJVd5XiajJ+dm3FIDr+/CZH8aMGz1QeS6sLZQIGYvv1h4Znq6aJjq0H8CfAcdsIBFVwr4rqNFxgXrT0qT4hBiqhkSXJjNdefG5e2LFezyWA1hARFZAtCKIiI4BeMmZlgl02+erehQJAjpXLFQJv4mLktVufjFJDcA5s2YG8DARuXw+3OYwiegDZh4H4CkASIoVxryzKGHfyi01MzvSkOIKC76/YGz7wgAw+fCuvlFjDXp9jfrWp2Zrm2xBr6+qvmP3HRF428rkfIWMxJtJLycit/FdC2d8xx7BWQDGOA+99Vndsa+ymgLalVoisqx/OnHf7NHqmaJDnxHRo57XtdD+icgA4EEAzs9BWvNI3JD0VPlVz2slOiezRmtOzR6tFg/6LgBY4u1ar5M/RFQEYBEc+9ARIf7TlSkGtZJ03q6X6Dz0TpJdf+ep+HTAFdm1AcADROQ11kOrs39E9A2Adc60SkmDP3ol5XQQ2yoRZFRyMm5flVonEDk39mQATxPR+dbytDX9+0sA3zoTA3rJpyy9N/ZAx5sqEQr++lLysWg1ZYgO/ZqIdvjK49MAHIEEHgPg8ipZNEc7YexgZU6HWioRdJ6ao83K6KsQv/f3Ani1rXxtLgAhomoADwBwLiRQffB8ckpijCDNGXQSMtOVF1+4N3aM6FA5gMeIqM1QZH6tACKibAAvujIJuO2L1anFkkgUeRxijwaAMw6MGcA8Iirzkc2F30vAiOhDAFuc6QStMGbDTxKlSaMIIhBsn69OvqyQUZro8EtEdMjvMgKs83kAJ52JGcPVM+ZNi/4+wDIkgsQ7TyceSImTiXcH3U5E7wdSRkAGIBKJnCG1aOW8uIzbe8oLfWSTCAGzxmhOzRrlJvbkAngm0HICXgVMRMUAFsARipwIcdt+nmKVRKLw0SdZXvrOohZiz8NEFPDmh+0OzMvMv4JdJwAAFJZZDs9bVzG59RyhZfQAJZ6arcWg3gokxAiob2JcvWnBzlN6fHGgCaMHKLH5xWT857QeK7fUeC3jy1dTkZYix5w15ahtbJ786d9TjkWzYzBusBIJMQJqGmzILzHjyyxdSHwpfaFUkmH3up5XolSu732GfdD3ZXvK64gfwBsA/u1M9O8ln7zs/siIRFOHqfHhsmSMH6rClXILdp0y4NJ1M9JSZJg/w74ELrvQhBu1VkwdpoZG2dLuB/VWIL2HHMfyjW6dPy1TjW0rUjB3vAb1Ohv25xpQWmXFmIEqLPxB+HfS2fJi8glR5wPA+vZ2PtD2zqGtQkQ2Zn4MwAk4dhR94gfaSccums4cOWcY4Tt3cFkwMxoCAY9vqHTbSVQQgGF97V64zMB/Tuvx2F1aTB+uxncn3R0v54yxf0XtFDlkJsUKePvJBAgCsOKv1did3Xy3a5SEEbf79vANNs/dE3MwI62F2PNaR8rskCcQEdXAXSRSbPxpQkpijOyGj2xBJ14rQGdkXCx130bWZgNyi5o9eneesnfg7NEaeDJ7tBpmK2NvTnMnPzglGtFqwleHdW6dDwB6E+NofnDXAPhiRLoyf/HdMeIRfwmAR5wre9pLh13BiCgHwE9dBQrU64vVKWUyAaEPiO8gv8SMKBXhjYUJGHhb62HfzxaZUFplxZQ7VG77EmSkKZCWIseR80Y0iBZ+jB1sd6X+15HIjm/jooWazS8lR8Fd7JlPRDd9ZPOLoPgCEtHHADY70wlaYdR7SxL9FiM6yp//twEFZRb8eJwGn/8iBd++1QNvP5mAKXe09MHfdUoPpYIwY7jadWzOnY7Hv8drITXO/vOURHCHcIFg+/wXKQUyAWKxZxkRZQWl/GAU4uAF2McDAICpw9QzHpmuPRLE8lvlRq0Vj717Ey9/WI1/HtbBZAZ+OFaDjc8m4Y2F7hueOd/xzk4H7K8Ek5mxP9f9Me+5s0gk+PXiFmLPp0T0QbDKD5oBEJERHiLRzx+KHT64d3hEIrPV3oFvbq/Ffa/fwIJ3b+LaTQvmjtdg1IDmwVp+iRnFFRZMylBBqxEwPF2JXokyHMwzQmd0d428UWO/83snR2bX3HsmRB2/a6R6uuhQu8QeXwTVHZyIrgKYj2aRSLt1eYpVo6Swxx3ILzHjq8P2d3f/nu4fO7tO6aGQEWaOUHsd/Ts5fsk+gLxvou9wNaGgT7K89FePxw9Acx85xZ6gDkiCHg+AiHbDrhEAAFQKGrRtZcqZYNcjZv6MaMRr3f8VQQDuHGQfAzjvZCfOT8C7x2gwa7QaehN7FXS+ytJBZ2Q8MCUK0zPVbudUCnKVH2yUSjJsX5VST4B4Zc8iIroQ7LpC8pZjZgLwDwD3O49t39e4f8OX9TNCUd+e9T2h1Qg4d9WEkkor5AKQ6Xi0ny4wYcnGStg8VnV/sToVA3rZnwzfntRjzVbv6uDMEWqsfzoBChnhwjUziiosSIoRMDRNgYulFiz5Q/B3Gvl0VcqhIb0VU0WH3iaiNhd3tIeQDXMcEamPA3BGHTUv+6Dy/KFzpqCLRD8ep8HUYWpk9FUgJU4Gs4VxvcqKb47p8GWWDiZzy7AHP7k7Bs/eY4+Iu/wv1dh3pnVJd3BvBZ6ao8XYQSrERBFqGmy4UGLGjkO6oO+rsOz+uANP/CBa/N7fA2BOR7/3WyOk41xmHgHgCByeKTZGxdy1N1BRa00NZb1dlbGD1XmbliYOBOB8t1wDcGcwvvdbI6QxgRyex6716AIh9bNVKaUygcw+st2SxEULNX96PjEWzZ0fNLHHFyEPCkVE2wBscqbjooXRG3+WGBQRo7sgEGxftBR7lhLR4ZDXHeoKHCwF4PpnJmaoZsyfER6RqCuwYUnSgWR3sWcbEW1qNUMQCYsBEJEZdn3AtWvFKw/GjhjSR1HgI9stwX0Too7PyFSJB31ur81QE7a4gER0De4iUfTWV5KFaLV3l6VbgbRkeclad7GnFnY3rrDNPoU1MCQR7YFoFZFSRrdvW5maA9x68QkdYk+jh9jzNBGF9akYicig62AXiQAAacmyqasejrvl3M3+/nLyCY2KhooOvUVEX4W7HWE3ACJiAIsBuMLRzZsWPfmukZpbxvH05/Pi9g92V/p2AvhVJNoSkdjARFQLe0wi57tO8ZvFCYOn3qEM6ZxBZ2DpvTEH5093U/qKYXfjCu3mxa0Q0RlvZl4I4CPRIfPBs8asNVurxzYZOfwrLkNIrwR52Z9eSLzSN1UuXjltBDCNiI5Hql0RX/LAzP8Fu8eRGF1xhSX7XLHZVFBuVuiNXWsPA4WM9SDYYjQyeXoPGUb1V8UmxQoj0byO38kzRLTZWxnhojMYgAz2aKWPR7gp4WYNEa1r+7LQEvE7yzHLtQjAaogil3djKmDX+CPe+UAneAKIYeZ+AJ4EcB/svgYJvnN0CRhAGYB8ADtgX9NXG9kmNfP/+2ghsrh4gC4AAAAASUVORK5CYII=;" vertex="1" parent="bCjuTU7vgoYl-bQpV43G-6">
          <mxGeometry x="171" width="61" height="61" as="geometry" />
        </mxCell>
        <mxCell id="bCjuTU7vgoYl-bQpV43G-30" style="edgeStyle=orthogonalEdgeStyle;rounded=0;orthogonalLoop=1;jettySize=auto;html=1;entryX=1;entryY=0.5;entryDx=0;entryDy=0;dashed=1;" edge="1" parent="bCjuTU7vgoYl-bQpV43G-6" source="bCjuTU7vgoYl-bQpV43G-19" target="bCjuTU7vgoYl-bQpV43G-14">
          <mxGeometry relative="1" as="geometry" />
        </mxCell>
        <mxCell id="bCjuTU7vgoYl-bQpV43G-19" value="ray-cluster-head-xxxx" style="shape=image;html=1;verticalLabelPosition=bottom;verticalAlign=top;imageAspect=1;aspect=fixed;image=data:image/png,iVBORw0KGgoAAAANSUhEUgAAAIAAAACACAYAAADDPmHLAAAABmJLR0QA/wD/AP+gvaeTAAAaj0lEQVR4nO2deWBU1dnGn/fOZJZsk4RJWAMBZAkEIcgWdr9Cq3UpRVFAragVrUpdK3yoWDfUamnV1kq1iFrFWutXK2pV1kRE1uxEAgkBjAkhZJ/MPu/3x53lzpJkksyW5fdX7rn3nnsm571nee573gP0MZh5HjP/jZlLmFnHzNXMnM/MTzLz+HCXr58gwcyLmHk/t4+NmT9h5unhLm8/AcJe8Qc6qHhffMXMM8Nd/mBD4S5AMGBmArAEwGMAMj3Ptxi4qPCU6cKJKjNp1IQRA+W4OE15kSBgiI/sPgfwJBF9G+Rih4VeZQDMLABYCrHiL/Y4bS2rsnz7+Dv1A0vOmi/yvJcIfOlkdd766zWUGCtM8ZH9lwCeIqKvA1/y8NErDMBe8VcAeALeb7zt+/OWAw++XjfoZJVlpD/5zU5XFT6yUmMYlCDzNRbYB+B5Ivqke6WODHq0Adgr/hqIFZ/ucdpcVmU5uP7NuqEnqyxpXcl/5jhl0YYbE/SDEmTT4P2/6hWG0CMNQFLxTwEY53HaXFZlObh2S92wU9WWEYF4XkaaovSZXyRcGJYsnwXv/9k3AJ7rqYbQowyAmaMArADwCICxHqdNZVWWQw+/UZdaUWMZHoznZ6QpSp+4MaEhbaB8Orz/d3kANgL4kIg4GM8PBj3CACQV/xgAzwGcqbjCfGDtlvqLquotg0NRnvRU+cknbko6N3qwfBYAmcfpfADPoIcYQkQbADMrACwHsAHAaI/TxuIK88GH36wbU11nHRT60gHpqVEnn7gpsS1DKATwIoC/E5Et9KXzj4g0AHvFr4L4xg/zOK07fMJ45LG3G8bXNFhTQl44HwxPkZ19+qakiolpUVkA5B6niwC8AOBdIrKGvnTtE1EGwMxKADdDfOOHup+D7shJ45FH324Yfz5CKt6TDgzhGIDnEWGGEBEGwMwxAH4J4GHAXY1zVPwjW+vTa5tsyWEpYCdJ1cq/f3SlpnzaGOVMAEqP0+UQDWELEVlCXzp3wmoAzBwL4DYA6wAMcj+Hln3FhiMb/t5wcaPOlhiWAnaTYVp55WMrNWXTxihnAFB5nD4F4DmE2RDCYgCSiv9fAAPdz6F5X7Hh6IZ3Gic3tloTwlG+QDNUK/9hw0rNyWljlNMBqD1OVwD4I4DXiMgY6rKF1ACYOQ7AXRCb+iS3c0Ddjlx94cb3m6Y0tVo1oSxXqEjWCLWPLk8onpuhmgFvQzgDYBOAzURkCFWZQmIAzBwP4FcA1gJwa85tzHU78wyFT29rzGzR2+JDUZ5wMyBeqN2wIqF4boZqOoBoj9NnAfwewF+JSB/ssgTVAJh5AIA1AO4F4Nac2xgXdubpi556r2GqzsBxwSxHpJIUL9Q9fK2mcNEU9VQieP4PaiC2CC8H0xCCYgDMrAVwD4D7ALg15zZG7fYDuuLn/9k03WBiT+vvkyTGUd3aZQmFi6aoM4ng2Qo6DOEVImoN9LMDagDMnAzgbgD3A+4/xMY4v/2A7thzHzTNMJrZs//rB0BCrFC/7jpNwaIp6ilE8BwH1QL4M4BNRNQUqGcGxACYOQXAAxCbe7e32mrjHz7M0Z3843+aZ5hM7DkV6scHMUpqeeja+CNXzYqZTB5dJ1yG8Aciauzus7plAMw8BMB6iFM6t8q12nD2nZ0tJzZ/1jzHZGFPMaQfP4hTk+7BazSFV8xQjxeIPA3hAsTp4x+ISNfVZ3TZAJj5DoiKlltTZbXh9JYvmive+EI322K1RXU1/35cxKpI98BSTf5Vs6LHC+Q+fYaoI6wmoq+6kneXDICZn4b4Td6JycoVr/+3pfKtL5tnWm1eOng/ASBaQa0PXptw6OpZ6okCQSs5ZQGwgog+7GyenTYAZr4ZwFZJkmH7Qf2Bp95rmGOxcn/Fh4BYtdD057sTCzJGKOfAVYdmADOIKK8zeXXKAJg5CcBxwGl9+ofeqP9ud77ey/W6n+Dz0LXx2SsWxM6XJH0LYHZnHFGETj7zBrgqHy/9uym3v/LDx4sfNs0/fMK4V5I0C0CnFrN01gCudfxR38JH3t7ZMruT9/cTYB7YXDfNZkO1JOm6ztzvtwEwswqihQEAXv64MWKcGvoyOiPHZBcbjkuSFnbm/s60AJcAUACik8YXh/WTO/OgfoLH1i9bpM6wk+wONn7RGQPIcvxR12wrNfaLOxFD0WnTGGY02A/lAPxe3dwlAyg8beq2BNlP4GAG1TVzmSQpq82LPeiMAThHl7vyjX43Mf2EhqNlhhbJYWANgJlHwOWly98ca/X00e8nzOzON8ZKDrPsS+Q7xF/lzmlRJitX1DezX6tsI5WkOAFzJ6owL0MFncGGnCID9pcY0WqM+IU8bfJNiX4skGCD+FJrIS6kOdnRfZ02gIpqSyWAHmcAQ7UyzM8QK33aGCVkkrbvqpnRsNqAogoTsosM2J1vwOmasHtsd4rmVo4zmrlMGUWO1nk2gmEA+4oNPeI1UUQRMkcpMGOcEpdOVmFESvs/VSYAk0cpMHmUAmuujkdlrRU5xQZkFxpw+IQR1ohd3OWivMpSlT48ymEAWQDe7uieDg2AmdUAnHP+XfnGsKzD84eEWAFzJ6gwL0OJrHQVYlRdd3cYqpVh+YIYLF8Qg0adDYdKjcgpMmJPoQEt+si0hq+LDUgf7vwC79dAsMP/EDPPBZAj/o2WGff9oLbZvBZCho3Rg+WYl6HC/AwVJo1UQAiyn7PNBhTau4o9BQZUnIucrmLcMHn5e2tTRtkPrQCSOnIf86cLcAlAOlupzYap3Shjt3E07fMnqbDwYhUGJYbWFoV2uoojJ02wWMPXQ5ZWWkYyUE+i670MwDQAu9q7p1MGUFBmCpgzYmdIjBUwJ0BNe6Bpq6vYW2hAc4i7CmbQhUZrmVYjm2ZPykIADEAiALXGtndhIBmRIsePL1Fj3kQVJgyPAkVOnbeJJkbAokw1FmWqYbYyjp40IafIgC+O6FHXHBpjyC03tyzOdLaKHY4D2hWCmDkNrtW6vO+YKWQC0NlaCw6VGnGo1IhTEdTP+svZ81aUnDGj5KwZ9S2hawl25hmk7vizOhKE2j3JzCsAvAcAJivKs+77YVR71wcT6Tz+kosUkMsiq0kwmhl55eIbvyvPgHMN4flaHqOkluwXB6vhilgyjohK27q+oy7A2YScqjb/ACBkBhCtJDdlrrLWim17dNi2R4f4aAEzxintBqFEfHRn/VoCQ12zDftLjMguMuCbY4Y2lUTP3xJMdEaONZr4pFJBjlhKWQC6bwBfF4VWAPrjnQOQGCtgR64e2YUGfPe9GWwvQVOrDTty9diRq4cgAOOGRmH+JLF1SE8Nrid6ebUF2YUG5BQbkF9ucpZJikDAuGFimRZlqvFtiRG//yh0H1DLqi1VE4ZHSQ3grbaubdMA7AKQM9zq7nx9SCJwSRk1SI7Vl8dh9eVxqKqzYn+J0anbm+3TLZsNKDkr9rWbP2vGUK0MM+2tw6x0JaK62VVIm/adeQbUtNG0K6MIM8cpRU1ikhLaeNf09NuS0C77zy4yCBP8FITaawGmweUB1Hy80r8wq8FicJIMS+dEY+mcaDS12nDwuG9lrrLWio9qW/HRvlaoFYTpY8VKWXixCklx/nUV/jbtUuVx9gQVopWRMS7ZnW8YcudPnYuNM5g5vi1BqD0DkHoAnQi3ACQlPto13XIoc1/l6rEr34Bz9a43VG9iZBcZkF1kwLMftN9V+NO0A67B6OJMdUiUx65QVmVOszHXCURJEGd6MwDs8HWtXwaQVx4eAcgfpMrcQ9do2qxIz64iNVmOuROVaDUwcooNbc7TpWOMxZlqjBwU+WtfmEEXmmxlyRqZYxlZFrpgAE4P4N0FhpAJQN1l1CA5Rg2KxarFsaiut+KbY97jBgA4e96CbXt86wvS/nzBJBUGxIdnltEdjpww6y6b1rEg5NMAmHkkXFG7+Jtjhh7pATQo0TVu0JsYh0uN2JFr8CnTSuXmORNVUCsisG3vBDvz9ZrLpjkXbGcxs+ArYmlbLYDTYoxmPtWos4VNAAoUagVhnl1IMlsZd7x0AfmnTACApXOisf76hB4hN/vLgRLDGIhfBGUQYwyMBfCd53VttW1OAyivtvwQjAKGkygZQSl5w2NVQq+qfMAuCJnRoadwhwaw71jP8ADqLNJRfq/8gQBKK83nJIf+GYCnALQn3xByASgUuBlAL7WAr4sN0vr1uwWYDiAKAJjRdPx7c4/v/33RS+vcjd15emmk9QnM7BWA05cBuAtA3OkVxD0DyWvfW1uA8nOW4TbGBfuhQxByo10DyC03NQepbP2EAGZQTaOlXJLk1Q34MgCXB1CevtdG8GS3v3tpEwAg94RZGkGsfQNg5lGQCEDfloTOAyjU9IVBIADszNNLw8vNsu+45sSzBZAKQOW9JVy7L9xagF5sAAeOm8ZAjCIGiIKQ2zZ7bRpAebW11wlAUnpzpUtpNdpiDCa3peNuYX3aNIB9xSELWR8e+kgXAAAnKi1tCkJOA2DmaEgEoJ35rb520u41cBt/90b2Fumlq2d8GwBEAUgOAMxoPBlmD6Bg01cGgQCwp8AgFYTSmdm5aYdPqfBCk7X3CkB9kFPVlhE2xnn7IUEiCPk0gNyTJmm4kV5JX+oCAKCm3nJKcuisa6kBOAWgnQWGXisAOeA+ZgGHT5ilu424GwAzj4Zr+zbbge96rwDkQvotoPdbwK48vXSzLqcg5GgBJAIQypp6sQDkoC/4A0g5UGqUCkLxANIBHwZQVmWuRh+gL80CAMBg4mi9kaUxg7IAHwaQU9TLBSA7fWwIAAA4XmmqkRyKBmCPKzvJkbq70BARAtAz2xrwdQ9XI5mBTw/qsXVHZHxVzyk0eQlCAjwEoLJKc0QIQKdrLLj3tTrc9acLKKsKfHyAYM8CiipMuGVTLTa8U48LTZERVGpXQetwyeF4Zk6SQ9L814oC0DTvW8PHgeNGrHz+PK6epcbdV8YjITbw+lQgxwDn6q14dXszPj3UGnFjizM11lQbo0YgpMAuCMkhWQF0/HtzRApAFivjo32t2JFrwB0/jcOyeTFugR67QqBnAXoT452dLXjzqxaYzBFW8xLqm21nB8QLKfbDLDmACY6T5dXWiJZ/m1pteOHDRnyQrcMDS+Mxd2LX96EMlD8AM/DZIT1e+rgxYpr69qhptOolS93GywE4PxQIQs8YEDvGBzPHKfHgNRqMHtz5BZuBaAGKKkx48V9NKKwwdTGH0COQ288dIgdggH3Xz1StrEcYgIPujA+4GxYQyf18R2gTZNJQ/wY5gDOw7087dbRyQFhK1Q0CMT7w1ym0p/TzbaFSUGtSjCB1CTsjANjpOIqLponpqVEdRpiORBzjg2XP1ATcm8kxn1/yRA02f9bcIysfAJYviMklgrQF+EqAuAuo4xcJL9yWeMHrzh7E6RoLfu2HfuCvFFxUYcKtfxDn87VNPXejtGiloLvryjipxtMA4BOBiAoA/MOROniAfOadV8TlhLyEAcYxPnjm/QY0+AjU2NEs4FyDFY+/04BVm2pRcKrnDPLa4tV7Eo/KBJKqvI8Skc7RW64BcNZx5vbL4qZnXqQ4FtISBgHH+ODnT9Xg/b06t5j/bY0B9SbGXz9vxpIna7D9YM8b5Pnitp/E7p+UppwnSdoL4DXA/jGIiGoh7grqiGem2rxmQEJiHNWFtKRBwjE+uG6ja3zgKQUzAzty9bj26Z7dz3uSkaYovevKeOkej9UAVhKRFfAIFcvMvwLwquP4QpPt6GWPVU+OpP0BAsH8DBWOnTE7+3RHxLCSs+ZwFivgaKJlDV9sTGmKkpHjG4AZwI+IyNnFe8XFYOYtAG5xHO/I1e9Zu6V+YbAL209gIQJ/8tuBBwcnyaSbSf+aiF6RXudrxnwXgKOOg0WZ6gU/nxNzIEjl7CdIPHtL0l6Pyn/fs/IBHwZARAYA1wDOdeX0yPWacWkp8jPBKWo/gWZRpvro4kyVdND3HYDVvq71qZkRUQWAVQBs4jES3lubbFApqNXX9f1EDkMHyH549paENLjCxTcDWEpEPr1S2hRNiWg7gI2OY6WCxr79UHJuAMvaT4BRysm4bV1Koz1ELCDOcG8lopK27ulINX8cwH8dB6MHy+esuSo+u/tF7ScY/O1+7cEYFaVLkn5HRB+2d0+7BmCPLHkDAOeqklU/jp05bawiv1sl7Sfg3PLj2H3pw6Ok/f5uAI92dF+H382IqA7AUgB6e5LyL3drk5PihB79zaA3kZGmKL3nqnhpNPdqADcQUYfOlH59OCWiPAD3OW8SMOSD9SmnBQE99+tIL0ETLWt4474BagBqe5IZwDIiqvLnfr+/nBPRXwFscRwnxgpTX/xlUo//aNRVdj03CNufGNjxhUFEINj+sV57MkpGqZLk+4noa7/z6OQz7wZwxHGwYJJqwbJ5Md92Mo9+AsSztyZlJ7s2iQSAbUT0587k0SkDkIhEtY6ktcs06SMHycvbua2fILBoqvrooiluYk8hgNs7m0+nvYCJ6DSAlRBDkYMImnd/k2ztF4lCxzCtvPLZVV5iz3VEpGv7Lt90af8TIvqKmZ+GqBNAqaAx7zyU/M2yjTWzO7g1IIwbFoX31iZj+4FWvPZZM+77eTxmjFUiSk4oOGXCKx83tfllb85EFX7xoxikpyoglwEV5yz4eH8r/vm1DjYfXt1LsqKx8tJYpCbLUNdsw6cHW/H65+FbPqFQkGHbuuQmgWioPYkB3EJEXnsB+EN31gE8CeBzx8GowfLZ9y4JrUiUGCtg64NapKcqsO+YESVnzJg5Tom/3a9FRprC6/oVC2Pw8p1JmDJKgaLTJuwvMWKYVo6Hl2mw8eZEr+tvvzwOj61MwJABMuwrNuLYGTNWLIzFs7d4XxsqttynPRytdBN7niOif3U1vy7vgERENma+AcBh2HcU/cWPYrMOlpoK9h8zXNz+3YFhzkQV9hQYsG5LvXM/oCtnROOJmxKwYWUCrn+2xun4MSJFjvuWxENnYKx+uRbf2VuIpDgBr9+rxeKpauQUG/DpQVHuGDlIjtWXxaGu2YZVm86jslac8Q5JkuHNB7XQxAhoNYZ2FnzXlXE56aleYs9j3cmzWyuBiKge7iJR1Mt3JCYnxcnOtXNbwLAxsOmjRrfNoLYfbEXBKRNGD5Zj8ihXK/CzrGjIZYT397Y4Kx8Q9wh86d/ipmjXzXM5zF49KxqCALy1o8VZ+QDwQ50Vb34Z+i7g4jTF8dt+Eicd8X8P4HqHZ09X6fZSMCLKB3CHM0OBBn+wPrlKJiDoW35/d9aMygvev/+rXNEeJ490GYDj7y+PeruM5xQboDMw0ocroJCT2/U78/Re1zvyDxWaGKH+jfu10XAXe5YT0fl2bvOLgKwFJKJ3ALzhOE6MFaZsWp3ktxjRVaSbREqprhPTkzUuTzatRvypVXXedskMVNdbIRPgXF2kjZfBxvC5VWxds82t1QkmAsH2j/9NLpMJkIo99xLRvoDkH4hM7NwDcTwAAJg7UbXg+vmx+wOYvxdtVYFjAyip4yd5e7/1CH53m5fY8x4R/SVQ+QfMAIjICA+R6DfXxk8aOzR4ItGgRN++qgPt6ReaXW/v+Ubx78FJ3uNeIjEvqw3ONQS1TVYIBKQkeD8jKU7o9qbU/nDlzOhDl05WzZckdUnsaY+ALgcnojMAlsMlEsVufTDZqlZQUEZN44dFYUiSdwUtyhS7yvxy14IOxx6Bi6d6LymfPUGFGBWh5IwJJovYbDgWg/zPZLXX9YszvdMCzTCtvPK3NyaMhquOHGJPQAW3gMcDIKKdEDUCAIAyisa8uza5INDPAcR9fe9fqoFc8jZePk2NySMVOFVtQZ7EAD7e3wqLlbF8fgzGDnVtHJ0QK+Den8UDAP6Z4/rf/ufbVthswC8WxWDoAJeRDUqU4eZFwd1J1yH2ECD17FnVVbGnPYLSjjEzAfgIwBJH2rY9LXtf/FfTgkDk71AC9xUbMC41CkaT+IYPTJThkosUMJkZd77i2hnUwYqFMXjoGg3MVsbB4yboTTbMGKtEfLSAr47qse7Nerfr7/xpHG6/PA56E2N/iRHMQFa6EgePG5E5WoFWI+PKxwM/431vXfLX44ZGzZUkPUNEHTp3dIWgRAQhIgZwK+DauXLFwtjZcycoAtoS1LfYcOumWhyvNGNehhITh0fhUKkRv3yp1qvyAWDbHh3ufa0OBeUmZI5WYP5EFarrrXjhw0asf6ve6/rXPmvG09saUFVnxbwMJTJGROGDbB3WbfG+NlDcu0ST7VH5u2CX3INBUEcyzHwxgP0AogHAxqi5YsM51DRYU9q/s32k3wIe/3tDIIoaEUwbqyrevCbpIgBKe9JZAJcEYr7fFkGNCWRfeez0RxcIKe+vS66UCdS71mAFAE2MUP/q3UnxcFV+wMSe9gh6UCgiehfAZsexJkbIfPnOpICIGL0FgWD7wFvsWUNE3wT92cF+gJ01AJw/Zla6csHyBcEViXoSL64ekK11F3veJaLNbd4QQEImjzFzKkR3smTxGLobfne++vj35j4Qmr5trp4ZfejxGxMugetlLACQFej5fluELC4gEZ2Fu0gUs/UhrRCj8r1kqS+QqpV/v8Fd7GmAuIwrZN5VIQ0MSURuUxqFjEa+uzYlH30nYLcTu9jT4iH23EpEZe3dF2jCERl0I0SRCACQqpXNXXedps8tN3vrAe1htZLGS5KeJqL/C3U5Qm4AdpHoNgDOcHTL5sXMvnSyus8sPP3NMs3ese5iz5cAfhuOsoQlNjARNUCMSeTo66JeuC1xbKCVwkhkzVVxOcvnx0i/8J2GuIwrLIGGw/qRnJlvAvC2JMmcU2Tc98jWumk6Iwf3i0uIGZwor3r1nqRTw1PkUs9pI4B5RHQoXOUKu5cEM/8J4oojKa2nayx5x06bTWXV5ii9sWdtYhklYz0Itji1TJ42UIYpo5TxA+KFyYBXsK3biegNX3mEikgwABnEaKU3hrkooeYRItrY8WXBJexvlt2rdRWA9RAjl/d2aiBq/GGvfCACWgApzDwCwM0Aroa41iB8KzACBwOoAnAcwIcQffoi5hPm/wPGWaFVK+DsHwAAAABJRU5ErkJggg==;" vertex="1" parent="bCjuTU7vgoYl-bQpV43G-6">
          <mxGeometry x="171" y="89" width="61" height="61" as="geometry" />
        </mxCell>
        <mxCell id="bCjuTU7vgoYl-bQpV43G-20" style="edgeStyle=orthogonalEdgeStyle;rounded=0;orthogonalLoop=1;jettySize=auto;html=1;entryX=0.5;entryY=0;entryDx=0;entryDy=0;" edge="1" parent="bCjuTU7vgoYl-bQpV43G-6" source="bCjuTU7vgoYl-bQpV43G-18" target="bCjuTU7vgoYl-bQpV43G-19">
          <mxGeometry relative="1" as="geometry" />
        </mxCell>
        <mxCell id="bCjuTU7vgoYl-bQpV43G-37" value="pgsql14" style="shape=image;html=1;verticalLabelPosition=bottom;verticalAlign=top;imageAspect=1;aspect=fixed;image=data:image/png,iVBORw0KGgoAAAANSUhEUgAAAIAAAACACAYAAADDPmHLAAAABmJLR0QA/wD/AP+gvaeTAAAW1klEQVR4nO2deXxU1dnHf8+dPZnsCyAEInskrLLvfgrYFvXjR0URRVEqrQsfVCxQUFo3xJbalr7WYimlKqK+WNtX37cKZScge0IIECAhgYSEkH2ZfeZ5/5gldyaTyUwySxLu96+ce+9ZMue59577O+d5DnCLwczTmPmvzHyemZuYuZyZc5j5DWYeGun2SYQIZp7FzEfYNzZm/pqZx0W6vRJBwtHxR9voeG/sYuYJkW5/qKFINyAUMDMBuB/AawBGe55vNPDZ3CumqktlZorTEPr1kGNEumqgIOA2L8X9G8AbRPR9iJsdEbqVATCzAOAB2Dt+hMdpa0GZ5ftfflzT4/w180DPvETgu0Zqslc/EkcJWmGUl+J3AniTiA4Fv+WRo1sYgKPj5wJ4HS3veFvJTcvR5X+p7nm5zHK7P+VNzlDnrlkQZ+gZL/M2FsgC8C4Rfd2xVncOurQBODr+Qdg7PsPjtLmgzHJs9d+qe18us6S3p/wJQ1Rn1z4er+8ZLxuLlr9VtzCELmkAoo5/E8AQj9PmgjLLsZVbqvtcKbf0C0Z9menKi28/EV/VJ0U+ES1/s8MA1ndVQ+hSBsDMCgCPAlgDYLDHaVNBmeX4is3VaUUVlr6hqD8zXXnx9cfja9N7yMeh5W+XDWAdgB1ExKGoPxR0CQMQdfxrADwHcKa8IvPRlVtqBpbVWHqFoz0ZafLLry9MvDGgl3wiAJnH6RwAb6OLGEKnNgBmVgKYD2AtgAEep415ReZjK/5WPai82toz/K0DMtIUl19fmNCaIeQC2ADgEyKyhb91/tEpDcDR8Ytgv+P7eJxuOnHJePK1j2qHVtRaU8PeOC/0TZVde2thYtGwdMUkAHKP02cB/AbANiKyhr91vulUBsDMKgBPwn7H93Y/h6aTl40nX/2odujNTtLxnrRhCOcAvItOZgidwgCYORrATwCsANzVOGfHr9lak1FZb0uJSAMDJC1ZXvLqgrjCsYNUEwCoPE4Xwm4IW4jIEv7WuRNRA2BmLYDFAFYB6Ol+Do1ZeYaTaz+pHVHXZEuISAM7SJ9keelrC+IKxg5SjQeg9jh9BcB6RNgQImIAoo7/BYAe7ufQkJVnOLX247qRdTprfCTaF2x6J8uvr10Qd3nsINU4ABqP00UAfg/gz0RkDHfbwmoAzBwD4DnYH/WJbueA6v+c1ueu+6x+VL3OGhfOdoWLlDih8tX58XlTM9Xj0dIQrgJ4D8AmIjKEq01hMQBmjgXwLICVANwe5zbm6t3Zhty3tteNbtTbYsPRnkiTFCtUrn00Pm9qpnocgCiP09cA/BbAh0SkD3VbQmoAzJwEYCmAZQDcHuc2RtXubP3ZNz+tHdNk4JhQtqOzkhgrVK94KC531ijNGCJ4/gYVsD8RNobSEEJiAMycDOAFAC8CcHuc2xiV3xxtynv3v+vHGUzsaf23JAkxVL1yXnzurFGa0UTwfAo6DeGPRKQLdt1BNQBmTgHwPICXAPd/xMa4+c3RpnPrv6gfbzSz5/tPAkC8VqhZ9XDcmVmjNKOI4DkOqgTwPoD3iKg+WHUGxQCYORXAy7A/7t3uaquNr+842HT59//TMN5kYs9PIQkvRKuo8ZWHYk/eOzF6JHm8OtFsCL8jorqO1tUhA2Dm2wCshv2Tzq1zrTZc+3h346VN/9cwxWRhTzFEwg9iNNS0/MG43LnjNUMFIk9DqIL98/F3RNTU3jrabQDM/FPYFS23R5XVhuIt3zUUbf6uabLFalO0t3yJZrRqanr5gbiceydGDRXI/fMZdh1hCRHtak/Z7TIAZn4L9jl5FyYrF/3l28bSv+9smGC1tdDBJYJAlJJ0yx+KP37fRM0wgZAsOmUB8CgR7Qi0zIANgJmfBLBVdMjwzTH90Tc/rZ1isbLU8WFAqxHq338+4UxmP9UUNPehGcB4IsoOpKyADICZEwHkAy7r07+yuebC3hx9i6XXEqHnlYdiDzw6QztddOh7AJMDWYgiBFjnY2jufPzhn/Wnpc6PHBt21E8/ccm4X3RoIoCAnFkCNYCHnH/UNPLJj3Y3Tg4wv0SQeXlT9VibDeWiQw8Hkt/vdzYzq2G3MADAxn/VRXxRw7B+CkzKiKy08PVRHW7URO6naDJy9IE8w4mZw9XO6fSZgeQPZNB2JwAlYF+k8d0J/chAKgoFw9OVeHZuZKcRTlwyRtQAAGDrzsZeM4e7boThzBztrzYQyCtgkvOP6gbbRaMk7nQazhabBjGj1pGUA/Dbu7ldBpBbbOqwBCkRPJhB1Q1cIDo0qdWLPQjEAFyjyz05xugA8kmEgVMFhkZRMrgGwMz90LxKlw+f03mu0ZeIMHtzjFpRcpLDRb5N/H0CuCzKZOWimgb21KMlIszh8/rBAJwOKMlo6UjjlYANoKjcUhpY0yTCQYOOY4xmviI65JdGE7ABZOUZOr2/261KYZmlTJT0axzQpgEwswaA65t/T44xIn54Em1zKM9tMXFwDADuAlDjhRJT/8CbJhEO9p7Ri72qMh2rsX3ijwE0C0BNtos2WwsvWIlOwsVSy+0M1DiSMgBj28oTkAGcKTAFbTGiRPBhBlXVWQMShPwxAJEApNP6ulAi8pwuNAckCPk0AGZOR7O3LmedM0kCUCdnd7ZB/N6f2JYg1NZsoEgAwpW6JlunGgCeLjDhd18F/lYSCHj67hiQ46dp1NuwfV/7FtaWVkZ8VtyNw3n6wUC8FfYxQBKAQQAutna93wZwpdx8HUCnMoD8EjPyS8wB51MqCMvub75RNEoZPtnT6CNH16HJyFqjiS+rlOSMpTQJPgygrTGAywAOnZUEoK5CQbn/glCrBuAQgFzhVvfm6MMSgUui4xw4axD3a/sMAPZvSKcA1JBf6l+YVYnIszfH4Lcg5MsAxCuALkkCUNehoMycbmOudiQFAONbu9YvA8gulASgrgQzqKre5pcg5MsAXCuA954xSAJQF+PkJbP4uzYwA2Dm29EctYsPnzNIAlAXY3eOXuy0O8kRYLsFrT0BXBZjNPOVrhqm7Vbm6HnDIABOlSoeLYNrA/DDAArLLdeD2zSJcNBkZK3RjDbHAW0aQNY5SQDqqlwsNd8QJf0zAE8BaF+OQRKAuiiH8toWhLzNBYwDoAAAZtTnl5jDov+PG6zCMz+KQZQq9KELyaMKQQA+WRGeMMRV9Va89496FFeEPjrs3mx9H5Hr3B3MHOcZV8ibAbgLQIw7Q9hGAIBMAH69OAGxUYE6KwcHApCRFq5oNgpolIQlG6tCXlPhDUtfG6NKICShWRByCyXj7Rd3GcDpQlNDaJtoJzZKiFjnR4I+KeEJpMIMqqizFIoOtXgNePvVm1cAZetvyQie3YnTbQhCbqbIzP0hEoC+Px+ZFUD7zhjw+rbati/sAP94LRUJWrv9F1dYsOi3lSGt75MVKeidFP7plN3Z+vgfjXPF5ZzIzIJ4CxvPZ5FYACqs01kjYgAWK6NeF9ptdlj0cWuzIeT12WyR+Zo+mm8aBHsUMTnsgtAQAOed5z1fASIByCoJQN0AndEWbTC5uY67uYy1agBZeWELWS8RYi6VWloVhFwGwMxREAlAu3N03nbSluiC7D+rFw8+vBsA7AKQHACYUXdZWgHUbdh3xiDeei+DmV2Te16lwqp66yUbBxxCTqKTcqXc0s/GuOlIEkQrhLwawOnLpu6xRlrCRUWNRRw7wNXXYgNwCUC7zxgkAaibceKSWbzbiLsBMPMANG/fZjt6QXIB627sydaLF/VMdK4Qcj4BRAIQCuq7yX59Es0cvWh0CkKAfTufDMCLARSUmcsh0e0wmDhKb+TLokOTgGYp2GUAB88GXwDqES9DSnzrOrhGRcgrbvbxq9cxMtOVPss8f9UEayvqbYJWQO9k3zNu16utLvm3st7aZn0F183Qm7zLuVqNgPQevuu7etOKep09f4Pe1mZ9VyssQZen80tNFaP6q4Y6kpMAbJY7Nm4e7rxob64h6ALQvGnReGqO/yvLh/VT4IEpvneUm726HNUN3n+gu0aqsWa+/2+x9B5y/H2578i3T2yoRF6xyeu5zH4KvP98kt/1AcDEob7rW/W3Guw6FdztAg/mmmSj+rvqnQTYXwFuAlBBqVkSgLope87o+oqSQ5k5UYDo8V8pCUDdmqsV1jQbo8KRJADjBYg8gPJLzJIA1M2pabBdEyUnCQDucKYKy63S3d/NqaizigcWQwUArokCQYDkA9DNEcitj28TALi++9KSZZIBdHOS42XiUP8GAcBVZ2rMAFVg3zISXQq1knSJ0cIQ0aGrAoDdzlRMFA3LSFNcbplVojswf0b0aSKInwC7BNh3AXU++oXfLE4IvceCRNiJUglNz90TI9Z4agF8LRDRGQCfO4/2SpJP+NncmINhb6FESPnTCwmnZAKJVd5XiajJ+dm3FIDr+/CZH8aMGz1QeS6sLZQIGYvv1h4Znq6aJjq0H8CfAcdsIBFVwr4rqNFxgXrT0qT4hBiqhkSXJjNdefG5e2LFezyWA1hARFZAtCKIiI4BeMmZlgl02+erehQJAjpXLFQJv4mLktVufjFJDcA5s2YG8DARuXw+3OYwiegDZh4H4CkASIoVxryzKGHfyi01MzvSkOIKC76/YGz7wgAw+fCuvlFjDXp9jfrWp2Zrm2xBr6+qvmP3HRF428rkfIWMxJtJLycit/FdC2d8xx7BWQDGOA+99Vndsa+ymgLalVoisqx/OnHf7NHqmaJDnxHRo57XtdD+icgA4EEAzs9BWvNI3JD0VPlVz2slOiezRmtOzR6tFg/6LgBY4u1ar5M/RFQEYBEc+9ARIf7TlSkGtZJ03q6X6Dz0TpJdf+ep+HTAFdm1AcADROQ11kOrs39E9A2Adc60SkmDP3ol5XQQ2yoRZFRyMm5flVonEDk39mQATxPR+dbytDX9+0sA3zoTA3rJpyy9N/ZAx5sqEQr++lLysWg1ZYgO/ZqIdvjK49MAHIEEHgPg8ipZNEc7YexgZU6HWioRdJ6ao83K6KsQv/f3Ani1rXxtLgAhomoADwBwLiRQffB8ckpijCDNGXQSMtOVF1+4N3aM6FA5gMeIqM1QZH6tACKibAAvujIJuO2L1anFkkgUeRxijwaAMw6MGcA8Iirzkc2F30vAiOhDAFuc6QStMGbDTxKlSaMIIhBsn69OvqyQUZro8EtEdMjvMgKs83kAJ52JGcPVM+ZNi/4+wDIkgsQ7TyceSImTiXcH3U5E7wdSRkAGIBKJnCG1aOW8uIzbe8oLfWSTCAGzxmhOzRrlJvbkAngm0HICXgVMRMUAFsARipwIcdt+nmKVRKLw0SdZXvrOohZiz8NEFPDmh+0OzMvMv4JdJwAAFJZZDs9bVzG59RyhZfQAJZ6arcWg3gokxAiob2JcvWnBzlN6fHGgCaMHKLH5xWT857QeK7fUeC3jy1dTkZYix5w15ahtbJ786d9TjkWzYzBusBIJMQJqGmzILzHjyyxdSHwpfaFUkmH3up5XolSu732GfdD3ZXvK64gfwBsA/u1M9O8ln7zs/siIRFOHqfHhsmSMH6rClXILdp0y4NJ1M9JSZJg/w74ELrvQhBu1VkwdpoZG2dLuB/VWIL2HHMfyjW6dPy1TjW0rUjB3vAb1Ohv25xpQWmXFmIEqLPxB+HfS2fJi8glR5wPA+vZ2PtD2zqGtQkQ2Zn4MwAk4dhR94gfaSccums4cOWcY4Tt3cFkwMxoCAY9vqHTbSVQQgGF97V64zMB/Tuvx2F1aTB+uxncn3R0v54yxf0XtFDlkJsUKePvJBAgCsOKv1did3Xy3a5SEEbf79vANNs/dE3MwI62F2PNaR8rskCcQEdXAXSRSbPxpQkpijOyGj2xBJ14rQGdkXCx130bWZgNyi5o9eneesnfg7NEaeDJ7tBpmK2NvTnMnPzglGtFqwleHdW6dDwB6E+NofnDXAPhiRLoyf/HdMeIRfwmAR5wre9pLh13BiCgHwE9dBQrU64vVKWUyAaEPiO8gv8SMKBXhjYUJGHhb62HfzxaZUFplxZQ7VG77EmSkKZCWIseR80Y0iBZ+jB1sd6X+15HIjm/jooWazS8lR8Fd7JlPRDd9ZPOLoPgCEtHHADY70wlaYdR7SxL9FiM6yp//twEFZRb8eJwGn/8iBd++1QNvP5mAKXe09MHfdUoPpYIwY7jadWzOnY7Hv8drITXO/vOURHCHcIFg+/wXKQUyAWKxZxkRZQWl/GAU4uAF2McDAICpw9QzHpmuPRLE8lvlRq0Vj717Ey9/WI1/HtbBZAZ+OFaDjc8m4Y2F7hueOd/xzk4H7K8Ek5mxP9f9Me+5s0gk+PXiFmLPp0T0QbDKD5oBEJERHiLRzx+KHT64d3hEIrPV3oFvbq/Ffa/fwIJ3b+LaTQvmjtdg1IDmwVp+iRnFFRZMylBBqxEwPF2JXokyHMwzQmd0d428UWO/83snR2bX3HsmRB2/a6R6uuhQu8QeXwTVHZyIrgKYj2aRSLt1eYpVo6Swxx3ILzHjq8P2d3f/nu4fO7tO6aGQEWaOUHsd/Ts5fsk+gLxvou9wNaGgT7K89FePxw9Acx85xZ6gDkiCHg+AiHbDrhEAAFQKGrRtZcqZYNcjZv6MaMRr3f8VQQDuHGQfAzjvZCfOT8C7x2gwa7QaehN7FXS+ytJBZ2Q8MCUK0zPVbudUCnKVH2yUSjJsX5VST4B4Zc8iIroQ7LpC8pZjZgLwDwD3O49t39e4f8OX9TNCUd+e9T2h1Qg4d9WEkkor5AKQ6Xi0ny4wYcnGStg8VnV/sToVA3rZnwzfntRjzVbv6uDMEWqsfzoBChnhwjUziiosSIoRMDRNgYulFiz5Q/B3Gvl0VcqhIb0VU0WH3iaiNhd3tIeQDXMcEamPA3BGHTUv+6Dy/KFzpqCLRD8ep8HUYWpk9FUgJU4Gs4VxvcqKb47p8GWWDiZzy7AHP7k7Bs/eY4+Iu/wv1dh3pnVJd3BvBZ6ao8XYQSrERBFqGmy4UGLGjkO6oO+rsOz+uANP/CBa/N7fA2BOR7/3WyOk41xmHgHgCByeKTZGxdy1N1BRa00NZb1dlbGD1XmbliYOBOB8t1wDcGcwvvdbI6QxgRyex6716AIh9bNVKaUygcw+st2SxEULNX96PjEWzZ0fNLHHFyEPCkVE2wBscqbjooXRG3+WGBQRo7sgEGxftBR7lhLR4ZDXHeoKHCwF4PpnJmaoZsyfER6RqCuwYUnSgWR3sWcbEW1qNUMQCYsBEJEZdn3AtWvFKw/GjhjSR1HgI9stwX0Too7PyFSJB31ur81QE7a4gER0De4iUfTWV5KFaLV3l6VbgbRkeclad7GnFnY3rrDNPoU1MCQR7YFoFZFSRrdvW5maA9x68QkdYk+jh9jzNBGF9akYicig62AXiQAAacmyqasejrvl3M3+/nLyCY2KhooOvUVEX4W7HWE3ACJiAIsBuMLRzZsWPfmukZpbxvH05/Pi9g92V/p2AvhVJNoSkdjARFQLe0wi57tO8ZvFCYOn3qEM6ZxBZ2DpvTEH5093U/qKYXfjCu3mxa0Q0RlvZl4I4CPRIfPBs8asNVurxzYZOfwrLkNIrwR52Z9eSLzSN1UuXjltBDCNiI5Hql0RX/LAzP8Fu8eRGF1xhSX7XLHZVFBuVuiNXWsPA4WM9SDYYjQyeXoPGUb1V8UmxQoj0byO38kzRLTZWxnhojMYgAz2aKWPR7gp4WYNEa1r+7LQEvE7yzHLtQjAaogil3djKmDX+CPe+UAneAKIYeZ+AJ4EcB/svgYJvnN0CRhAGYB8ADtgX9NXG9kmNfP/+2ghsrh4gC4AAAAASUVORK5CYII=;" vertex="1" parent="bCjuTU7vgoYl-bQpV43G-6">
          <mxGeometry x="458" width="61" height="61" as="geometry" />
        </mxCell>
        <mxCell id="bCjuTU7vgoYl-bQpV43G-38" value="pgsql14-xxxx" style="shape=image;html=1;verticalLabelPosition=bottom;verticalAlign=top;imageAspect=1;aspect=fixed;image=data:image/png,iVBORw0KGgoAAAANSUhEUgAAAIAAAACACAYAAADDPmHLAAAABmJLR0QA/wD/AP+gvaeTAAAaj0lEQVR4nO2deWBU1dnGn/fOZJZsk4RJWAMBZAkEIcgWdr9Cq3UpRVFAragVrUpdK3yoWDfUamnV1kq1iFrFWutXK2pV1kRE1uxEAgkBjAkhZJ/MPu/3x53lzpJkksyW5fdX7rn3nnsm571nee573gP0MZh5HjP/jZlLmFnHzNXMnM/MTzLz+HCXr58gwcyLmHk/t4+NmT9h5unhLm8/AcJe8Qc6qHhffMXMM8Nd/mBD4S5AMGBmArAEwGMAMj3Ptxi4qPCU6cKJKjNp1IQRA+W4OE15kSBgiI/sPgfwJBF9G+Rih4VeZQDMLABYCrHiL/Y4bS2rsnz7+Dv1A0vOmi/yvJcIfOlkdd766zWUGCtM8ZH9lwCeIqKvA1/y8NErDMBe8VcAeALeb7zt+/OWAw++XjfoZJVlpD/5zU5XFT6yUmMYlCDzNRbYB+B5Ivqke6WODHq0Adgr/hqIFZ/ucdpcVmU5uP7NuqEnqyxpXcl/5jhl0YYbE/SDEmTT4P2/6hWG0CMNQFLxTwEY53HaXFZlObh2S92wU9WWEYF4XkaaovSZXyRcGJYsnwXv/9k3AJ7rqYbQowyAmaMArADwCICxHqdNZVWWQw+/UZdaUWMZHoznZ6QpSp+4MaEhbaB8Orz/d3kANgL4kIg4GM8PBj3CACQV/xgAzwGcqbjCfGDtlvqLquotg0NRnvRU+cknbko6N3qwfBYAmcfpfADPoIcYQkQbADMrACwHsAHAaI/TxuIK88GH36wbU11nHRT60gHpqVEnn7gpsS1DKATwIoC/E5Et9KXzj4g0AHvFr4L4xg/zOK07fMJ45LG3G8bXNFhTQl44HwxPkZ19+qakiolpUVkA5B6niwC8AOBdIrKGvnTtE1EGwMxKADdDfOOHup+D7shJ45FH324Yfz5CKt6TDgzhGIDnEWGGEBEGwMwxAH4J4GHAXY1zVPwjW+vTa5tsyWEpYCdJ1cq/f3SlpnzaGOVMAEqP0+UQDWELEVlCXzp3wmoAzBwL4DYA6wAMcj+Hln3FhiMb/t5wcaPOlhiWAnaTYVp55WMrNWXTxihnAFB5nD4F4DmE2RDCYgCSiv9fAAPdz6F5X7Hh6IZ3Gic3tloTwlG+QDNUK/9hw0rNyWljlNMBqD1OVwD4I4DXiMgY6rKF1ACYOQ7AXRCb+iS3c0Ddjlx94cb3m6Y0tVo1oSxXqEjWCLWPLk8onpuhmgFvQzgDYBOAzURkCFWZQmIAzBwP4FcA1gJwa85tzHU78wyFT29rzGzR2+JDUZ5wMyBeqN2wIqF4boZqOoBoj9NnAfwewF+JSB/ssgTVAJh5AIA1AO4F4Nac2xgXdubpi556r2GqzsBxwSxHpJIUL9Q9fK2mcNEU9VQieP4PaiC2CC8H0xCCYgDMrAVwD4D7ALg15zZG7fYDuuLn/9k03WBiT+vvkyTGUd3aZQmFi6aoM4ng2Qo6DOEVImoN9LMDagDMnAzgbgD3A+4/xMY4v/2A7thzHzTNMJrZs//rB0BCrFC/7jpNwaIp6ilE8BwH1QL4M4BNRNQUqGcGxACYOQXAAxCbe7e32mrjHz7M0Z3843+aZ5hM7DkV6scHMUpqeeja+CNXzYqZTB5dJ1yG8Aciauzus7plAMw8BMB6iFM6t8q12nD2nZ0tJzZ/1jzHZGFPMaQfP4hTk+7BazSFV8xQjxeIPA3hAsTp4x+ISNfVZ3TZAJj5DoiKlltTZbXh9JYvmive+EI322K1RXU1/35cxKpI98BSTf5Vs6LHC+Q+fYaoI6wmoq+6kneXDICZn4b4Td6JycoVr/+3pfKtL5tnWm1eOng/ASBaQa0PXptw6OpZ6okCQSs5ZQGwgog+7GyenTYAZr4ZwFZJkmH7Qf2Bp95rmGOxcn/Fh4BYtdD057sTCzJGKOfAVYdmADOIKK8zeXXKAJg5CcBxwGl9+ofeqP9ud77ey/W6n+Dz0LXx2SsWxM6XJH0LYHZnHFGETj7zBrgqHy/9uym3v/LDx4sfNs0/fMK4V5I0C0CnFrN01gCudfxR38JH3t7ZMruT9/cTYB7YXDfNZkO1JOm6ztzvtwEwswqihQEAXv64MWKcGvoyOiPHZBcbjkuSFnbm/s60AJcAUACik8YXh/WTO/OgfoLH1i9bpM6wk+wONn7RGQPIcvxR12wrNfaLOxFD0WnTGGY02A/lAPxe3dwlAyg8beq2BNlP4GAG1TVzmSQpq82LPeiMAThHl7vyjX43Mf2EhqNlhhbJYWANgJlHwOWly98ca/X00e8nzOzON8ZKDrPsS+Q7xF/lzmlRJitX1DezX6tsI5WkOAFzJ6owL0MFncGGnCID9pcY0WqM+IU8bfJNiX4skGCD+FJrIS6kOdnRfZ02gIpqSyWAHmcAQ7UyzM8QK33aGCVkkrbvqpnRsNqAogoTsosM2J1vwOmasHtsd4rmVo4zmrlMGUWO1nk2gmEA+4oNPeI1UUQRMkcpMGOcEpdOVmFESvs/VSYAk0cpMHmUAmuujkdlrRU5xQZkFxpw+IQR1ohd3OWivMpSlT48ymEAWQDe7uieDg2AmdUAnHP+XfnGsKzD84eEWAFzJ6gwL0OJrHQVYlRdd3cYqpVh+YIYLF8Qg0adDYdKjcgpMmJPoQEt+si0hq+LDUgf7vwC79dAsMP/EDPPBZAj/o2WGff9oLbZvBZCho3Rg+WYl6HC/AwVJo1UQAiyn7PNBhTau4o9BQZUnIucrmLcMHn5e2tTRtkPrQCSOnIf86cLcAlAOlupzYap3Shjt3E07fMnqbDwYhUGJYbWFoV2uoojJ02wWMPXQ5ZWWkYyUE+i670MwDQAu9q7p1MGUFBmCpgzYmdIjBUwJ0BNe6Bpq6vYW2hAc4i7CmbQhUZrmVYjm2ZPykIADEAiALXGtndhIBmRIsePL1Fj3kQVJgyPAkVOnbeJJkbAokw1FmWqYbYyjp40IafIgC+O6FHXHBpjyC03tyzOdLaKHY4D2hWCmDkNrtW6vO+YKWQC0NlaCw6VGnGo1IhTEdTP+svZ81aUnDGj5KwZ9S2hawl25hmk7vizOhKE2j3JzCsAvAcAJivKs+77YVR71wcT6Tz+kosUkMsiq0kwmhl55eIbvyvPgHMN4flaHqOkluwXB6vhilgyjohK27q+oy7A2YScqjb/ACBkBhCtJDdlrrLWim17dNi2R4f4aAEzxintBqFEfHRn/VoCQ12zDftLjMguMuCbY4Y2lUTP3xJMdEaONZr4pFJBjlhKWQC6bwBfF4VWAPrjnQOQGCtgR64e2YUGfPe9GWwvQVOrDTty9diRq4cgAOOGRmH+JLF1SE8Nrid6ebUF2YUG5BQbkF9ucpZJikDAuGFimRZlqvFtiRG//yh0H1DLqi1VE4ZHSQ3grbaubdMA7AKQM9zq7nx9SCJwSRk1SI7Vl8dh9eVxqKqzYn+J0anbm+3TLZsNKDkr9rWbP2vGUK0MM+2tw6x0JaK62VVIm/adeQbUtNG0K6MIM8cpRU1ikhLaeNf09NuS0C77zy4yCBP8FITaawGmweUB1Hy80r8wq8FicJIMS+dEY+mcaDS12nDwuG9lrrLWio9qW/HRvlaoFYTpY8VKWXixCklx/nUV/jbtUuVx9gQVopWRMS7ZnW8YcudPnYuNM5g5vi1BqD0DkHoAnQi3ACQlPto13XIoc1/l6rEr34Bz9a43VG9iZBcZkF1kwLMftN9V+NO0A67B6OJMdUiUx65QVmVOszHXCURJEGd6MwDs8HWtXwaQVx4eAcgfpMrcQ9do2qxIz64iNVmOuROVaDUwcooNbc7TpWOMxZlqjBwU+WtfmEEXmmxlyRqZYxlZFrpgAE4P4N0FhpAJQN1l1CA5Rg2KxarFsaiut+KbY97jBgA4e96CbXt86wvS/nzBJBUGxIdnltEdjpww6y6b1rEg5NMAmHkkXFG7+Jtjhh7pATQo0TVu0JsYh0uN2JFr8CnTSuXmORNVUCsisG3vBDvz9ZrLpjkXbGcxs+ArYmlbLYDTYoxmPtWos4VNAAoUagVhnl1IMlsZd7x0AfmnTACApXOisf76hB4hN/vLgRLDGIhfBGUQYwyMBfCd53VttW1OAyivtvwQjAKGkygZQSl5w2NVQq+qfMAuCJnRoadwhwaw71jP8ADqLNJRfq/8gQBKK83nJIf+GYCnALQn3xByASgUuBlAL7WAr4sN0vr1uwWYDiAKAJjRdPx7c4/v/33RS+vcjd15emmk9QnM7BWA05cBuAtA3OkVxD0DyWvfW1uA8nOW4TbGBfuhQxByo10DyC03NQepbP2EAGZQTaOlXJLk1Q34MgCXB1CevtdG8GS3v3tpEwAg94RZGkGsfQNg5lGQCEDfloTOAyjU9IVBIADszNNLw8vNsu+45sSzBZAKQOW9JVy7L9xagF5sAAeOm8ZAjCIGiIKQ2zZ7bRpAebW11wlAUnpzpUtpNdpiDCa3peNuYX3aNIB9xSELWR8e+kgXAAAnKi1tCkJOA2DmaEgEoJ35rb520u41cBt/90b2Fumlq2d8GwBEAUgOAMxoPBlmD6Bg01cGgQCwp8AgFYTSmdm5aYdPqfBCk7X3CkB9kFPVlhE2xnn7IUEiCPk0gNyTJmm4kV5JX+oCAKCm3nJKcuisa6kBOAWgnQWGXisAOeA+ZgGHT5ilu424GwAzj4Zr+zbbge96rwDkQvotoPdbwK48vXSzLqcg5GgBJAIQypp6sQDkoC/4A0g5UGqUCkLxANIBHwZQVmWuRh+gL80CAMBg4mi9kaUxg7IAHwaQU9TLBSA7fWwIAAA4XmmqkRyKBmCPKzvJkbq70BARAtAz2xrwdQ9XI5mBTw/qsXVHZHxVzyk0eQlCAjwEoLJKc0QIQKdrLLj3tTrc9acLKKsKfHyAYM8CiipMuGVTLTa8U48LTZERVGpXQetwyeF4Zk6SQ9L814oC0DTvW8PHgeNGrHz+PK6epcbdV8YjITbw+lQgxwDn6q14dXszPj3UGnFjizM11lQbo0YgpMAuCMkhWQF0/HtzRApAFivjo32t2JFrwB0/jcOyeTFugR67QqBnAXoT452dLXjzqxaYzBFW8xLqm21nB8QLKfbDLDmACY6T5dXWiJZ/m1pteOHDRnyQrcMDS+Mxd2LX96EMlD8AM/DZIT1e+rgxYpr69qhptOolS93GywE4PxQIQs8YEDvGBzPHKfHgNRqMHtz5BZuBaAGKKkx48V9NKKwwdTGH0COQ288dIgdggH3Xz1StrEcYgIPujA+4GxYQyf18R2gTZNJQ/wY5gDOw7087dbRyQFhK1Q0CMT7w1ym0p/TzbaFSUGtSjCB1CTsjANjpOIqLponpqVEdRpiORBzjg2XP1ATcm8kxn1/yRA02f9bcIysfAJYviMklgrQF+EqAuAuo4xcJL9yWeMHrzh7E6RoLfu2HfuCvFFxUYcKtfxDn87VNPXejtGiloLvryjipxtMA4BOBiAoA/MOROniAfOadV8TlhLyEAcYxPnjm/QY0+AjU2NEs4FyDFY+/04BVm2pRcKrnDPLa4tV7Eo/KBJKqvI8Skc7RW64BcNZx5vbL4qZnXqQ4FtISBgHH+ODnT9Xg/b06t5j/bY0B9SbGXz9vxpIna7D9YM8b5Pnitp/E7p+UppwnSdoL4DXA/jGIiGoh7grqiGem2rxmQEJiHNWFtKRBwjE+uG6ja3zgKQUzAzty9bj26Z7dz3uSkaYovevKeOkej9UAVhKRFfAIFcvMvwLwquP4QpPt6GWPVU+OpP0BAsH8DBWOnTE7+3RHxLCSs+ZwFivgaKJlDV9sTGmKkpHjG4AZwI+IyNnFe8XFYOYtAG5xHO/I1e9Zu6V+YbAL209gIQJ/8tuBBwcnyaSbSf+aiF6RXudrxnwXgKOOg0WZ6gU/nxNzIEjl7CdIPHtL0l6Pyn/fs/IBHwZARAYA1wDOdeX0yPWacWkp8jPBKWo/gWZRpvro4kyVdND3HYDVvq71qZkRUQWAVQBs4jES3lubbFApqNXX9f1EDkMHyH549paENLjCxTcDWEpEPr1S2hRNiWg7gI2OY6WCxr79UHJuAMvaT4BRysm4bV1Koz1ELCDOcG8lopK27ulINX8cwH8dB6MHy+esuSo+u/tF7ScY/O1+7cEYFaVLkn5HRB+2d0+7BmCPLHkDAOeqklU/jp05bawiv1sl7Sfg3PLj2H3pw6Ok/f5uAI92dF+H382IqA7AUgB6e5LyL3drk5PihB79zaA3kZGmKL3nqnhpNPdqADcQUYfOlH59OCWiPAD3OW8SMOSD9SmnBQE99+tIL0ETLWt4474BagBqe5IZwDIiqvLnfr+/nBPRXwFscRwnxgpTX/xlUo//aNRVdj03CNufGNjxhUFEINj+sV57MkpGqZLk+4noa7/z6OQz7wZwxHGwYJJqwbJ5Md92Mo9+AsSztyZlJ7s2iQSAbUT0587k0SkDkIhEtY6ktcs06SMHycvbua2fILBoqvrooiluYk8hgNs7m0+nvYCJ6DSAlRBDkYMImnd/k2ztF4lCxzCtvPLZVV5iz3VEpGv7Lt90af8TIvqKmZ+GqBNAqaAx7zyU/M2yjTWzO7g1IIwbFoX31iZj+4FWvPZZM+77eTxmjFUiSk4oOGXCKx83tfllb85EFX7xoxikpyoglwEV5yz4eH8r/vm1DjYfXt1LsqKx8tJYpCbLUNdsw6cHW/H65+FbPqFQkGHbuuQmgWioPYkB3EJEXnsB+EN31gE8CeBzx8GowfLZ9y4JrUiUGCtg64NapKcqsO+YESVnzJg5Tom/3a9FRprC6/oVC2Pw8p1JmDJKgaLTJuwvMWKYVo6Hl2mw8eZEr+tvvzwOj61MwJABMuwrNuLYGTNWLIzFs7d4XxsqttynPRytdBN7niOif3U1vy7vgERENma+AcBh2HcU/cWPYrMOlpoK9h8zXNz+3YFhzkQV9hQYsG5LvXM/oCtnROOJmxKwYWUCrn+2xun4MSJFjvuWxENnYKx+uRbf2VuIpDgBr9+rxeKpauQUG/DpQVHuGDlIjtWXxaGu2YZVm86jslac8Q5JkuHNB7XQxAhoNYZ2FnzXlXE56aleYs9j3cmzWyuBiKge7iJR1Mt3JCYnxcnOtXNbwLAxsOmjRrfNoLYfbEXBKRNGD5Zj8ihXK/CzrGjIZYT397Y4Kx8Q9wh86d/ipmjXzXM5zF49KxqCALy1o8VZ+QDwQ50Vb34Z+i7g4jTF8dt+Eicd8X8P4HqHZ09X6fZSMCLKB3CHM0OBBn+wPrlKJiDoW35/d9aMygvev/+rXNEeJ490GYDj7y+PeruM5xQboDMw0ocroJCT2/U78/Re1zvyDxWaGKH+jfu10XAXe5YT0fl2bvOLgKwFJKJ3ALzhOE6MFaZsWp3ktxjRVaSbREqprhPTkzUuTzatRvypVXXedskMVNdbIRPgXF2kjZfBxvC5VWxds82t1QkmAsH2j/9NLpMJkIo99xLRvoDkH4hM7NwDcTwAAJg7UbXg+vmx+wOYvxdtVYFjAyip4yd5e7/1CH53m5fY8x4R/SVQ+QfMAIjICA+R6DfXxk8aOzR4ItGgRN++qgPt6ReaXW/v+Ubx78FJ3uNeIjEvqw3ONQS1TVYIBKQkeD8jKU7o9qbU/nDlzOhDl05WzZckdUnsaY+ALgcnojMAlsMlEsVufTDZqlZQUEZN44dFYUiSdwUtyhS7yvxy14IOxx6Bi6d6LymfPUGFGBWh5IwJJovYbDgWg/zPZLXX9YszvdMCzTCtvPK3NyaMhquOHGJPQAW3gMcDIKKdEDUCAIAyisa8uza5INDPAcR9fe9fqoFc8jZePk2NySMVOFVtQZ7EAD7e3wqLlbF8fgzGDnVtHJ0QK+Den8UDAP6Z4/rf/ufbVthswC8WxWDoAJeRDUqU4eZFwd1J1yH2ECD17FnVVbGnPYLSjjEzAfgIwBJH2rY9LXtf/FfTgkDk71AC9xUbMC41CkaT+IYPTJThkosUMJkZd77i2hnUwYqFMXjoGg3MVsbB4yboTTbMGKtEfLSAr47qse7Nerfr7/xpHG6/PA56E2N/iRHMQFa6EgePG5E5WoFWI+PKxwM/431vXfLX44ZGzZUkPUNEHTp3dIWgRAQhIgZwK+DauXLFwtjZcycoAtoS1LfYcOumWhyvNGNehhITh0fhUKkRv3yp1qvyAWDbHh3ufa0OBeUmZI5WYP5EFarrrXjhw0asf6ve6/rXPmvG09saUFVnxbwMJTJGROGDbB3WbfG+NlDcu0ST7VH5u2CX3INBUEcyzHwxgP0AogHAxqi5YsM51DRYU9q/s32k3wIe/3tDIIoaEUwbqyrevCbpIgBKe9JZAJcEYr7fFkGNCWRfeez0RxcIKe+vS66UCdS71mAFAE2MUP/q3UnxcFV+wMSe9gh6UCgiehfAZsexJkbIfPnOpICIGL0FgWD7wFvsWUNE3wT92cF+gJ01AJw/Zla6csHyBcEViXoSL64ekK11F3veJaLNbd4QQEImjzFzKkR3smTxGLobfne++vj35j4Qmr5trp4ZfejxGxMugetlLACQFej5fluELC4gEZ2Fu0gUs/UhrRCj8r1kqS+QqpV/v8Fd7GmAuIwrZN5VIQ0MSURuUxqFjEa+uzYlH30nYLcTu9jT4iH23EpEZe3dF2jCERl0I0SRCACQqpXNXXedps8tN3vrAe1htZLGS5KeJqL/C3U5Qm4AdpHoNgDOcHTL5sXMvnSyus8sPP3NMs3ese5iz5cAfhuOsoQlNjARNUCMSeTo66JeuC1xbKCVwkhkzVVxOcvnx0i/8J2GuIwrLIGGw/qRnJlvAvC2JMmcU2Tc98jWumk6Iwf3i0uIGZwor3r1nqRTw1PkUs9pI4B5RHQoXOUKu5cEM/8J4oojKa2nayx5x06bTWXV5ii9sWdtYhklYz0Itji1TJ42UIYpo5TxA+KFyYBXsK3biegNX3mEikgwABnEaKU3hrkooeYRItrY8WXBJexvlt2rdRWA9RAjl/d2aiBq/GGvfCACWgApzDwCwM0Aroa41iB8KzACBwOoAnAcwIcQffoi5hPm/wPGWaFVK+DsHwAAAABJRU5ErkJggg==;" vertex="1" parent="bCjuTU7vgoYl-bQpV43G-6">
          <mxGeometry x="458" y="87.5" width="61" height="61" as="geometry" />
        </mxCell>
        <mxCell id="bCjuTU7vgoYl-bQpV43G-39" style="edgeStyle=orthogonalEdgeStyle;rounded=0;orthogonalLoop=1;jettySize=auto;html=1;entryX=0.5;entryY=0;entryDx=0;entryDy=0;" edge="1" parent="bCjuTU7vgoYl-bQpV43G-6" source="bCjuTU7vgoYl-bQpV43G-37" target="bCjuTU7vgoYl-bQpV43G-38">
          <mxGeometry relative="1" as="geometry" />
        </mxCell>
        <mxCell id="bCjuTU7vgoYl-bQpV43G-31" value="" style="edgeStyle=orthogonalEdgeStyle;rounded=0;orthogonalLoop=1;jettySize=auto;html=1;" edge="1" parent="bCjuTU7vgoYl-bQpV43G-2" source="bCjuTU7vgoYl-bQpV43G-27" target="bCjuTU7vgoYl-bQpV43G-24">
          <mxGeometry relative="1" as="geometry" />
        </mxCell>
        <mxCell id="bCjuTU7vgoYl-bQpV43G-32" style="edgeStyle=orthogonalEdgeStyle;rounded=0;orthogonalLoop=1;jettySize=auto;html=1;entryX=1;entryY=0.5;entryDx=0;entryDy=0;" edge="1" parent="bCjuTU7vgoYl-bQpV43G-2" source="bCjuTU7vgoYl-bQpV43G-25" target="bCjuTU7vgoYl-bQpV43G-1">
          <mxGeometry relative="1" as="geometry" />
        </mxCell>
        <mxCell id="bCjuTU7vgoYl-bQpV43G-33" style="edgeStyle=orthogonalEdgeStyle;rounded=0;orthogonalLoop=1;jettySize=auto;html=1;exitX=0;exitY=0.5;exitDx=0;exitDy=0;entryX=0;entryY=0.25;entryDx=0;entryDy=0;" edge="1" parent="bCjuTU7vgoYl-bQpV43G-2" source="bCjuTU7vgoYl-bQpV43G-29" target="bCjuTU7vgoYl-bQpV43G-1">
          <mxGeometry relative="1" as="geometry">
            <mxPoint x="208" y="71.5" as="sourcePoint" />
            <mxPoint x="300" y="330" as="targetPoint" />
          </mxGeometry>
        </mxCell>
        <mxCell id="bCjuTU7vgoYl-bQpV43G-34" style="edgeStyle=orthogonalEdgeStyle;rounded=0;orthogonalLoop=1;jettySize=auto;html=1;entryX=0;entryY=0.5;entryDx=0;entryDy=0;exitX=0;exitY=0.5;exitDx=0;exitDy=0;" edge="1" parent="bCjuTU7vgoYl-bQpV43G-2">
          <mxGeometry relative="1" as="geometry">
            <mxPoint x="53" y="71.5" as="sourcePoint" />
            <mxPoint x="328" y="350.5" as="targetPoint" />
            <Array as="points">
              <mxPoint x="23" y="72" />
              <mxPoint x="23" y="351" />
            </Array>
          </mxGeometry>
        </mxCell>
        <mxCell id="bCjuTU7vgoYl-bQpV43G-35" style="edgeStyle=orthogonalEdgeStyle;rounded=0;orthogonalLoop=1;jettySize=auto;html=1;entryX=0.5;entryY=0;entryDx=0;entryDy=0;" edge="1" parent="bCjuTU7vgoYl-bQpV43G-2" source="bCjuTU7vgoYl-bQpV43G-8" target="bCjuTU7vgoYl-bQpV43G-18">
          <mxGeometry relative="1" as="geometry" />
        </mxCell>
        <mxCell id="bCjuTU7vgoYl-bQpV43G-22" style="edgeStyle=orthogonalEdgeStyle;rounded=0;orthogonalLoop=1;jettySize=auto;html=1;" edge="1" parent="bCjuTU7vgoYl-bQpV43G-2" source="bCjuTU7vgoYl-bQpV43G-19" target="bCjuTU7vgoYl-bQpV43G-21">
          <mxGeometry relative="1" as="geometry" />
        </mxCell>
        <mxCell id="bCjuTU7vgoYl-bQpV43G-41" style="edgeStyle=orthogonalEdgeStyle;rounded=0;orthogonalLoop=1;jettySize=auto;html=1;" edge="1" parent="bCjuTU7vgoYl-bQpV43G-2" source="bCjuTU7vgoYl-bQpV43G-38" target="bCjuTU7vgoYl-bQpV43G-40">
          <mxGeometry relative="1" as="geometry" />
        </mxCell>
        <mxCell id="bCjuTU7vgoYl-bQpV43G-7" value="S" style="swimlane;startSize=20;horizontal=0;html=1;" vertex="1" parent="bCjuTU7vgoYl-bQpV43G-2">
          <mxGeometry y="670" width="770" height="110" as="geometry" />
        </mxCell>
        <mxCell id="bCjuTU7vgoYl-bQpV43G-16" value="ray-cluster-vc-2" style="shape=image;html=1;verticalLabelPosition=bottom;verticalAlign=top;imageAspect=1;aspect=fixed;image=data:image/png,iVBORw0KGgoAAAANSUhEUgAAAIAAAACACAYAAADDPmHLAAAABmJLR0QA/wD/AP+gvaeTAAAdoklEQVR4nO2deXxU1fn/P8+dPTPJTJJJwpJAWAIEEvZ91RZs+3L5+lVAxI2qta3Ky12oKNa2bq21ta1tbZVSrVqtte33y6/fKrILGNYkECAJSSALCSF7Mpn9nt8fd5Z7ZybLJHNnAsz7H7jbuSdzPvfcc5/zPM8BrjIYY0sYY+8wxk4zxiyMsQbGWBFj7EeMsUmxrl8cmWCMLWeMHWS9wzPG/pcxNifW9Y0TITwNX9BHw4diO2NsXqzrLzcU6wrIAWOMANwM4DkAMwKPd9nYyRNVjubyeicZdYTRGUpMzdaM5ziMCFHc/wH4ERF9JXO1Y8IVJQDGGAfgFggNPzXgsLui3vXV8++1ZpyucY4PvJYI7NppusJnbjNSsoGbHqL4zwH8mIi+jHzNY8cVIQBPw18P4AUEP/F87SVXwRN/bBl2tt41pj/lLczVnti01mgbZlKEGgvsB/AqEf3v4Go9NLisBeBp+FshNHxuwGFnRb3r0DN/ahl5tt6VPZDy503UnNx8p8k6zKSYjeDf6ooQwmUpAFHD/xjAxIDDzop616ENW1oyqxpcoyNxv7xsddmLd5uaM9OU8xH8mx0A8MrlKoTLSgCMMRWA2wFsAjAh4LCjot51+Om3W7LONbpGyXH/vGx12Qt3mtqyM5RzEPzbFQJ4CcAnRMTkuL8cXBYCEDX8cwACB3COknPOgg1bWsfXt7qGR6M+uVnKsy/clXJx3HDlfACKgMNFAF7EZSKEIS0AxpgawBoAmwGMCzhsLznnPPT0n1pyGlrcw6JfOyA3S3X2hbuSexLCCQCvAfgLEfHRr13/GJIC8DT8OghPfGbAYcuRcvvR595tm9TY5k6PeuVCMCpdUfOTu1LOTclWLQCgDDh8EsDPALxPRO7o1653hpQAGGMaAPdAeOJHSo/BcvSs/eiz77ZNujREGj6QPoRwCsCrGGJCGBICYIzpAdwP4GlAao3zNvymra25TR18WkwqGCZZZmXts2uNlbNzNPMAaAIOV0IQwhYickW/dlJiKgDGmAHAfQA2AhgmPYau/SW2o5v/0ja13cInx6SCgyTTrKx7bq2xYnaOZi4AbcDhKgCvIMZCiIkARA3/AwAZ0mPo3F9iO7b5vfZp7d1uUyzqF2lGmpUXNq81np2do5kDQBdw+ByAXwL4PRHZo123qAqAMZYI4EEIXX2K5BjQ8sVx64mX/toxvaPbbYxmvaJFmpFrenaNqWRxnnYugoVQDeB1AG8RkS1adYqKABhjSQC+D2ADAEl3zjPWsqPQduInH7bP6LLySdGoT6xJTeKaNt9uKlmcp50DICHgcA2AnwP4AxFZ5a6LrAJgjKUCWA/gEQCS7pxnaN5RaD354w/aZlpsLFHOegxVUpK4lqdXGk8sn66bSYTA36ARQo/wKzmFIIsAGGNmAA8DeBSApDvnGZq2FVhKXv1bxxybgwWq/6okOZFaNqwynVg+XTeDCIG9oFcIvyai7kjfO6ICYIylAXgIwGOA9A/hGS5tK7CceuXjjrl2Jwt8/8UBYDJwrRtXG4uXT9dNJ0LgOKgJwJsAXieijkjdMyICYIylA3gcQncveardPLvwyT7L2V/+T+dch4MFfgrFCYFeQ11Prkw6euN8/TQKeHXCL4RfEFH7YO81KAEwxkYAeAbCJ52kcd08at7b0VX+1r87FzlcLNAYEqcfJOrI8sStxhPXz9VN4ogChdAM4fPxF0RkGeg9BiwAxth3IVi0JF2Vm8f5LZ91nnv7M8tCl5tXDbT8OH4MWrI8foux6Mb5CZM4kn4+Q7AjPEBE2wdS9oAEwBj7CYQ5eR8ONzv3x/901f358855bj7IDh4nAiSoqfuJlabDN83XTeEIZtEhF4DbieiTcMsMWwCMsXsAbBXtsm07ZC348Qdti1xuFm/4KGDQcR1vPpRcnDdaswj+NnQCmEtEheGUFZYAGGMpAEoBn/qsT77demZXkTXI9TqO/Dy5Mmnv7csMS0W7vgKwMBxHFC7Me94Bf+PjjX92HI83fux47ZOOpUfK7XtEu+YDCCuYJVwBrPT+p7WLHX13R9fCMK+PE2Eef6tlNs+jQbRrdTjX91sAjDEtBIUBAH71r/Yh49RwNWOxM/3eElupaNc14VwfTg8wC4AaEJw0PjtinRbOjeLIx9bPu8TOsPkeB5t+EY4AFnj/09LJl9njxp0hw8nzjhzG0ObZVALod3TzgARw4rxj0CbIOJGDMVBLJ6sQ7VrQ48kBhCMA3+hyZ5G9311MnOhwrMLWJdqMrAAYY6Ph99JlB051B/rox4kxu4rsBtHmAk+IfJ/0twfwKcrhZudaO1mgPTpOjDlw2joBgDcAxYzgQJqQhC2Acw2uuvCqFicadHazRLuTVYl29ctGE7YA9pfYhny829VKZb2rXrTZr3FAnwJgjOkA+L75dxbZYxKHF6dvviyROBNHRgCQGoC6ztQ6xoZftTjRYFexVRxVlefxxu6V/kzf+g1AFr6M5zFzIJWLFqlJHEakKGHUczAZOJj0HIx6DhwBSgWQoBE0r1ERNB53FauDwekCDpy2YVeR/ymaN1GD1CQObRYebV08Wrt4tFt4dNuH5luwrM41hgGtJLjeKwDMBrCzt2vCEkBxhSNizogDJTWJw4SRKmSalcg0K1BR78L/fOV3ln3gm4lYuWRgZoqWLrdEAKuX6nHN1GA3xo5uHrVNbtQ2uVDn+bfmkgtnap2wxHCIxBioud1dYTYqZnt2LUAEBCAyAHUbejsx0qiVhKlj1MjLVmHKaDWmjFIhI1kahr+72CYRQFv3wEPxnQEReiZ96DdkUgKHyaM4TB4l9XjjGVDd6ELJeSc+2mtByXnHgOsyUI5XOrtWzPD9Rn2OA3oVAGMsG/5oXbb/lEN2A5DJwGHxFC2W5mmxIFeDBE3v9owRqVJBtFsGIwDp05vUgwB6giMgO0OJ7AwlPjsqdeGfNlaNslonrA55e4gdhbakFTN8vdZ8xhj15iDSVw8gMgChqt3CyzYAzMtW457lBlyTrwUXxu8+MlX6J1Q1uLD9mNX33m6zCO9tpxtgjKHLKvwWDheDzdMYCVoOSg6oviTtAj7c3YXhKUqY9BySDZxvXJGZqoBa1bswT9c4ff/Xqgm/fzgVPAO2FXTjvZ0W1DbJExB8oMQ6ATC5IYwBUgHkACjr6fx+C6CqwXkBgCwCWJCrwW8eTO3XuTWXXCipdqKq3oXaZhdqm9wgAphH4wdP23HwdGSCbD/dHzoQhwhIMyqQaVYg06zESLMCOSNUmDJaBXOSAo1tbrR0+nuiWTkan2BWLtHjlkV67Ci04s1tnai5FFkhWOzMYHewsxo1eXMpLUAkBPDlSflGN4fLHLjY5kaGSdqdu3ngeIUdh0odKDnvwKlqJzoG8Y6PFIwBjW1uNLa5ceys9D2fYVIgPeDvWDRZOnPOccCKmTosztPi5Y/a8P8ORTb0r6LBVT95lEosgD/3dG6PAvAYgHzpVncVWWXLwOVyM/xtnwUP35gEl5th9wnhc+zAKfuQaPBwuNjmxsU2qbNUYYUD44YrMTtHKgSdmvDCnckgImwriFzY396TNk40QO11INjji4wxtgTAXuH/6Jz76IUEng/KhDUgpoxWQaUkFFb4nx6TgcO3Vxjw4W4LGlqvTG+ziZkq3L3cgBUzdFCIxjnddob/euGi5LUxGMaPUFV99IM0b1pcHkByT/GEvQ23xB5A5ZFqfAC4ZZEef3zEjI2rjTAnCcW2dfH4xT86rtjGB4DSWic2bW3F3a9dwoUW/9+ZoCEsnxG5eNmKemc2z1iLZ5MDMLenc/slgMLKyBqARqcrwRGwaoken72Y4RPB1cKZGid+8anUqWp0euRiahgDNXfw/fIQ6k0APg/gXcW2iBqAAj/zfv6dZIxIuXpEkJ+txpMrpdHfinAd9PvgaLlTHDAangAYY2Pgz9rFDpyyyWoAystW4+NN6Vh/UxLSjFeuEPKz1fjZ/SnY8rg56Isn0uwosooVtsCTYDuInvodn2LsTiarAciLTk1Yt8KAO7+mx/5TduwptmFfiS1iA6NYkZWmxLJ8Lb42XYtpY9RRu2/BaVsOAK9ByAQhufaZwPP6FEBlg0s2A1AolArCsnwtluVrwTPg5DkHCs7YUVLtREGpHQ7n0JyJ8zIyVSHMW4xWYeFkLcYOi028rMXODHYnyjQqX1b1BRiIAPafknd6i+eB4ioHpo8Lfjo4AqaOUWPqGDUYA762scEngJGpCszK0aC2SbAGNrZF7+tBwQHDUhTIMCkkhqDVS/XYsKrvDHcuN8PRcgfmTZI3tKKsznkxP1slFsCfAs8JEkCgAWh3kU3WFOxuxnDfL5swO0eDVUsTcE2+FkpFsHniQotbYhSaMU6D5+/wJ81wOBnqmt1otwj2f/EcfredR5eVgWfCj19+wYm6Jr9gpo5RQ6cmGHQEIvL4DZBg+9f7fQqMeg6piQpkJHNQKgg8Dyx8vB5OtyDK8jq//T8UFhvDPw9a8MEuC4iA59b663/uYuTnBr4ssXH52b0bhEL1AHMAqACAMXSU1jqj0v0fKbfjSLkdOjVhzgQNls/QYUmeBkkJwtjlTI30xw2cBVSrCGP62d3+dlsn3vms07f97O0mjBseflfNcUBGssI3sVNW5wTPhJ7LS0snj4On7fjiuBVfnbHDIZpxfPA3zWHfMxx2FVozv3+9L/vcZMaYMTCvUKi/WmoAYpglYx2DsDoY9p60Ye9JG5QKEnwBRqlR1yx9QgIFEA6OgGnfwGngcBhp9gvAYmPYd9KG1i4ep847cOKcE+UXnL6JqmhTedE1imdo5gip8BuEJKlkehXA8UpHZ4jjUcPlZiiscEhMxl62H7ehqZ0XZuTSlBiZqvD1Fn0R2ODeLry/tHTyqGlyofaSO8j/4PE/tPRwVfRhDNTY7qocZlJ6p1oXoB8C8HsAFVplyeD5yT4L9p4QXK/cA/zK219iw36pFyy0av97O9ng9wnUqgmJOr8vYOC7emehDeV1LnTbebjcgmePxcbDYmNo7ZL6FbRb+KAeZCAkJXBY7nfcQGWDK6TQB8vxcqflW3N8zRw0DpAIgDE2FiID0Fen5fEA+vdheTKf2hwMNocbF8OcT3h3R1ffJ0UYcxKHTWv8g8C/7bPIIoAdhVbTt+b45hnmM8Y48RI2gX2m2ABUeaWka7+aKSh15EDIIgYIBiHJMns9CqCywX1B3qrFiQbddl5vc0hCxyUhY4FjAHEImGyVume5AZlm4dZunuGVj+PpBuSkvM51MX+MyvvkLwDwjveYTwCMsQSIDEA7irpDraQdEZZN9dvFne64AORmz0mrIn9MaIOQ+BUwBx5BMIb2s3X9W2g5ztBnd7FNvPReLmPMt2iHWAA+ZTR3uMt5FnYKuThDlKoG12ie4ZJnkyDyEAopgONnHdH/LoojK42tLnHuAF9biwXgMwDtKLZdlUu4XMkcKXeK3Y6lAmCMjYN/+Ta+4Iz8IWBxosvOQqt4sa75Xg8hbw8gMgChoiNuALriKCiziw1CSQBygRACqKh3NkBuRKZ0jijiDpGXAypldNfstDlYgtXOzop2LQBCCGDfSfnXLBR77yg44MlbjVeVCDgOeORmafKOaMRDlNY5GkWbggA8eWXzvXt3nbDJZgDysrtYKrLVS/V476k0zJfZRWqowPPAJdFDwPPwzY7Kyb4TDrETha8HkBiAKuqcshuAPj9mxeEyaQTvxEwV3nwoFc/efuUNPyZmqnDvdQZJL/fzTzt8Hs8f7O5CZYP860fvLO4eJdqcxBhLUULU/TcJBqDZwZdGFp4BT/yxBa8/kBIUMBkojDXL9Civc+J0jXPI5uYJJNnAYcpoNRZO1mBpnhbDPUEv1Zfc+OK4MBXe0c3j1b+1Y06OGm/8MzqZd6ob3Vk8QyNHSIfHIKSEKAKotNYZNQOQxcbw/d80485rDbj/m4nQawkd3Tx2iV4P5iQFnrzVCCJBNFUNLpyudqCk2onKehfqml242OoGHyNdqBSE4SkKZKYpMH64kB9g8mh1j1FOty/T+wQAAF8ct0q2o0FrJ1+TmsSlezYXKAFM9h6sbHBHdSjG84Izxr++6sbaa/VwuiDx+184WQPyDJY5AsYNV2LccCVuEC2K4nQzXGh2o/aSCxda3D7vndPVThRV+R0sEnWcr6xOKx/kp6fgAL1W+PN1aoJaRT5P4MNl/niEscOUeGqlEZlpSgwzKcLKZjJ9nBo5I1V9eg/LSWO725qa5Kv0JCUA30QBxyEmz1K7hcfvtgW7HwYmVgiFSkEYna4MCq786x6LRACv3peMeROl5TlcDAqu78/Qm3/U6Mvk4XQDcyeGN1g93+jCnhM27C62xbTxAYAjSRuPUAKwwbPqZ5ZZMaResn/a3oWz9S5MGSVkCUtJ7P/jFuisqQoRa6Du57e4Uc+hxjOV0tDiBs8HB7iKqWtyo6TagZPnnPiyxIbzjfIP8PqL2aQQ59CzKQFUw7M+7cxxmv4l6okSZ2qckniAjGQFpoxSYWKmP09gplkJkyG4NQIzi6gGEaFlFGULc7oZGtuFdDaX2t2+fIHVl1worXWi5LxzUJnK5ESrpu4UPSd2CatWAtgBjyNIYgJNyc1SnT1d4xwfsoQYc7FVcPjcWST9ZjboOIxMFXLzeL2Cjwc4WJ5vdEGpIBDg9xBWC17JLhfAM4YuTxSc3cFgdzF0Wnm0dfKSb3YAeOCNJlzq4Id8nGIga5bpjxNhkWjXdmKMTQVQCE+6mPpmV8ENP2wMa+25OEOfBA1n2f3TjHYFR15DXxuATI6IigF85D1xeKpy3veuT9wXk1rGkY3fPpx8TNT4APAsEVm8L7f1AGq8R77zzcQ5M8arT0W1hnFk475vGA7mZ2uWiHbtAfB7wDMZRERNEFYF9ZrhtG+tTzUlJ9LQiXOKMyDystVlD96QJF7jsQHAWiJyAyKPICI6BOAx77aCoxEfbcw4x3G4ctN2XeEYExRtbz+aqgWQ4NnlBLCaiHwxH5LvJyL6HURJBFKTuJkvr0uOjwcuQ4jA3t9gLlUpSDwB9AQRSdozlDnjQQDHvBvLZ+iW/fcifYFM9YwjEy9/O2XP8BSF+Gvur0T068DzggRARDYAtwLwZi+gTbcZJ2anK6vlqWqcSLN8hu7Yihla8aDvDIAHQp0b0qBJROcArINnHToimD7YkGbTqilyCW3jyMLIVMWFl79tygZ8mV07AdxCRCFzPfRo0SaibQBe8m5r1DTh3SfTjkewrnEijEZJ9g83prdzRN6FPRmAe4nodE/X9DW78jyA/3g3xg1XLlp/Y9LewVc1jhy885j5kF5LuaJdPyWiT3q7plcBeBIJ3AHAF1Wy7jrDvNkT1EWDqmmciPPt6wz7c0epxO/9XQCe7eu6PudXiagFwC0AvK4rmt89ZE5LSeTkTXEVp9/kZavLHr4xSbycXwOAO4ioz3nofk2wE1EhgEd9F3EY8fEz6efjRqLY4zH26AB488A4AawiovpeLvPRbw8LIvoDgC3e7WQDN/O1+1PiRqIYwhH4j54xn1UpKEu0+zEi+rLfZYR5z4cAHPVuLMvXLlu1RP9VmGXEiRAv35uyN82/SCQAfEhEb4ZTRlgCEBmJmry7Nqwy5o4ZpqwMp5w4g2f5TN2x5dMlxp4TAL4TbjlhewET0XkAayGkIgcRjO8/leaOG4miR6ZZWffyuiBjz2oisvR8VWgGHKHIGPshBDsBAKCy3nVg1UuNC3u+IvJMzFThgw1p2FbQjd//uxOP/ncS5k7QQKUkFFc58Ot/dUgWcJwxTo23HzXji+NWbNjSGrLMvz+bjqw0Ja7b1IC2Lr9v39hhSqxbkYg5E9RITuTQ2smjtNaJv+/vjko8pRe1mmw7XhpWlaDxfe8zCIO+vw+kvMHEAfwIwP95N8YOVy585ObYGImSDRy2PmFGbpYa+0/ZcbraiXkTNXjnMTPysv1p6AsrhfUJF0/RQqcO1n7OSBWyM5Q4VGqXNP6SPC3efzoN18/VoaObx54TNtQ1uzFzvAZ3fT2qyyljy6PmI6LGB4BXBtr4QP8Wjw4JEfGMsTsAHIFnQYm7v25YcKjMUXzwlG1q71dHlkVTtNhdbMPGLa2+vL83zE3AC3eZsHmtCbe93AjGhAUfvzhuxR3XGrA0X4vPjkqjcq6bKXxJfX7Mvz81icOL9ySD44Cn32nBjkL/065TC4tbR4sHb0jcl5sVZOx5bjBlDioSiIhaITUSqX713eS0lETFxcGUGy48A17/tF2S9HnboW4UVwkLNk4b62+kz48JDbgixDJtK2Zo4XQzyRLyty7SQ68l/ONAt6TxASGzeUFpZJap7Yup2erS+76RKB7x1wK4zevZM1AGHQpGREUAvusrkKPhHz+TVq/gELVoiDM1TtQ1B/8O2z1xd+K1ek6ec6Cu2Y1Fk6Urk+dmqZCVpsTB03Z0Wv3d/+wJQhTQvw7Gboxr1HOtbz9mToDU2LOGiC71clm/iEgsIBG9B+Bt73aygZv++gMp/TZGDJaekkM3eBZnDFyJbPsxK9QqYW0iL9fN8nT/Aa+FdKPwE9U2xcboyRH4j36QVqHgIDb2PEJE+yNSfiQK8fAwhPEAAGDxFO2y25YaDkaw/B7pKTzDGwwaGAjqfcd7Gx0QXgkOJ8OegEQNFN1MLkH89L4gY88HHte9iBAxARCRHQFGoqdWJuVPGCm/kWhYcuhw7AzP/uZO6dNbWuvE+UYXFuRqYNBxyM9WY3iKAvtK7EE5CLy9y0hz9NczvGFewuFrp2mXinYNyNjTGxENByeiagBr4DcSGbY+kebWqUnWvAOTMlUhY/K96/EWVYZYceSYFSoF4Zqp2pCjfy+Hy4Vrb5qfEHRMTjLNyrof3mkaB38beY09ER2MRDwfABHtgGAjAABoVJTz/oa04kjfRwzHAY/dYpSsNvat2TpMG6NGVYMLhSEE4P0E/MZMHZbP0MLqYCENOv/Y341uO8MtixKwNE8rOaZREWblRD6vkVpNtg83pnUQIPbsWUdEQev+DRZZ3nCMMQLwKYCbvfs+3N2157W/dyyL5H28lsD9JTZMzFLB7gCKqhzISFZg1ng1HE6G7/26WZInQMzHz6T7Vgv7z1ErNm0NbR28ZqoWr9ybDJWCcKbGiXONLqQmcpiUpUJZnQsPvNEU8rqB8sHGtC8njlQtFu16kYj6dO4YCLJkBCEiBuBeAL6FCm6/xrBw8WS1LD1BaxePe19vQmmdE0vyNJgySoXDZXbc/0ZTj40PSEf820N0/152F9tw98+a8PkxK9JNCnx9uhaj05U4XuHAn7+I7NvtkZuNewMafydEJvdII+sY1xN5fBCeyBSeofH6zRfR2OZO7/3K/iGeC3j+L22RKDKmzJ6gLXlrfcp4AN73Sg2AWZH43u8JWXMCeSKPff7oHCH9rxvT6hQcxTZPyhDEqOdaf/tQShL8jR8xY09vyJ4UiojeB/CWd9uo52b86nspETFiXClwBP7jYGPPeiI6IPu95b6Bh/UAfH/M/FzNsjXLomMkuhx47YHUvWapsed9InqrxwsiSNTsXIyxLAjuZGnCNix3/PRSQ2mt86pOTX/TvITDz99pmgX/w1gMYEGkv/d7Imp5AYmoBlIjkX7rk2ZOrw0dsnQ1kGVW1m6WGnvaIIRxRW3mKaqJIYlI8kmjVtCY9zekF6Fnc/4Vi8fY0xVg7LmXiCp6uy7SxCJJ+0sQjEQAgCyzYvHG1carLtzsz4+bj+g0NEm06ydE9I9o1yPqAvAYie4D4Fu8YNUS/cJrp+mumsDTp1YZ90yQGns+B/DDWNQlJss0EFEbhJxE3ned6mf3JU+Qy1I4lFh/Y+K+NUv14hm+8xDCuGKSXTKms92MsbsAvCva5dx30r5/09aW2RY7i663pcwMT1bW//bhlKpR6Uqx57QdwBIiOhyresXY3QFgjP0GQsSRmO7zja7CU+edjooGp8pqv7wWsVQpmBUEPlGnUGZnKDB9rCYpNYmbBr8fv5fvENHbocqIFkNBAAoAWwHcGeOqRJtNRPRS36fJS8yfLI9X6zoAz0DIXH6l0wjBxh/zxgeGQA8ghjE2GsA9AG6CEGuQ3PsVlwUMQD2AUgCfQPDpGzJTl/8f6BlSbwj/KqwAAAAASUVORK5CYII=;" vertex="1" parent="bCjuTU7vgoYl-bQpV43G-7">
          <mxGeometry x="51" y="26.5" width="61" height="61" as="geometry" />
        </mxCell>
        <mxCell id="bCjuTU7vgoYl-bQpV43G-36" value="open-playground-volumeclaim" style="shape=image;html=1;verticalLabelPosition=bottom;verticalAlign=top;imageAspect=1;aspect=fixed;image=data:image/png,iVBORw0KGgoAAAANSUhEUgAAAIAAAACACAYAAADDPmHLAAAABmJLR0QA/wD/AP+gvaeTAAAdoklEQVR4nO2deXxU1fn/P8+dPTPJTJJJwpJAWAIEEvZ91RZs+3L5+lVAxI2qta3Ky12oKNa2bq21ta1tbZVSrVqtte33y6/fKrILGNYkECAJSSALCSF7Mpn9nt8fd5Z7ZybLJHNnAsz7H7jbuSdzPvfcc5/zPM8BrjIYY0sYY+8wxk4zxiyMsQbGWBFj7EeMsUmxrl8cmWCMLWeMHWS9wzPG/pcxNifW9Y0TITwNX9BHw4diO2NsXqzrLzcU6wrIAWOMANwM4DkAMwKPd9nYyRNVjubyeicZdYTRGUpMzdaM5ziMCFHc/wH4ERF9JXO1Y8IVJQDGGAfgFggNPzXgsLui3vXV8++1ZpyucY4PvJYI7NppusJnbjNSsoGbHqL4zwH8mIi+jHzNY8cVIQBPw18P4AUEP/F87SVXwRN/bBl2tt41pj/lLczVnti01mgbZlKEGgvsB/AqEf3v4Go9NLisBeBp+FshNHxuwGFnRb3r0DN/ahl5tt6VPZDy503UnNx8p8k6zKSYjeDf6ooQwmUpAFHD/xjAxIDDzop616ENW1oyqxpcoyNxv7xsddmLd5uaM9OU8xH8mx0A8MrlKoTLSgCMMRWA2wFsAjAh4LCjot51+Om3W7LONbpGyXH/vGx12Qt3mtqyM5RzEPzbFQJ4CcAnRMTkuL8cXBYCEDX8cwACB3COknPOgg1bWsfXt7qGR6M+uVnKsy/clXJx3HDlfACKgMNFAF7EZSKEIS0AxpgawBoAmwGMCzhsLznnPPT0n1pyGlrcw6JfOyA3S3X2hbuSexLCCQCvAfgLEfHRr13/GJIC8DT8OghPfGbAYcuRcvvR595tm9TY5k6PeuVCMCpdUfOTu1LOTclWLQCgDDh8EsDPALxPRO7o1653hpQAGGMaAPdAeOJHSo/BcvSs/eiz77ZNujREGj6QPoRwCsCrGGJCGBICYIzpAdwP4GlAao3zNvymra25TR18WkwqGCZZZmXts2uNlbNzNPMAaAIOV0IQwhYickW/dlJiKgDGmAHAfQA2AhgmPYau/SW2o5v/0ja13cInx6SCgyTTrKx7bq2xYnaOZi4AbcDhKgCvIMZCiIkARA3/AwAZ0mPo3F9iO7b5vfZp7d1uUyzqF2lGmpUXNq81np2do5kDQBdw+ByAXwL4PRHZo123qAqAMZYI4EEIXX2K5BjQ8sVx64mX/toxvaPbbYxmvaJFmpFrenaNqWRxnnYugoVQDeB1AG8RkS1adYqKABhjSQC+D2ADAEl3zjPWsqPQduInH7bP6LLySdGoT6xJTeKaNt9uKlmcp50DICHgcA2AnwP4AxFZ5a6LrAJgjKUCWA/gEQCS7pxnaN5RaD354w/aZlpsLFHOegxVUpK4lqdXGk8sn66bSYTA36ARQo/wKzmFIIsAGGNmAA8DeBSApDvnGZq2FVhKXv1bxxybgwWq/6okOZFaNqwynVg+XTeDCIG9oFcIvyai7kjfO6ICYIylAXgIwGOA9A/hGS5tK7CceuXjjrl2Jwt8/8UBYDJwrRtXG4uXT9dNJ0LgOKgJwJsAXieijkjdMyICYIylA3gcQncveardPLvwyT7L2V/+T+dch4MFfgrFCYFeQ11Prkw6euN8/TQKeHXCL4RfEFH7YO81KAEwxkYAeAbCJ52kcd08at7b0VX+1r87FzlcLNAYEqcfJOrI8sStxhPXz9VN4ogChdAM4fPxF0RkGeg9BiwAxth3IVi0JF2Vm8f5LZ91nnv7M8tCl5tXDbT8OH4MWrI8foux6Mb5CZM4kn4+Q7AjPEBE2wdS9oAEwBj7CYQ5eR8ONzv3x/901f358855bj7IDh4nAiSoqfuJlabDN83XTeEIZtEhF4DbieiTcMsMWwCMsXsAbBXtsm07ZC348Qdti1xuFm/4KGDQcR1vPpRcnDdaswj+NnQCmEtEheGUFZYAGGMpAEoBn/qsT77demZXkTXI9TqO/Dy5Mmnv7csMS0W7vgKwMBxHFC7Me94Bf+PjjX92HI83fux47ZOOpUfK7XtEu+YDCCuYJVwBrPT+p7WLHX13R9fCMK+PE2Eef6tlNs+jQbRrdTjX91sAjDEtBIUBAH71r/Yh49RwNWOxM/3eElupaNc14VwfTg8wC4AaEJw0PjtinRbOjeLIx9bPu8TOsPkeB5t+EY4AFnj/09LJl9njxp0hw8nzjhzG0ObZVALod3TzgARw4rxj0CbIOJGDMVBLJ6sQ7VrQ48kBhCMA3+hyZ5G9311MnOhwrMLWJdqMrAAYY6Ph99JlB051B/rox4kxu4rsBtHmAk+IfJ/0twfwKcrhZudaO1mgPTpOjDlw2joBgDcAxYzgQJqQhC2Acw2uuvCqFicadHazRLuTVYl29ctGE7YA9pfYhny829VKZb2rXrTZr3FAnwJgjOkA+L75dxbZYxKHF6dvviyROBNHRgCQGoC6ztQ6xoZftTjRYFexVRxVlefxxu6V/kzf+g1AFr6M5zFzIJWLFqlJHEakKGHUczAZOJj0HIx6DhwBSgWQoBE0r1ERNB53FauDwekCDpy2YVeR/ymaN1GD1CQObRYebV08Wrt4tFt4dNuH5luwrM41hgGtJLjeKwDMBrCzt2vCEkBxhSNizogDJTWJw4SRKmSalcg0K1BR78L/fOV3ln3gm4lYuWRgZoqWLrdEAKuX6nHN1GA3xo5uHrVNbtQ2uVDn+bfmkgtnap2wxHCIxBioud1dYTYqZnt2LUAEBCAyAHUbejsx0qiVhKlj1MjLVmHKaDWmjFIhI1kahr+72CYRQFv3wEPxnQEReiZ96DdkUgKHyaM4TB4l9XjjGVDd6ELJeSc+2mtByXnHgOsyUI5XOrtWzPD9Rn2OA3oVAGMsG/5oXbb/lEN2A5DJwGHxFC2W5mmxIFeDBE3v9owRqVJBtFsGIwDp05vUgwB6giMgO0OJ7AwlPjsqdeGfNlaNslonrA55e4gdhbakFTN8vdZ8xhj15iDSVw8gMgChqt3CyzYAzMtW457lBlyTrwUXxu8+MlX6J1Q1uLD9mNX33m6zCO9tpxtgjKHLKvwWDheDzdMYCVoOSg6oviTtAj7c3YXhKUqY9BySDZxvXJGZqoBa1bswT9c4ff/Xqgm/fzgVPAO2FXTjvZ0W1DbJExB8oMQ6ATC5IYwBUgHkACjr6fx+C6CqwXkBgCwCWJCrwW8eTO3XuTWXXCipdqKq3oXaZhdqm9wgAphH4wdP23HwdGSCbD/dHzoQhwhIMyqQaVYg06zESLMCOSNUmDJaBXOSAo1tbrR0+nuiWTkan2BWLtHjlkV67Ci04s1tnai5FFkhWOzMYHewsxo1eXMpLUAkBPDlSflGN4fLHLjY5kaGSdqdu3ngeIUdh0odKDnvwKlqJzoG8Y6PFIwBjW1uNLa5ceys9D2fYVIgPeDvWDRZOnPOccCKmTosztPi5Y/a8P8ORTb0r6LBVT95lEosgD/3dG6PAvAYgHzpVncVWWXLwOVyM/xtnwUP35gEl5th9wnhc+zAKfuQaPBwuNjmxsU2qbNUYYUD44YrMTtHKgSdmvDCnckgImwriFzY396TNk40QO11INjji4wxtgTAXuH/6Jz76IUEng/KhDUgpoxWQaUkFFb4nx6TgcO3Vxjw4W4LGlqvTG+ziZkq3L3cgBUzdFCIxjnddob/euGi5LUxGMaPUFV99IM0b1pcHkByT/GEvQ23xB5A5ZFqfAC4ZZEef3zEjI2rjTAnCcW2dfH4xT86rtjGB4DSWic2bW3F3a9dwoUW/9+ZoCEsnxG5eNmKemc2z1iLZ5MDMLenc/slgMLKyBqARqcrwRGwaoken72Y4RPB1cKZGid+8anUqWp0euRiahgDNXfw/fIQ6k0APg/gXcW2iBqAAj/zfv6dZIxIuXpEkJ+txpMrpdHfinAd9PvgaLlTHDAangAYY2Pgz9rFDpyyyWoAystW4+NN6Vh/UxLSjFeuEPKz1fjZ/SnY8rg56Isn0uwosooVtsCTYDuInvodn2LsTiarAciLTk1Yt8KAO7+mx/5TduwptmFfiS1iA6NYkZWmxLJ8Lb42XYtpY9RRu2/BaVsOAK9ByAQhufaZwPP6FEBlg0s2A1AolArCsnwtluVrwTPg5DkHCs7YUVLtREGpHQ7n0JyJ8zIyVSHMW4xWYeFkLcYOi028rMXODHYnyjQqX1b1BRiIAPafknd6i+eB4ioHpo8Lfjo4AqaOUWPqGDUYA762scEngJGpCszK0aC2SbAGNrZF7+tBwQHDUhTIMCkkhqDVS/XYsKrvDHcuN8PRcgfmTZI3tKKsznkxP1slFsCfAs8JEkCgAWh3kU3WFOxuxnDfL5swO0eDVUsTcE2+FkpFsHniQotbYhSaMU6D5+/wJ81wOBnqmt1otwj2f/EcfredR5eVgWfCj19+wYm6Jr9gpo5RQ6cmGHQEIvL4DZBg+9f7fQqMeg6piQpkJHNQKgg8Dyx8vB5OtyDK8jq//T8UFhvDPw9a8MEuC4iA59b663/uYuTnBr4ssXH52b0bhEL1AHMAqACAMXSU1jqj0v0fKbfjSLkdOjVhzgQNls/QYUmeBkkJwtjlTI30xw2cBVSrCGP62d3+dlsn3vms07f97O0mjBseflfNcUBGssI3sVNW5wTPhJ7LS0snj4On7fjiuBVfnbHDIZpxfPA3zWHfMxx2FVozv3+9L/vcZMaYMTCvUKi/WmoAYpglYx2DsDoY9p60Ye9JG5QKEnwBRqlR1yx9QgIFEA6OgGnfwGngcBhp9gvAYmPYd9KG1i4ep847cOKcE+UXnL6JqmhTedE1imdo5gip8BuEJKlkehXA8UpHZ4jjUcPlZiiscEhMxl62H7ehqZ0XZuTSlBiZqvD1Fn0R2ODeLry/tHTyqGlyofaSO8j/4PE/tPRwVfRhDNTY7qocZlJ6p1oXoB8C8HsAFVplyeD5yT4L9p4QXK/cA/zK219iw36pFyy0av97O9ng9wnUqgmJOr8vYOC7emehDeV1LnTbebjcgmePxcbDYmNo7ZL6FbRb+KAeZCAkJXBY7nfcQGWDK6TQB8vxcqflW3N8zRw0DpAIgDE2FiID0Fen5fEA+vdheTKf2hwMNocbF8OcT3h3R1ffJ0UYcxKHTWv8g8C/7bPIIoAdhVbTt+b45hnmM8Y48RI2gX2m2ABUeaWka7+aKSh15EDIIgYIBiHJMns9CqCywX1B3qrFiQbddl5vc0hCxyUhY4FjAHEImGyVume5AZlm4dZunuGVj+PpBuSkvM51MX+MyvvkLwDwjveYTwCMsQSIDEA7irpDraQdEZZN9dvFne64AORmz0mrIn9MaIOQ+BUwBx5BMIb2s3X9W2g5ztBnd7FNvPReLmPMt2iHWAA+ZTR3uMt5FnYKuThDlKoG12ie4ZJnkyDyEAopgONnHdH/LoojK42tLnHuAF9biwXgMwDtKLZdlUu4XMkcKXeK3Y6lAmCMjYN/+Ta+4Iz8IWBxosvOQqt4sa75Xg8hbw8gMgChoiNuALriKCiziw1CSQBygRACqKh3NkBuRKZ0jijiDpGXAypldNfstDlYgtXOzop2LQBCCGDfSfnXLBR77yg44MlbjVeVCDgOeORmafKOaMRDlNY5GkWbggA8eWXzvXt3nbDJZgDysrtYKrLVS/V476k0zJfZRWqowPPAJdFDwPPwzY7Kyb4TDrETha8HkBiAKuqcshuAPj9mxeEyaQTvxEwV3nwoFc/efuUNPyZmqnDvdQZJL/fzTzt8Hs8f7O5CZYP860fvLO4eJdqcxBhLUULU/TcJBqDZwZdGFp4BT/yxBa8/kBIUMBkojDXL9Civc+J0jXPI5uYJJNnAYcpoNRZO1mBpnhbDPUEv1Zfc+OK4MBXe0c3j1b+1Y06OGm/8MzqZd6ob3Vk8QyNHSIfHIKSEKAKotNYZNQOQxcbw/d80485rDbj/m4nQawkd3Tx2iV4P5iQFnrzVCCJBNFUNLpyudqCk2onKehfqml242OoGHyNdqBSE4SkKZKYpMH64kB9g8mh1j1FOty/T+wQAAF8ct0q2o0FrJ1+TmsSlezYXKAFM9h6sbHBHdSjG84Izxr++6sbaa/VwuiDx+184WQPyDJY5AsYNV2LccCVuEC2K4nQzXGh2o/aSCxda3D7vndPVThRV+R0sEnWcr6xOKx/kp6fgAL1W+PN1aoJaRT5P4MNl/niEscOUeGqlEZlpSgwzKcLKZjJ9nBo5I1V9eg/LSWO725qa5Kv0JCUA30QBxyEmz1K7hcfvtgW7HwYmVgiFSkEYna4MCq786x6LRACv3peMeROl5TlcDAqu78/Qm3/U6Mvk4XQDcyeGN1g93+jCnhM27C62xbTxAYAjSRuPUAKwwbPqZ5ZZMaResn/a3oWz9S5MGSVkCUtJ7P/jFuisqQoRa6Du57e4Uc+hxjOV0tDiBs8HB7iKqWtyo6TagZPnnPiyxIbzjfIP8PqL2aQQ59CzKQFUw7M+7cxxmv4l6okSZ2qckniAjGQFpoxSYWKmP09gplkJkyG4NQIzi6gGEaFlFGULc7oZGtuFdDaX2t2+fIHVl1worXWi5LxzUJnK5ESrpu4UPSd2CatWAtgBjyNIYgJNyc1SnT1d4xwfsoQYc7FVcPjcWST9ZjboOIxMFXLzeL2Cjwc4WJ5vdEGpIBDg9xBWC17JLhfAM4YuTxSc3cFgdzF0Wnm0dfKSb3YAeOCNJlzq4Id8nGIga5bpjxNhkWjXdmKMTQVQCE+6mPpmV8ENP2wMa+25OEOfBA1n2f3TjHYFR15DXxuATI6IigF85D1xeKpy3veuT9wXk1rGkY3fPpx8TNT4APAsEVm8L7f1AGq8R77zzcQ5M8arT0W1hnFk475vGA7mZ2uWiHbtAfB7wDMZRERNEFYF9ZrhtG+tTzUlJ9LQiXOKMyDystVlD96QJF7jsQHAWiJyAyKPICI6BOAx77aCoxEfbcw4x3G4ctN2XeEYExRtbz+aqgWQ4NnlBLCaiHwxH5LvJyL6HURJBFKTuJkvr0uOjwcuQ4jA3t9gLlUpSDwB9AQRSdozlDnjQQDHvBvLZ+iW/fcifYFM9YwjEy9/O2XP8BSF+Gvur0T068DzggRARDYAtwLwZi+gTbcZJ2anK6vlqWqcSLN8hu7Yihla8aDvDIAHQp0b0qBJROcArINnHToimD7YkGbTqilyCW3jyMLIVMWFl79tygZ8mV07AdxCRCFzPfRo0SaibQBe8m5r1DTh3SfTjkewrnEijEZJ9g83prdzRN6FPRmAe4nodE/X9DW78jyA/3g3xg1XLlp/Y9LewVc1jhy885j5kF5LuaJdPyWiT3q7plcBeBIJ3AHAF1Wy7jrDvNkT1EWDqmmciPPt6wz7c0epxO/9XQCe7eu6PudXiagFwC0AvK4rmt89ZE5LSeTkTXEVp9/kZavLHr4xSbycXwOAO4ioz3nofk2wE1EhgEd9F3EY8fEz6efjRqLY4zH26AB488A4AawiovpeLvPRbw8LIvoDgC3e7WQDN/O1+1PiRqIYwhH4j54xn1UpKEu0+zEi+rLfZYR5z4cAHPVuLMvXLlu1RP9VmGXEiRAv35uyN82/SCQAfEhEb4ZTRlgCEBmJmry7Nqwy5o4ZpqwMp5w4g2f5TN2x5dMlxp4TAL4TbjlhewET0XkAayGkIgcRjO8/leaOG4miR6ZZWffyuiBjz2oisvR8VWgGHKHIGPshBDsBAKCy3nVg1UuNC3u+IvJMzFThgw1p2FbQjd//uxOP/ncS5k7QQKUkFFc58Ot/dUgWcJwxTo23HzXji+NWbNjSGrLMvz+bjqw0Ja7b1IC2Lr9v39hhSqxbkYg5E9RITuTQ2smjtNaJv+/vjko8pRe1mmw7XhpWlaDxfe8zCIO+vw+kvMHEAfwIwP95N8YOVy585ObYGImSDRy2PmFGbpYa+0/ZcbraiXkTNXjnMTPysv1p6AsrhfUJF0/RQqcO1n7OSBWyM5Q4VGqXNP6SPC3efzoN18/VoaObx54TNtQ1uzFzvAZ3fT2qyyljy6PmI6LGB4BXBtr4QP8Wjw4JEfGMsTsAHIFnQYm7v25YcKjMUXzwlG1q71dHlkVTtNhdbMPGLa2+vL83zE3AC3eZsHmtCbe93AjGhAUfvzhuxR3XGrA0X4vPjkqjcq6bKXxJfX7Mvz81icOL9ySD44Cn32nBjkL/065TC4tbR4sHb0jcl5sVZOx5bjBlDioSiIhaITUSqX713eS0lETFxcGUGy48A17/tF2S9HnboW4UVwkLNk4b62+kz48JDbgixDJtK2Zo4XQzyRLyty7SQ68l/ONAt6TxASGzeUFpZJap7Yup2erS+76RKB7x1wK4zevZM1AGHQpGREUAvusrkKPhHz+TVq/gELVoiDM1TtQ1B/8O2z1xd+K1ek6ec6Cu2Y1Fk6Urk+dmqZCVpsTB03Z0Wv3d/+wJQhTQvw7Gboxr1HOtbz9mToDU2LOGiC71clm/iEgsIBG9B+Bt73aygZv++gMp/TZGDJaekkM3eBZnDFyJbPsxK9QqYW0iL9fN8nT/Aa+FdKPwE9U2xcboyRH4j36QVqHgIDb2PEJE+yNSfiQK8fAwhPEAAGDxFO2y25YaDkaw/B7pKTzDGwwaGAjqfcd7Gx0QXgkOJ8OegEQNFN1MLkH89L4gY88HHte9iBAxARCRHQFGoqdWJuVPGCm/kWhYcuhw7AzP/uZO6dNbWuvE+UYXFuRqYNBxyM9WY3iKAvtK7EE5CLy9y0hz9NczvGFewuFrp2mXinYNyNjTGxENByeiagBr4DcSGbY+kebWqUnWvAOTMlUhY/K96/EWVYZYceSYFSoF4Zqp2pCjfy+Hy4Vrb5qfEHRMTjLNyrof3mkaB38beY09ER2MRDwfABHtgGAjAABoVJTz/oa04kjfRwzHAY/dYpSsNvat2TpMG6NGVYMLhSEE4P0E/MZMHZbP0MLqYCENOv/Y341uO8MtixKwNE8rOaZREWblRD6vkVpNtg83pnUQIPbsWUdEQev+DRZZ3nCMMQLwKYCbvfs+3N2157W/dyyL5H28lsD9JTZMzFLB7gCKqhzISFZg1ng1HE6G7/26WZInQMzHz6T7Vgv7z1ErNm0NbR28ZqoWr9ybDJWCcKbGiXONLqQmcpiUpUJZnQsPvNEU8rqB8sHGtC8njlQtFu16kYj6dO4YCLJkBCEiBuBeAL6FCm6/xrBw8WS1LD1BaxePe19vQmmdE0vyNJgySoXDZXbc/0ZTj40PSEf820N0/152F9tw98+a8PkxK9JNCnx9uhaj05U4XuHAn7+I7NvtkZuNewMafydEJvdII+sY1xN5fBCeyBSeofH6zRfR2OZO7/3K/iGeC3j+L22RKDKmzJ6gLXlrfcp4AN73Sg2AWZH43u8JWXMCeSKPff7oHCH9rxvT6hQcxTZPyhDEqOdaf/tQShL8jR8xY09vyJ4UiojeB/CWd9uo52b86nspETFiXClwBP7jYGPPeiI6IPu95b6Bh/UAfH/M/FzNsjXLomMkuhx47YHUvWapsed9InqrxwsiSNTsXIyxLAjuZGnCNix3/PRSQ2mt86pOTX/TvITDz99pmgX/w1gMYEGkv/d7Imp5AYmoBlIjkX7rk2ZOrw0dsnQ1kGVW1m6WGnvaIIRxRW3mKaqJIYlI8kmjVtCY9zekF6Fnc/4Vi8fY0xVg7LmXiCp6uy7SxCJJ+0sQjEQAgCyzYvHG1carLtzsz4+bj+g0NEm06ydE9I9o1yPqAvAYie4D4Fu8YNUS/cJrp+mumsDTp1YZ90yQGns+B/DDWNQlJss0EFEbhJxE3ned6mf3JU+Qy1I4lFh/Y+K+NUv14hm+8xDCuGKSXTKms92MsbsAvCva5dx30r5/09aW2RY7i663pcwMT1bW//bhlKpR6Uqx57QdwBIiOhyresXY3QFgjP0GQsSRmO7zja7CU+edjooGp8pqv7wWsVQpmBUEPlGnUGZnKDB9rCYpNYmbBr8fv5fvENHbocqIFkNBAAoAWwHcGeOqRJtNRPRS36fJS8yfLI9X6zoAz0DIXH6l0wjBxh/zxgeGQA8ghjE2GsA9AG6CEGuQ3PsVlwUMQD2AUgCfQPDpGzJTl/8f6BlSbwj/KqwAAAAASUVORK5CYII=;" vertex="1" parent="bCjuTU7vgoYl-bQpV43G-7">
          <mxGeometry x="626" y="27" width="61" height="61" as="geometry" />
        </mxCell>
        <mxCell id="bCjuTU7vgoYl-bQpV43G-40" value="pgsql14-volumeclaim" style="shape=image;html=1;verticalLabelPosition=bottom;verticalAlign=top;imageAspect=1;aspect=fixed;image=data:image/png,iVBORw0KGgoAAAANSUhEUgAAAIAAAACACAYAAADDPmHLAAAABmJLR0QA/wD/AP+gvaeTAAAdoklEQVR4nO2deXxU1fn/P8+dPTPJTJJJwpJAWAIEEvZ91RZs+3L5+lVAxI2qta3Ky12oKNa2bq21ta1tbZVSrVqtte33y6/fKrILGNYkECAJSSALCSF7Mpn9nt8fd5Z7ZybLJHNnAsz7H7jbuSdzPvfcc5/zPM8BrjIYY0sYY+8wxk4zxiyMsQbGWBFj7EeMsUmxrl8cmWCMLWeMHWS9wzPG/pcxNifW9Y0TITwNX9BHw4diO2NsXqzrLzcU6wrIAWOMANwM4DkAMwKPd9nYyRNVjubyeicZdYTRGUpMzdaM5ziMCFHc/wH4ERF9JXO1Y8IVJQDGGAfgFggNPzXgsLui3vXV8++1ZpyucY4PvJYI7NppusJnbjNSsoGbHqL4zwH8mIi+jHzNY8cVIQBPw18P4AUEP/F87SVXwRN/bBl2tt41pj/lLczVnti01mgbZlKEGgvsB/AqEf3v4Go9NLisBeBp+FshNHxuwGFnRb3r0DN/ahl5tt6VPZDy503UnNx8p8k6zKSYjeDf6ooQwmUpAFHD/xjAxIDDzop616ENW1oyqxpcoyNxv7xsddmLd5uaM9OU8xH8mx0A8MrlKoTLSgCMMRWA2wFsAjAh4LCjot51+Om3W7LONbpGyXH/vGx12Qt3mtqyM5RzEPzbFQJ4CcAnRMTkuL8cXBYCEDX8cwACB3COknPOgg1bWsfXt7qGR6M+uVnKsy/clXJx3HDlfACKgMNFAF7EZSKEIS0AxpgawBoAmwGMCzhsLznnPPT0n1pyGlrcw6JfOyA3S3X2hbuSexLCCQCvAfgLEfHRr13/GJIC8DT8OghPfGbAYcuRcvvR595tm9TY5k6PeuVCMCpdUfOTu1LOTclWLQCgDDh8EsDPALxPRO7o1653hpQAGGMaAPdAeOJHSo/BcvSs/eiz77ZNujREGj6QPoRwCsCrGGJCGBICYIzpAdwP4GlAao3zNvymra25TR18WkwqGCZZZmXts2uNlbNzNPMAaAIOV0IQwhYickW/dlJiKgDGmAHAfQA2AhgmPYau/SW2o5v/0ja13cInx6SCgyTTrKx7bq2xYnaOZi4AbcDhKgCvIMZCiIkARA3/AwAZ0mPo3F9iO7b5vfZp7d1uUyzqF2lGmpUXNq81np2do5kDQBdw+ByAXwL4PRHZo123qAqAMZYI4EEIXX2K5BjQ8sVx64mX/toxvaPbbYxmvaJFmpFrenaNqWRxnnYugoVQDeB1AG8RkS1adYqKABhjSQC+D2ADAEl3zjPWsqPQduInH7bP6LLySdGoT6xJTeKaNt9uKlmcp50DICHgcA2AnwP4AxFZ5a6LrAJgjKUCWA/gEQCS7pxnaN5RaD354w/aZlpsLFHOegxVUpK4lqdXGk8sn66bSYTA36ARQo/wKzmFIIsAGGNmAA8DeBSApDvnGZq2FVhKXv1bxxybgwWq/6okOZFaNqwynVg+XTeDCIG9oFcIvyai7kjfO6ICYIylAXgIwGOA9A/hGS5tK7CceuXjjrl2Jwt8/8UBYDJwrRtXG4uXT9dNJ0LgOKgJwJsAXieijkjdMyICYIylA3gcQncveardPLvwyT7L2V/+T+dch4MFfgrFCYFeQ11Prkw6euN8/TQKeHXCL4RfEFH7YO81KAEwxkYAeAbCJ52kcd08at7b0VX+1r87FzlcLNAYEqcfJOrI8sStxhPXz9VN4ogChdAM4fPxF0RkGeg9BiwAxth3IVi0JF2Vm8f5LZ91nnv7M8tCl5tXDbT8OH4MWrI8foux6Mb5CZM4kn4+Q7AjPEBE2wdS9oAEwBj7CYQ5eR8ONzv3x/901f358855bj7IDh4nAiSoqfuJlabDN83XTeEIZtEhF4DbieiTcMsMWwCMsXsAbBXtsm07ZC348Qdti1xuFm/4KGDQcR1vPpRcnDdaswj+NnQCmEtEheGUFZYAGGMpAEoBn/qsT77demZXkTXI9TqO/Dy5Mmnv7csMS0W7vgKwMBxHFC7Me94Bf+PjjX92HI83fux47ZOOpUfK7XtEu+YDCCuYJVwBrPT+p7WLHX13R9fCMK+PE2Eef6tlNs+jQbRrdTjX91sAjDEtBIUBAH71r/Yh49RwNWOxM/3eElupaNc14VwfTg8wC4AaEJw0PjtinRbOjeLIx9bPu8TOsPkeB5t+EY4AFnj/09LJl9njxp0hw8nzjhzG0ObZVALod3TzgARw4rxj0CbIOJGDMVBLJ6sQ7VrQ48kBhCMA3+hyZ5G9311MnOhwrMLWJdqMrAAYY6Ph99JlB051B/rox4kxu4rsBtHmAk+IfJ/0twfwKcrhZudaO1mgPTpOjDlw2joBgDcAxYzgQJqQhC2Acw2uuvCqFicadHazRLuTVYl29ctGE7YA9pfYhny829VKZb2rXrTZr3FAnwJgjOkA+L75dxbZYxKHF6dvviyROBNHRgCQGoC6ztQ6xoZftTjRYFexVRxVlefxxu6V/kzf+g1AFr6M5zFzIJWLFqlJHEakKGHUczAZOJj0HIx6DhwBSgWQoBE0r1ERNB53FauDwekCDpy2YVeR/ymaN1GD1CQObRYebV08Wrt4tFt4dNuH5luwrM41hgGtJLjeKwDMBrCzt2vCEkBxhSNizogDJTWJw4SRKmSalcg0K1BR78L/fOV3ln3gm4lYuWRgZoqWLrdEAKuX6nHN1GA3xo5uHrVNbtQ2uVDn+bfmkgtnap2wxHCIxBioud1dYTYqZnt2LUAEBCAyAHUbejsx0qiVhKlj1MjLVmHKaDWmjFIhI1kahr+72CYRQFv3wEPxnQEReiZ96DdkUgKHyaM4TB4l9XjjGVDd6ELJeSc+2mtByXnHgOsyUI5XOrtWzPD9Rn2OA3oVAGMsG/5oXbb/lEN2A5DJwGHxFC2W5mmxIFeDBE3v9owRqVJBtFsGIwDp05vUgwB6giMgO0OJ7AwlPjsqdeGfNlaNslonrA55e4gdhbakFTN8vdZ8xhj15iDSVw8gMgChqt3CyzYAzMtW457lBlyTrwUXxu8+MlX6J1Q1uLD9mNX33m6zCO9tpxtgjKHLKvwWDheDzdMYCVoOSg6oviTtAj7c3YXhKUqY9BySDZxvXJGZqoBa1bswT9c4ff/Xqgm/fzgVPAO2FXTjvZ0W1DbJExB8oMQ6ATC5IYwBUgHkACjr6fx+C6CqwXkBgCwCWJCrwW8eTO3XuTWXXCipdqKq3oXaZhdqm9wgAphH4wdP23HwdGSCbD/dHzoQhwhIMyqQaVYg06zESLMCOSNUmDJaBXOSAo1tbrR0+nuiWTkan2BWLtHjlkV67Ci04s1tnai5FFkhWOzMYHewsxo1eXMpLUAkBPDlSflGN4fLHLjY5kaGSdqdu3ngeIUdh0odKDnvwKlqJzoG8Y6PFIwBjW1uNLa5ceys9D2fYVIgPeDvWDRZOnPOccCKmTosztPi5Y/a8P8ORTb0r6LBVT95lEosgD/3dG6PAvAYgHzpVncVWWXLwOVyM/xtnwUP35gEl5th9wnhc+zAKfuQaPBwuNjmxsU2qbNUYYUD44YrMTtHKgSdmvDCnckgImwriFzY396TNk40QO11INjji4wxtgTAXuH/6Jz76IUEng/KhDUgpoxWQaUkFFb4nx6TgcO3Vxjw4W4LGlqvTG+ziZkq3L3cgBUzdFCIxjnddob/euGi5LUxGMaPUFV99IM0b1pcHkByT/GEvQ23xB5A5ZFqfAC4ZZEef3zEjI2rjTAnCcW2dfH4xT86rtjGB4DSWic2bW3F3a9dwoUW/9+ZoCEsnxG5eNmKemc2z1iLZ5MDMLenc/slgMLKyBqARqcrwRGwaoken72Y4RPB1cKZGid+8anUqWp0euRiahgDNXfw/fIQ6k0APg/gXcW2iBqAAj/zfv6dZIxIuXpEkJ+txpMrpdHfinAd9PvgaLlTHDAangAYY2Pgz9rFDpyyyWoAystW4+NN6Vh/UxLSjFeuEPKz1fjZ/SnY8rg56Isn0uwosooVtsCTYDuInvodn2LsTiarAciLTk1Yt8KAO7+mx/5TduwptmFfiS1iA6NYkZWmxLJ8Lb42XYtpY9RRu2/BaVsOAK9ByAQhufaZwPP6FEBlg0s2A1AolArCsnwtluVrwTPg5DkHCs7YUVLtREGpHQ7n0JyJ8zIyVSHMW4xWYeFkLcYOi028rMXODHYnyjQqX1b1BRiIAPafknd6i+eB4ioHpo8Lfjo4AqaOUWPqGDUYA762scEngJGpCszK0aC2SbAGNrZF7+tBwQHDUhTIMCkkhqDVS/XYsKrvDHcuN8PRcgfmTZI3tKKsznkxP1slFsCfAs8JEkCgAWh3kU3WFOxuxnDfL5swO0eDVUsTcE2+FkpFsHniQotbYhSaMU6D5+/wJ81wOBnqmt1otwj2f/EcfredR5eVgWfCj19+wYm6Jr9gpo5RQ6cmGHQEIvL4DZBg+9f7fQqMeg6piQpkJHNQKgg8Dyx8vB5OtyDK8jq//T8UFhvDPw9a8MEuC4iA59b663/uYuTnBr4ssXH52b0bhEL1AHMAqACAMXSU1jqj0v0fKbfjSLkdOjVhzgQNls/QYUmeBkkJwtjlTI30xw2cBVSrCGP62d3+dlsn3vms07f97O0mjBseflfNcUBGssI3sVNW5wTPhJ7LS0snj4On7fjiuBVfnbHDIZpxfPA3zWHfMxx2FVozv3+9L/vcZMaYMTCvUKi/WmoAYpglYx2DsDoY9p60Ye9JG5QKEnwBRqlR1yx9QgIFEA6OgGnfwGngcBhp9gvAYmPYd9KG1i4ep847cOKcE+UXnL6JqmhTedE1imdo5gip8BuEJKlkehXA8UpHZ4jjUcPlZiiscEhMxl62H7ehqZ0XZuTSlBiZqvD1Fn0R2ODeLry/tHTyqGlyofaSO8j/4PE/tPRwVfRhDNTY7qocZlJ6p1oXoB8C8HsAFVplyeD5yT4L9p4QXK/cA/zK219iw36pFyy0av97O9ng9wnUqgmJOr8vYOC7emehDeV1LnTbebjcgmePxcbDYmNo7ZL6FbRb+KAeZCAkJXBY7nfcQGWDK6TQB8vxcqflW3N8zRw0DpAIgDE2FiID0Fen5fEA+vdheTKf2hwMNocbF8OcT3h3R1ffJ0UYcxKHTWv8g8C/7bPIIoAdhVbTt+b45hnmM8Y48RI2gX2m2ABUeaWka7+aKSh15EDIIgYIBiHJMns9CqCywX1B3qrFiQbddl5vc0hCxyUhY4FjAHEImGyVume5AZlm4dZunuGVj+PpBuSkvM51MX+MyvvkLwDwjveYTwCMsQSIDEA7irpDraQdEZZN9dvFne64AORmz0mrIn9MaIOQ+BUwBx5BMIb2s3X9W2g5ztBnd7FNvPReLmPMt2iHWAA+ZTR3uMt5FnYKuThDlKoG12ie4ZJnkyDyEAopgONnHdH/LoojK42tLnHuAF9biwXgMwDtKLZdlUu4XMkcKXeK3Y6lAmCMjYN/+Ta+4Iz8IWBxosvOQqt4sa75Xg8hbw8gMgChoiNuALriKCiziw1CSQBygRACqKh3NkBuRKZ0jijiDpGXAypldNfstDlYgtXOzop2LQBCCGDfSfnXLBR77yg44MlbjVeVCDgOeORmafKOaMRDlNY5GkWbggA8eWXzvXt3nbDJZgDysrtYKrLVS/V476k0zJfZRWqowPPAJdFDwPPwzY7Kyb4TDrETha8HkBiAKuqcshuAPj9mxeEyaQTvxEwV3nwoFc/efuUNPyZmqnDvdQZJL/fzTzt8Hs8f7O5CZYP860fvLO4eJdqcxBhLUULU/TcJBqDZwZdGFp4BT/yxBa8/kBIUMBkojDXL9Civc+J0jXPI5uYJJNnAYcpoNRZO1mBpnhbDPUEv1Zfc+OK4MBXe0c3j1b+1Y06OGm/8MzqZd6ob3Vk8QyNHSIfHIKSEKAKotNYZNQOQxcbw/d80485rDbj/m4nQawkd3Tx2iV4P5iQFnrzVCCJBNFUNLpyudqCk2onKehfqml242OoGHyNdqBSE4SkKZKYpMH64kB9g8mh1j1FOty/T+wQAAF8ct0q2o0FrJ1+TmsSlezYXKAFM9h6sbHBHdSjG84Izxr++6sbaa/VwuiDx+184WQPyDJY5AsYNV2LccCVuEC2K4nQzXGh2o/aSCxda3D7vndPVThRV+R0sEnWcr6xOKx/kp6fgAL1W+PN1aoJaRT5P4MNl/niEscOUeGqlEZlpSgwzKcLKZjJ9nBo5I1V9eg/LSWO725qa5Kv0JCUA30QBxyEmz1K7hcfvtgW7HwYmVgiFSkEYna4MCq786x6LRACv3peMeROl5TlcDAqu78/Qm3/U6Mvk4XQDcyeGN1g93+jCnhM27C62xbTxAYAjSRuPUAKwwbPqZ5ZZMaResn/a3oWz9S5MGSVkCUtJ7P/jFuisqQoRa6Du57e4Uc+hxjOV0tDiBs8HB7iKqWtyo6TagZPnnPiyxIbzjfIP8PqL2aQQ59CzKQFUw7M+7cxxmv4l6okSZ2qckniAjGQFpoxSYWKmP09gplkJkyG4NQIzi6gGEaFlFGULc7oZGtuFdDaX2t2+fIHVl1worXWi5LxzUJnK5ESrpu4UPSd2CatWAtgBjyNIYgJNyc1SnT1d4xwfsoQYc7FVcPjcWST9ZjboOIxMFXLzeL2Cjwc4WJ5vdEGpIBDg9xBWC17JLhfAM4YuTxSc3cFgdzF0Wnm0dfKSb3YAeOCNJlzq4Id8nGIga5bpjxNhkWjXdmKMTQVQCE+6mPpmV8ENP2wMa+25OEOfBA1n2f3TjHYFR15DXxuATI6IigF85D1xeKpy3veuT9wXk1rGkY3fPpx8TNT4APAsEVm8L7f1AGq8R77zzcQ5M8arT0W1hnFk475vGA7mZ2uWiHbtAfB7wDMZRERNEFYF9ZrhtG+tTzUlJ9LQiXOKMyDystVlD96QJF7jsQHAWiJyAyKPICI6BOAx77aCoxEfbcw4x3G4ctN2XeEYExRtbz+aqgWQ4NnlBLCaiHwxH5LvJyL6HURJBFKTuJkvr0uOjwcuQ4jA3t9gLlUpSDwB9AQRSdozlDnjQQDHvBvLZ+iW/fcifYFM9YwjEy9/O2XP8BSF+Gvur0T068DzggRARDYAtwLwZi+gTbcZJ2anK6vlqWqcSLN8hu7Yihla8aDvDIAHQp0b0qBJROcArINnHToimD7YkGbTqilyCW3jyMLIVMWFl79tygZ8mV07AdxCRCFzPfRo0SaibQBe8m5r1DTh3SfTjkewrnEijEZJ9g83prdzRN6FPRmAe4nodE/X9DW78jyA/3g3xg1XLlp/Y9LewVc1jhy885j5kF5LuaJdPyWiT3q7plcBeBIJ3AHAF1Wy7jrDvNkT1EWDqmmciPPt6wz7c0epxO/9XQCe7eu6PudXiagFwC0AvK4rmt89ZE5LSeTkTXEVp9/kZavLHr4xSbycXwOAO4ioz3nofk2wE1EhgEd9F3EY8fEz6efjRqLY4zH26AB488A4AawiovpeLvPRbw8LIvoDgC3e7WQDN/O1+1PiRqIYwhH4j54xn1UpKEu0+zEi+rLfZYR5z4cAHPVuLMvXLlu1RP9VmGXEiRAv35uyN82/SCQAfEhEb4ZTRlgCEBmJmry7Nqwy5o4ZpqwMp5w4g2f5TN2x5dMlxp4TAL4TbjlhewET0XkAayGkIgcRjO8/leaOG4miR6ZZWffyuiBjz2oisvR8VWgGHKHIGPshBDsBAKCy3nVg1UuNC3u+IvJMzFThgw1p2FbQjd//uxOP/ncS5k7QQKUkFFc58Ot/dUgWcJwxTo23HzXji+NWbNjSGrLMvz+bjqw0Ja7b1IC2Lr9v39hhSqxbkYg5E9RITuTQ2smjtNaJv+/vjko8pRe1mmw7XhpWlaDxfe8zCIO+vw+kvMHEAfwIwP95N8YOVy585ObYGImSDRy2PmFGbpYa+0/ZcbraiXkTNXjnMTPysv1p6AsrhfUJF0/RQqcO1n7OSBWyM5Q4VGqXNP6SPC3efzoN18/VoaObx54TNtQ1uzFzvAZ3fT2qyyljy6PmI6LGB4BXBtr4QP8Wjw4JEfGMsTsAHIFnQYm7v25YcKjMUXzwlG1q71dHlkVTtNhdbMPGLa2+vL83zE3AC3eZsHmtCbe93AjGhAUfvzhuxR3XGrA0X4vPjkqjcq6bKXxJfX7Mvz81icOL9ySD44Cn32nBjkL/065TC4tbR4sHb0jcl5sVZOx5bjBlDioSiIhaITUSqX713eS0lETFxcGUGy48A17/tF2S9HnboW4UVwkLNk4b62+kz48JDbgixDJtK2Zo4XQzyRLyty7SQ68l/ONAt6TxASGzeUFpZJap7Yup2erS+76RKB7x1wK4zevZM1AGHQpGREUAvusrkKPhHz+TVq/gELVoiDM1TtQ1B/8O2z1xd+K1ek6ec6Cu2Y1Fk6Urk+dmqZCVpsTB03Z0Wv3d/+wJQhTQvw7Gboxr1HOtbz9mToDU2LOGiC71clm/iEgsIBG9B+Bt73aygZv++gMp/TZGDJaekkM3eBZnDFyJbPsxK9QqYW0iL9fN8nT/Aa+FdKPwE9U2xcboyRH4j36QVqHgIDb2PEJE+yNSfiQK8fAwhPEAAGDxFO2y25YaDkaw/B7pKTzDGwwaGAjqfcd7Gx0QXgkOJ8OegEQNFN1MLkH89L4gY88HHte9iBAxARCRHQFGoqdWJuVPGCm/kWhYcuhw7AzP/uZO6dNbWuvE+UYXFuRqYNBxyM9WY3iKAvtK7EE5CLy9y0hz9NczvGFewuFrp2mXinYNyNjTGxENByeiagBr4DcSGbY+kebWqUnWvAOTMlUhY/K96/EWVYZYceSYFSoF4Zqp2pCjfy+Hy4Vrb5qfEHRMTjLNyrof3mkaB38beY09ER2MRDwfABHtgGAjAABoVJTz/oa04kjfRwzHAY/dYpSsNvat2TpMG6NGVYMLhSEE4P0E/MZMHZbP0MLqYCENOv/Y341uO8MtixKwNE8rOaZREWblRD6vkVpNtg83pnUQIPbsWUdEQev+DRZZ3nCMMQLwKYCbvfs+3N2157W/dyyL5H28lsD9JTZMzFLB7gCKqhzISFZg1ng1HE6G7/26WZInQMzHz6T7Vgv7z1ErNm0NbR28ZqoWr9ybDJWCcKbGiXONLqQmcpiUpUJZnQsPvNEU8rqB8sHGtC8njlQtFu16kYj6dO4YCLJkBCEiBuBeAL6FCm6/xrBw8WS1LD1BaxePe19vQmmdE0vyNJgySoXDZXbc/0ZTj40PSEf820N0/152F9tw98+a8PkxK9JNCnx9uhaj05U4XuHAn7+I7NvtkZuNewMafydEJvdII+sY1xN5fBCeyBSeofH6zRfR2OZO7/3K/iGeC3j+L22RKDKmzJ6gLXlrfcp4AN73Sg2AWZH43u8JWXMCeSKPff7oHCH9rxvT6hQcxTZPyhDEqOdaf/tQShL8jR8xY09vyJ4UiojeB/CWd9uo52b86nspETFiXClwBP7jYGPPeiI6IPu95b6Bh/UAfH/M/FzNsjXLomMkuhx47YHUvWapsed9InqrxwsiSNTsXIyxLAjuZGnCNix3/PRSQ2mt86pOTX/TvITDz99pmgX/w1gMYEGkv/d7Imp5AYmoBlIjkX7rk2ZOrw0dsnQ1kGVW1m6WGnvaIIRxRW3mKaqJIYlI8kmjVtCY9zekF6Fnc/4Vi8fY0xVg7LmXiCp6uy7SxCJJ+0sQjEQAgCyzYvHG1carLtzsz4+bj+g0NEm06ydE9I9o1yPqAvAYie4D4Fu8YNUS/cJrp+mumsDTp1YZ90yQGns+B/DDWNQlJss0EFEbhJxE3ned6mf3JU+Qy1I4lFh/Y+K+NUv14hm+8xDCuGKSXTKms92MsbsAvCva5dx30r5/09aW2RY7i663pcwMT1bW//bhlKpR6Uqx57QdwBIiOhyresXY3QFgjP0GQsSRmO7zja7CU+edjooGp8pqv7wWsVQpmBUEPlGnUGZnKDB9rCYpNYmbBr8fv5fvENHbocqIFkNBAAoAWwHcGeOqRJtNRPRS36fJS8yfLI9X6zoAz0DIXH6l0wjBxh/zxgeGQA8ghjE2GsA9AG6CEGuQ3PsVlwUMQD2AUgCfQPDpGzJTl/8f6BlSbwj/KqwAAAAASUVORK5CYII=;" vertex="1" parent="bCjuTU7vgoYl-bQpV43G-7">
          <mxGeometry x="458" y="26" width="61" height="61" as="geometry" />
        </mxCell>
        <mxCell id="bCjuTU7vgoYl-bQpV43G-21" value="ray-cluster-vc-1" style="shape=image;html=1;verticalLabelPosition=bottom;verticalAlign=top;imageAspect=1;aspect=fixed;image=data:image/png,iVBORw0KGgoAAAANSUhEUgAAAIAAAACACAYAAADDPmHLAAAABmJLR0QA/wD/AP+gvaeTAAAdoklEQVR4nO2deXxU1fn/P8+dPTPJTJJJwpJAWAIEEvZ91RZs+3L5+lVAxI2qta3Ky12oKNa2bq21ta1tbZVSrVqtte33y6/fKrILGNYkECAJSSALCSF7Mpn9nt8fd5Z7ZybLJHNnAsz7H7jbuSdzPvfcc5/zPM8BrjIYY0sYY+8wxk4zxiyMsQbGWBFj7EeMsUmxrl8cmWCMLWeMHWS9wzPG/pcxNifW9Y0TITwNX9BHw4diO2NsXqzrLzcU6wrIAWOMANwM4DkAMwKPd9nYyRNVjubyeicZdYTRGUpMzdaM5ziMCFHc/wH4ERF9JXO1Y8IVJQDGGAfgFggNPzXgsLui3vXV8++1ZpyucY4PvJYI7NppusJnbjNSsoGbHqL4zwH8mIi+jHzNY8cVIQBPw18P4AUEP/F87SVXwRN/bBl2tt41pj/lLczVnti01mgbZlKEGgvsB/AqEf3v4Go9NLisBeBp+FshNHxuwGFnRb3r0DN/ahl5tt6VPZDy503UnNx8p8k6zKSYjeDf6ooQwmUpAFHD/xjAxIDDzop616ENW1oyqxpcoyNxv7xsddmLd5uaM9OU8xH8mx0A8MrlKoTLSgCMMRWA2wFsAjAh4LCjot51+Om3W7LONbpGyXH/vGx12Qt3mtqyM5RzEPzbFQJ4CcAnRMTkuL8cXBYCEDX8cwACB3COknPOgg1bWsfXt7qGR6M+uVnKsy/clXJx3HDlfACKgMNFAF7EZSKEIS0AxpgawBoAmwGMCzhsLznnPPT0n1pyGlrcw6JfOyA3S3X2hbuSexLCCQCvAfgLEfHRr13/GJIC8DT8OghPfGbAYcuRcvvR595tm9TY5k6PeuVCMCpdUfOTu1LOTclWLQCgDDh8EsDPALxPRO7o1653hpQAGGMaAPdAeOJHSo/BcvSs/eiz77ZNujREGj6QPoRwCsCrGGJCGBICYIzpAdwP4GlAao3zNvymra25TR18WkwqGCZZZmXts2uNlbNzNPMAaAIOV0IQwhYickW/dlJiKgDGmAHAfQA2AhgmPYau/SW2o5v/0ja13cInx6SCgyTTrKx7bq2xYnaOZi4AbcDhKgCvIMZCiIkARA3/AwAZ0mPo3F9iO7b5vfZp7d1uUyzqF2lGmpUXNq81np2do5kDQBdw+ByAXwL4PRHZo123qAqAMZYI4EEIXX2K5BjQ8sVx64mX/toxvaPbbYxmvaJFmpFrenaNqWRxnnYugoVQDeB1AG8RkS1adYqKABhjSQC+D2ADAEl3zjPWsqPQduInH7bP6LLySdGoT6xJTeKaNt9uKlmcp50DICHgcA2AnwP4AxFZ5a6LrAJgjKUCWA/gEQCS7pxnaN5RaD354w/aZlpsLFHOegxVUpK4lqdXGk8sn66bSYTA36ARQo/wKzmFIIsAGGNmAA8DeBSApDvnGZq2FVhKXv1bxxybgwWq/6okOZFaNqwynVg+XTeDCIG9oFcIvyai7kjfO6ICYIylAXgIwGOA9A/hGS5tK7CceuXjjrl2Jwt8/8UBYDJwrRtXG4uXT9dNJ0LgOKgJwJsAXieijkjdMyICYIylA3gcQncveardPLvwyT7L2V/+T+dch4MFfgrFCYFeQ11Prkw6euN8/TQKeHXCL4RfEFH7YO81KAEwxkYAeAbCJ52kcd08at7b0VX+1r87FzlcLNAYEqcfJOrI8sStxhPXz9VN4ogChdAM4fPxF0RkGeg9BiwAxth3IVi0JF2Vm8f5LZ91nnv7M8tCl5tXDbT8OH4MWrI8foux6Mb5CZM4kn4+Q7AjPEBE2wdS9oAEwBj7CYQ5eR8ONzv3x/901f358855bj7IDh4nAiSoqfuJlabDN83XTeEIZtEhF4DbieiTcMsMWwCMsXsAbBXtsm07ZC348Qdti1xuFm/4KGDQcR1vPpRcnDdaswj+NnQCmEtEheGUFZYAGGMpAEoBn/qsT77demZXkTXI9TqO/Dy5Mmnv7csMS0W7vgKwMBxHFC7Me94Bf+PjjX92HI83fux47ZOOpUfK7XtEu+YDCCuYJVwBrPT+p7WLHX13R9fCMK+PE2Eef6tlNs+jQbRrdTjX91sAjDEtBIUBAH71r/Yh49RwNWOxM/3eElupaNc14VwfTg8wC4AaEJw0PjtinRbOjeLIx9bPu8TOsPkeB5t+EY4AFnj/09LJl9njxp0hw8nzjhzG0ObZVALod3TzgARw4rxj0CbIOJGDMVBLJ6sQ7VrQ48kBhCMA3+hyZ5G9311MnOhwrMLWJdqMrAAYY6Ph99JlB051B/rox4kxu4rsBtHmAk+IfJ/0twfwKcrhZudaO1mgPTpOjDlw2joBgDcAxYzgQJqQhC2Acw2uuvCqFicadHazRLuTVYl29ctGE7YA9pfYhny829VKZb2rXrTZr3FAnwJgjOkA+L75dxbZYxKHF6dvviyROBNHRgCQGoC6ztQ6xoZftTjRYFexVRxVlefxxu6V/kzf+g1AFr6M5zFzIJWLFqlJHEakKGHUczAZOJj0HIx6DhwBSgWQoBE0r1ERNB53FauDwekCDpy2YVeR/ymaN1GD1CQObRYebV08Wrt4tFt4dNuH5luwrM41hgGtJLjeKwDMBrCzt2vCEkBxhSNizogDJTWJw4SRKmSalcg0K1BR78L/fOV3ln3gm4lYuWRgZoqWLrdEAKuX6nHN1GA3xo5uHrVNbtQ2uVDn+bfmkgtnap2wxHCIxBioud1dYTYqZnt2LUAEBCAyAHUbejsx0qiVhKlj1MjLVmHKaDWmjFIhI1kahr+72CYRQFv3wEPxnQEReiZ96DdkUgKHyaM4TB4l9XjjGVDd6ELJeSc+2mtByXnHgOsyUI5XOrtWzPD9Rn2OA3oVAGMsG/5oXbb/lEN2A5DJwGHxFC2W5mmxIFeDBE3v9owRqVJBtFsGIwDp05vUgwB6giMgO0OJ7AwlPjsqdeGfNlaNslonrA55e4gdhbakFTN8vdZ8xhj15iDSVw8gMgChqt3CyzYAzMtW457lBlyTrwUXxu8+MlX6J1Q1uLD9mNX33m6zCO9tpxtgjKHLKvwWDheDzdMYCVoOSg6oviTtAj7c3YXhKUqY9BySDZxvXJGZqoBa1bswT9c4ff/Xqgm/fzgVPAO2FXTjvZ0W1DbJExB8oMQ6ATC5IYwBUgHkACjr6fx+C6CqwXkBgCwCWJCrwW8eTO3XuTWXXCipdqKq3oXaZhdqm9wgAphH4wdP23HwdGSCbD/dHzoQhwhIMyqQaVYg06zESLMCOSNUmDJaBXOSAo1tbrR0+nuiWTkan2BWLtHjlkV67Ci04s1tnai5FFkhWOzMYHewsxo1eXMpLUAkBPDlSflGN4fLHLjY5kaGSdqdu3ngeIUdh0odKDnvwKlqJzoG8Y6PFIwBjW1uNLa5ceys9D2fYVIgPeDvWDRZOnPOccCKmTosztPi5Y/a8P8ORTb0r6LBVT95lEosgD/3dG6PAvAYgHzpVncVWWXLwOVyM/xtnwUP35gEl5th9wnhc+zAKfuQaPBwuNjmxsU2qbNUYYUD44YrMTtHKgSdmvDCnckgImwriFzY396TNk40QO11INjji4wxtgTAXuH/6Jz76IUEng/KhDUgpoxWQaUkFFb4nx6TgcO3Vxjw4W4LGlqvTG+ziZkq3L3cgBUzdFCIxjnddob/euGi5LUxGMaPUFV99IM0b1pcHkByT/GEvQ23xB5A5ZFqfAC4ZZEef3zEjI2rjTAnCcW2dfH4xT86rtjGB4DSWic2bW3F3a9dwoUW/9+ZoCEsnxG5eNmKemc2z1iLZ5MDMLenc/slgMLKyBqARqcrwRGwaoken72Y4RPB1cKZGid+8anUqWp0euRiahgDNXfw/fIQ6k0APg/gXcW2iBqAAj/zfv6dZIxIuXpEkJ+txpMrpdHfinAd9PvgaLlTHDAangAYY2Pgz9rFDpyyyWoAystW4+NN6Vh/UxLSjFeuEPKz1fjZ/SnY8rg56Isn0uwosooVtsCTYDuInvodn2LsTiarAciLTk1Yt8KAO7+mx/5TduwptmFfiS1iA6NYkZWmxLJ8Lb42XYtpY9RRu2/BaVsOAK9ByAQhufaZwPP6FEBlg0s2A1AolArCsnwtluVrwTPg5DkHCs7YUVLtREGpHQ7n0JyJ8zIyVSHMW4xWYeFkLcYOi028rMXODHYnyjQqX1b1BRiIAPafknd6i+eB4ioHpo8Lfjo4AqaOUWPqGDUYA762scEngJGpCszK0aC2SbAGNrZF7+tBwQHDUhTIMCkkhqDVS/XYsKrvDHcuN8PRcgfmTZI3tKKsznkxP1slFsCfAs8JEkCgAWh3kU3WFOxuxnDfL5swO0eDVUsTcE2+FkpFsHniQotbYhSaMU6D5+/wJ81wOBnqmt1otwj2f/EcfredR5eVgWfCj19+wYm6Jr9gpo5RQ6cmGHQEIvL4DZBg+9f7fQqMeg6piQpkJHNQKgg8Dyx8vB5OtyDK8jq//T8UFhvDPw9a8MEuC4iA59b663/uYuTnBr4ssXH52b0bhEL1AHMAqACAMXSU1jqj0v0fKbfjSLkdOjVhzgQNls/QYUmeBkkJwtjlTI30xw2cBVSrCGP62d3+dlsn3vms07f97O0mjBseflfNcUBGssI3sVNW5wTPhJ7LS0snj4On7fjiuBVfnbHDIZpxfPA3zWHfMxx2FVozv3+9L/vcZMaYMTCvUKi/WmoAYpglYx2DsDoY9p60Ye9JG5QKEnwBRqlR1yx9QgIFEA6OgGnfwGngcBhp9gvAYmPYd9KG1i4ep847cOKcE+UXnL6JqmhTedE1imdo5gip8BuEJKlkehXA8UpHZ4jjUcPlZiiscEhMxl62H7ehqZ0XZuTSlBiZqvD1Fn0R2ODeLry/tHTyqGlyofaSO8j/4PE/tPRwVfRhDNTY7qocZlJ6p1oXoB8C8HsAFVplyeD5yT4L9p4QXK/cA/zK219iw36pFyy0av97O9ng9wnUqgmJOr8vYOC7emehDeV1LnTbebjcgmePxcbDYmNo7ZL6FbRb+KAeZCAkJXBY7nfcQGWDK6TQB8vxcqflW3N8zRw0DpAIgDE2FiID0Fen5fEA+vdheTKf2hwMNocbF8OcT3h3R1ffJ0UYcxKHTWv8g8C/7bPIIoAdhVbTt+b45hnmM8Y48RI2gX2m2ABUeaWka7+aKSh15EDIIgYIBiHJMns9CqCywX1B3qrFiQbddl5vc0hCxyUhY4FjAHEImGyVume5AZlm4dZunuGVj+PpBuSkvM51MX+MyvvkLwDwjveYTwCMsQSIDEA7irpDraQdEZZN9dvFne64AORmz0mrIn9MaIOQ+BUwBx5BMIb2s3X9W2g5ztBnd7FNvPReLmPMt2iHWAA+ZTR3uMt5FnYKuThDlKoG12ie4ZJnkyDyEAopgONnHdH/LoojK42tLnHuAF9biwXgMwDtKLZdlUu4XMkcKXeK3Y6lAmCMjYN/+Ta+4Iz8IWBxosvOQqt4sa75Xg8hbw8gMgChoiNuALriKCiziw1CSQBygRACqKh3NkBuRKZ0jijiDpGXAypldNfstDlYgtXOzop2LQBCCGDfSfnXLBR77yg44MlbjVeVCDgOeORmafKOaMRDlNY5GkWbggA8eWXzvXt3nbDJZgDysrtYKrLVS/V476k0zJfZRWqowPPAJdFDwPPwzY7Kyb4TDrETha8HkBiAKuqcshuAPj9mxeEyaQTvxEwV3nwoFc/efuUNPyZmqnDvdQZJL/fzTzt8Hs8f7O5CZYP860fvLO4eJdqcxBhLUULU/TcJBqDZwZdGFp4BT/yxBa8/kBIUMBkojDXL9Civc+J0jXPI5uYJJNnAYcpoNRZO1mBpnhbDPUEv1Zfc+OK4MBXe0c3j1b+1Y06OGm/8MzqZd6ob3Vk8QyNHSIfHIKSEKAKotNYZNQOQxcbw/d80485rDbj/m4nQawkd3Tx2iV4P5iQFnrzVCCJBNFUNLpyudqCk2onKehfqml242OoGHyNdqBSE4SkKZKYpMH64kB9g8mh1j1FOty/T+wQAAF8ct0q2o0FrJ1+TmsSlezYXKAFM9h6sbHBHdSjG84Izxr++6sbaa/VwuiDx+184WQPyDJY5AsYNV2LccCVuEC2K4nQzXGh2o/aSCxda3D7vndPVThRV+R0sEnWcr6xOKx/kp6fgAL1W+PN1aoJaRT5P4MNl/niEscOUeGqlEZlpSgwzKcLKZjJ9nBo5I1V9eg/LSWO725qa5Kv0JCUA30QBxyEmz1K7hcfvtgW7HwYmVgiFSkEYna4MCq786x6LRACv3peMeROl5TlcDAqu78/Qm3/U6Mvk4XQDcyeGN1g93+jCnhM27C62xbTxAYAjSRuPUAKwwbPqZ5ZZMaResn/a3oWz9S5MGSVkCUtJ7P/jFuisqQoRa6Du57e4Uc+hxjOV0tDiBs8HB7iKqWtyo6TagZPnnPiyxIbzjfIP8PqL2aQQ59CzKQFUw7M+7cxxmv4l6okSZ2qckniAjGQFpoxSYWKmP09gplkJkyG4NQIzi6gGEaFlFGULc7oZGtuFdDaX2t2+fIHVl1worXWi5LxzUJnK5ESrpu4UPSd2CatWAtgBjyNIYgJNyc1SnT1d4xwfsoQYc7FVcPjcWST9ZjboOIxMFXLzeL2Cjwc4WJ5vdEGpIBDg9xBWC17JLhfAM4YuTxSc3cFgdzF0Wnm0dfKSb3YAeOCNJlzq4Id8nGIga5bpjxNhkWjXdmKMTQVQCE+6mPpmV8ENP2wMa+25OEOfBA1n2f3TjHYFR15DXxuATI6IigF85D1xeKpy3veuT9wXk1rGkY3fPpx8TNT4APAsEVm8L7f1AGq8R77zzcQ5M8arT0W1hnFk475vGA7mZ2uWiHbtAfB7wDMZRERNEFYF9ZrhtG+tTzUlJ9LQiXOKMyDystVlD96QJF7jsQHAWiJyAyKPICI6BOAx77aCoxEfbcw4x3G4ctN2XeEYExRtbz+aqgWQ4NnlBLCaiHwxH5LvJyL6HURJBFKTuJkvr0uOjwcuQ4jA3t9gLlUpSDwB9AQRSdozlDnjQQDHvBvLZ+iW/fcifYFM9YwjEy9/O2XP8BSF+Gvur0T068DzggRARDYAtwLwZi+gTbcZJ2anK6vlqWqcSLN8hu7Yihla8aDvDIAHQp0b0qBJROcArINnHToimD7YkGbTqilyCW3jyMLIVMWFl79tygZ8mV07AdxCRCFzPfRo0SaibQBe8m5r1DTh3SfTjkewrnEijEZJ9g83prdzRN6FPRmAe4nodE/X9DW78jyA/3g3xg1XLlp/Y9LewVc1jhy885j5kF5LuaJdPyWiT3q7plcBeBIJ3AHAF1Wy7jrDvNkT1EWDqmmciPPt6wz7c0epxO/9XQCe7eu6PudXiagFwC0AvK4rmt89ZE5LSeTkTXEVp9/kZavLHr4xSbycXwOAO4ioz3nofk2wE1EhgEd9F3EY8fEz6efjRqLY4zH26AB488A4AawiovpeLvPRbw8LIvoDgC3e7WQDN/O1+1PiRqIYwhH4j54xn1UpKEu0+zEi+rLfZYR5z4cAHPVuLMvXLlu1RP9VmGXEiRAv35uyN82/SCQAfEhEb4ZTRlgCEBmJmry7Nqwy5o4ZpqwMp5w4g2f5TN2x5dMlxp4TAL4TbjlhewET0XkAayGkIgcRjO8/leaOG4miR6ZZWffyuiBjz2oisvR8VWgGHKHIGPshBDsBAKCy3nVg1UuNC3u+IvJMzFThgw1p2FbQjd//uxOP/ncS5k7QQKUkFFc58Ot/dUgWcJwxTo23HzXji+NWbNjSGrLMvz+bjqw0Ja7b1IC2Lr9v39hhSqxbkYg5E9RITuTQ2smjtNaJv+/vjko8pRe1mmw7XhpWlaDxfe8zCIO+vw+kvMHEAfwIwP95N8YOVy585ObYGImSDRy2PmFGbpYa+0/ZcbraiXkTNXjnMTPysv1p6AsrhfUJF0/RQqcO1n7OSBWyM5Q4VGqXNP6SPC3efzoN18/VoaObx54TNtQ1uzFzvAZ3fT2qyyljy6PmI6LGB4BXBtr4QP8Wjw4JEfGMsTsAHIFnQYm7v25YcKjMUXzwlG1q71dHlkVTtNhdbMPGLa2+vL83zE3AC3eZsHmtCbe93AjGhAUfvzhuxR3XGrA0X4vPjkqjcq6bKXxJfX7Mvz81icOL9ySD44Cn32nBjkL/065TC4tbR4sHb0jcl5sVZOx5bjBlDioSiIhaITUSqX713eS0lETFxcGUGy48A17/tF2S9HnboW4UVwkLNk4b62+kz48JDbgixDJtK2Zo4XQzyRLyty7SQ68l/ONAt6TxASGzeUFpZJap7Yup2erS+76RKB7x1wK4zevZM1AGHQpGREUAvusrkKPhHz+TVq/gELVoiDM1TtQ1B/8O2z1xd+K1ek6ec6Cu2Y1Fk6Urk+dmqZCVpsTB03Z0Wv3d/+wJQhTQvw7Gboxr1HOtbz9mToDU2LOGiC71clm/iEgsIBG9B+Bt73aygZv++gMp/TZGDJaekkM3eBZnDFyJbPsxK9QqYW0iL9fN8nT/Aa+FdKPwE9U2xcboyRH4j36QVqHgIDb2PEJE+yNSfiQK8fAwhPEAAGDxFO2y25YaDkaw/B7pKTzDGwwaGAjqfcd7Gx0QXgkOJ8OegEQNFN1MLkH89L4gY88HHte9iBAxARCRHQFGoqdWJuVPGCm/kWhYcuhw7AzP/uZO6dNbWuvE+UYXFuRqYNBxyM9WY3iKAvtK7EE5CLy9y0hz9NczvGFewuFrp2mXinYNyNjTGxENByeiagBr4DcSGbY+kebWqUnWvAOTMlUhY/K96/EWVYZYceSYFSoF4Zqp2pCjfy+Hy4Vrb5qfEHRMTjLNyrof3mkaB38beY09ER2MRDwfABHtgGAjAABoVJTz/oa04kjfRwzHAY/dYpSsNvat2TpMG6NGVYMLhSEE4P0E/MZMHZbP0MLqYCENOv/Y341uO8MtixKwNE8rOaZREWblRD6vkVpNtg83pnUQIPbsWUdEQev+DRZZ3nCMMQLwKYCbvfs+3N2157W/dyyL5H28lsD9JTZMzFLB7gCKqhzISFZg1ng1HE6G7/26WZInQMzHz6T7Vgv7z1ErNm0NbR28ZqoWr9ybDJWCcKbGiXONLqQmcpiUpUJZnQsPvNEU8rqB8sHGtC8njlQtFu16kYj6dO4YCLJkBCEiBuBeAL6FCm6/xrBw8WS1LD1BaxePe19vQmmdE0vyNJgySoXDZXbc/0ZTj40PSEf820N0/152F9tw98+a8PkxK9JNCnx9uhaj05U4XuHAn7+I7NvtkZuNewMafydEJvdII+sY1xN5fBCeyBSeofH6zRfR2OZO7/3K/iGeC3j+L22RKDKmzJ6gLXlrfcp4AN73Sg2AWZH43u8JWXMCeSKPff7oHCH9rxvT6hQcxTZPyhDEqOdaf/tQShL8jR8xY09vyJ4UiojeB/CWd9uo52b86nspETFiXClwBP7jYGPPeiI6IPu95b6Bh/UAfH/M/FzNsjXLomMkuhx47YHUvWapsed9InqrxwsiSNTsXIyxLAjuZGnCNix3/PRSQ2mt86pOTX/TvITDz99pmgX/w1gMYEGkv/d7Imp5AYmoBlIjkX7rk2ZOrw0dsnQ1kGVW1m6WGnvaIIRxRW3mKaqJIYlI8kmjVtCY9zekF6Fnc/4Vi8fY0xVg7LmXiCp6uy7SxCJJ+0sQjEQAgCyzYvHG1carLtzsz4+bj+g0NEm06ydE9I9o1yPqAvAYie4D4Fu8YNUS/cJrp+mumsDTp1YZ90yQGns+B/DDWNQlJss0EFEbhJxE3ned6mf3JU+Qy1I4lFh/Y+K+NUv14hm+8xDCuGKSXTKms92MsbsAvCva5dx30r5/09aW2RY7i663pcwMT1bW//bhlKpR6Uqx57QdwBIiOhyresXY3QFgjP0GQsSRmO7zja7CU+edjooGp8pqv7wWsVQpmBUEPlGnUGZnKDB9rCYpNYmbBr8fv5fvENHbocqIFkNBAAoAWwHcGeOqRJtNRPRS36fJS8yfLI9X6zoAz0DIXH6l0wjBxh/zxgeGQA8ghjE2GsA9AG6CEGuQ3PsVlwUMQD2AUgCfQPDpGzJTl/8f6BlSbwj/KqwAAAAASUVORK5CYII=;" vertex="1" parent="bCjuTU7vgoYl-bQpV43G-7">
          <mxGeometry x="171" y="26.5" width="61" height="61" as="geometry" />
        </mxCell>
        <mxCell id="bCjuTU7vgoYl-bQpV43G-44" style="edgeStyle=orthogonalEdgeStyle;rounded=0;orthogonalLoop=1;jettySize=auto;html=1;" edge="1" parent="bCjuTU7vgoYl-bQpV43G-2" source="bCjuTU7vgoYl-bQpV43G-25" target="bCjuTU7vgoYl-bQpV43G-36">
          <mxGeometry relative="1" as="geometry" />
        </mxCell>
        <mxCell id="bCjuTU7vgoYl-bQpV43G-45" value="" style="edgeStyle=orthogonalEdgeStyle;rounded=0;orthogonalLoop=1;jettySize=auto;html=1;" edge="1" parent="bCjuTU7vgoYl-bQpV43G-2" source="bCjuTU7vgoYl-bQpV43G-8" target="bCjuTU7vgoYl-bQpV43G-37">
          <mxGeometry relative="1" as="geometry" />
        </mxCell>
      </root>
    </mxGraphModel>
  </diagram>
</mxfile>
